<svg width="393" height="334" viewBox="0 0 393 334" fill="none" xmlns="http://www.w3.org/2000/svg">
    <g clip-path="url(#clip0_15_14756)">
        <path d="M416 314H-22V315H416V314Z" fill="#D5D2D2" />
        <path
            d="M282.979 51.7913C281.113 49.9254 277.522 42.8561 280.965 39.5273C284.407 36.1985 287.473 39.2207 287.71 40.8413C287.946 42.4619 287.315 56.1187 282.979 51.7913Z"
            fill="#263238" />
        <path d="M282.191 306.085L274.368 306.155L272.239 288.075L280.053 288.005L282.191 306.085Z"
            fill="#FF8B7B" />
        <path
            d="M274.359 305.253L282.891 305.174C283.049 305.177 283.201 305.229 283.327 305.323C283.453 305.418 283.546 305.549 283.592 305.7L285.66 312.629C285.714 312.79 285.73 312.963 285.704 313.131C285.678 313.299 285.612 313.459 285.512 313.597C285.411 313.734 285.279 313.845 285.126 313.921C284.974 313.997 284.805 314.034 284.635 314.031C281.56 314.031 277.092 313.864 273.247 313.899C268.726 313.899 266.712 314.215 261.403 314.267C258.197 314.267 257.023 311.061 258.381 310.763C264.399 309.37 267.509 309.186 272.546 305.884C273.076 305.502 273.706 305.282 274.359 305.253Z"
            fill="#263238" />
        <path opacity="0.2"
            d="M272.239 288.084L273.343 297.404L281.157 297.334L280.062 288.013L272.239 288.084Z"
            fill="black" />
        <path
            d="M271.127 306.646C271.971 306.631 272.81 306.528 273.632 306.339C273.671 306.334 273.707 306.315 273.734 306.286C273.761 306.258 273.778 306.221 273.781 306.182C273.785 306.144 273.777 306.106 273.758 306.073C273.739 306.04 273.711 306.014 273.676 305.998C273.308 305.814 270.023 304.246 269.121 304.798C269.038 304.851 268.97 304.925 268.923 305.012C268.877 305.1 268.855 305.198 268.858 305.297C268.856 305.465 268.893 305.632 268.966 305.784C269.039 305.936 269.146 306.069 269.279 306.173C269.827 306.528 270.476 306.695 271.127 306.646ZM273.002 306.085C271.311 306.383 270.023 306.322 269.498 305.901C269.407 305.83 269.334 305.738 269.287 305.633C269.24 305.528 269.219 305.412 269.226 305.297C269.221 305.261 269.227 305.224 269.242 305.192C269.258 305.159 269.283 305.132 269.314 305.113C269.804 304.815 271.661 305.516 273.002 306.085Z"
            fill="#1B0A6C" />
        <path
            d="M273.597 306.392C273.639 306.389 273.679 306.374 273.711 306.348C273.738 306.328 273.758 306.301 273.769 306.27C273.78 306.239 273.781 306.205 273.773 306.173C273.773 306.033 273.159 302.669 271.302 302.879C270.812 302.932 270.672 303.186 270.645 303.379C270.514 304.255 272.52 305.954 273.519 306.374L273.597 306.392ZM271.46 303.238C272.581 303.238 273.142 305.069 273.335 305.866C272.301 305.288 270.934 303.957 271.013 303.431C271.013 303.431 271.013 303.282 271.346 303.247L271.46 303.238Z"
            fill="#1B0A6C" />
        <path
            d="M276.663 91.2726L275.857 92.1486L275.104 92.8932C274.605 93.3838 274.088 93.8481 273.571 94.3036C272.543 95.2263 271.492 96.1023 270.417 96.9316C268.249 98.6551 265.966 100.23 263.585 101.644C262.384 102.354 261.149 103.029 259.897 103.668C258.644 104.307 257.321 104.859 255.99 105.42C253.259 106.509 250.415 107.288 247.51 107.741L246.862 107.838C246.441 107.892 246.016 107.918 245.592 107.917C244.616 107.907 243.651 107.717 242.745 107.356C241.846 106.995 241.023 106.469 240.318 105.805C239.756 105.27 239.268 104.663 238.864 104.001C238.304 103.04 237.883 102.005 237.611 100.926C237.399 100.091 237.244 99.2421 237.147 98.3857C236.987 96.9051 236.943 95.4143 237.015 93.9269C237.077 92.5078 237.191 91.1412 237.348 89.8009C237.681 87.1116 238.154 84.5449 238.732 81.9169C239.311 79.2889 239.968 76.8624 240.817 74.322L246.573 75.4608C246.362 80.3839 246.126 85.4297 246.284 90.1951C246.312 92.408 246.547 94.6133 246.984 96.7827C247.071 97.1834 247.191 97.576 247.344 97.9565C247.466 98.2543 247.615 98.4383 247.606 98.3595C247.555 98.226 247.475 98.1061 247.37 98.0091C247.131 97.7785 246.852 97.5943 246.546 97.4659C246.232 97.3336 245.897 97.2537 245.556 97.2294C245.399 97.2294 245.329 97.2294 245.232 97.2294H245.329L245.513 97.1769C247.588 96.6438 249.606 95.9104 251.54 94.9869C253.562 94.0107 255.52 92.9046 257.4 91.6756C259.301 90.4141 261.176 89.0476 262.98 87.6022C263.856 86.8839 264.776 86.1305 265.608 85.3684L266.887 84.2121L267.5 83.6427L268.035 83.1346L276.663 91.2726Z"
            fill="#FF8B7B" />
        <path
            d="M281.297 88.1803C280.999 79.9196 274.219 77.0464 265.722 82.679C261.976 85.0541 258.37 87.6426 254.921 90.4317L260.413 108.074C260.413 108.074 270.925 104.737 277.005 98.1843C281.096 93.7342 281.402 90.9923 281.297 88.1803Z"
            fill="#263238" />
        <path opacity="0.2"
            d="M270.952 91.7019C270.952 91.7019 265.88 98.9552 264.084 106.664C266.578 105.601 268.98 104.335 271.267 102.88L270.952 91.7019Z"
            fill="black" />
        <path
            d="M246.284 78.0801L249.227 71.4312L240.896 68.9959C240.896 68.9959 239.468 72.1758 240.283 77.6333L246.284 78.0801Z"
            fill="#FF8B7B" />
        <path d="M250.112 63.6348L242.867 64.5021L240.896 68.9959L249.227 71.4312L250.112 63.6348Z"
            fill="#FF8B7B" />
        <path
            d="M271.004 148.064C271.004 148.064 265.626 193.143 265.03 217.268C264.417 242.33 269.331 292.884 269.331 292.884L283.444 292.586C283.444 292.586 285.143 238.467 287.193 213.667C289.418 186.634 295.024 147.573 295.024 147.573L271.004 148.064Z"
            fill="#1B0A6C" />
        <path opacity="0.6"
            d="M271.004 148.064C271.004 148.064 265.626 193.143 265.03 217.268C264.417 242.33 269.331 292.884 269.331 292.884L283.444 292.586C283.444 292.586 285.143 238.467 287.193 213.667C289.418 186.634 295.024 147.573 295.024 147.573L271.004 148.064Z"
            fill="white" />
        <path opacity="0.2"
            d="M287.815 160.827C281.507 174.729 283.198 205.783 286.781 219.099C286.912 217.163 287.053 215.332 287.193 213.641C288.656 195.823 291.573 172.793 293.421 159.154C291.704 156.666 289.786 156.473 287.815 160.827Z"
            fill="black" />
        <path d="M285.178 293.191L268.587 293.523L267.36 288.013L284.977 287.97L285.178 293.191Z"
            fill="#1B0A6C" />
        <path d="M317.047 306.085L309.233 306.155L307.104 288.075L314.918 288.005L317.047 306.085Z"
            fill="#FF8B7B" />
        <path
            d="M309.215 305.253L317.756 305.174C317.913 305.178 318.065 305.231 318.191 305.325C318.316 305.419 318.409 305.55 318.457 305.7L320.524 312.629C320.577 312.79 320.591 312.962 320.564 313.129C320.538 313.297 320.472 313.456 320.371 313.593C320.271 313.73 320.14 313.841 319.988 313.917C319.837 313.993 319.669 314.032 319.499 314.031C316.416 314.031 311.957 313.864 308.111 313.899C303.591 313.899 301.568 314.215 296.268 314.267C293.062 314.267 291.888 311.061 293.246 310.763C299.255 309.37 302.365 309.186 307.411 305.884C307.938 305.502 308.565 305.282 309.215 305.253Z"
            fill="#263238" />
        <path opacity="0.2"
            d="M307.104 288.084L308.199 297.404L316.022 297.334L314.927 288.013L307.104 288.084Z"
            fill="black" />
        <path
            d="M305.992 306.646C306.835 306.63 307.675 306.527 308.497 306.339C308.535 306.333 308.57 306.314 308.595 306.286C308.621 306.257 308.636 306.22 308.637 306.182C308.643 306.145 308.637 306.107 308.619 306.074C308.602 306.041 308.574 306.014 308.541 305.998C308.164 305.814 304.879 304.246 303.986 304.798C303.901 304.85 303.832 304.923 303.786 305.011C303.739 305.099 303.718 305.198 303.723 305.297C303.721 305.465 303.757 305.63 303.829 305.782C303.9 305.934 304.004 306.067 304.135 306.173C304.686 306.527 305.338 306.693 305.992 306.646ZM307.866 306.085C306.176 306.383 304.888 306.322 304.362 305.901C304.272 305.829 304.2 305.737 304.151 305.632C304.102 305.527 304.079 305.413 304.082 305.297C304.077 305.261 304.083 305.224 304.098 305.192C304.114 305.159 304.139 305.132 304.17 305.113C304.66 304.815 306.5 305.516 307.866 306.085Z"
            fill="#1B0A6C" />
        <path
            d="M308.453 306.392C308.48 306.391 308.506 306.384 308.531 306.373C308.555 306.361 308.576 306.344 308.594 306.323C308.611 306.303 308.624 306.279 308.631 306.253C308.639 306.227 308.641 306.2 308.637 306.173C308.637 306.033 308.024 302.669 306.167 302.879C305.676 302.932 305.536 303.186 305.501 303.379C305.378 304.255 307.384 305.954 308.383 306.374L308.453 306.392ZM306.324 303.238C307.437 303.238 308.006 305.069 308.199 305.866C307.165 305.288 305.79 303.957 305.869 303.431C305.869 303.431 305.869 303.282 306.202 303.247L306.324 303.238Z"
            fill="#1B0A6C" />
        <path
            d="M284.775 147.766C284.775 147.766 288.673 196.27 291.52 220.202C294.472 245.098 304.196 292.858 304.196 292.858L318.308 292.56C318.308 292.56 314.436 238.336 312.938 213.492C311.3 186.38 310.88 147.17 310.88 147.17L284.775 147.766Z"
            fill="#1B0A6C" />
        <path opacity="0.6"
            d="M284.775 147.766C284.775 147.766 288.673 196.27 291.52 220.202C294.472 245.098 304.196 292.858 304.196 292.858L318.308 292.56C318.308 292.56 314.436 238.336 312.938 213.492C311.3 186.38 310.88 147.17 310.88 147.17L284.775 147.766Z"
            fill="white" />
        <path d="M320.043 293.191L303.443 293.523L302.225 288.013L319.841 287.97L320.043 293.191Z"
            fill="#1B0A6C" />
        <path
            d="M270.032 80.5153C270.032 80.5153 264.259 101.942 271.004 148.064C283.601 147.792 304.757 147.302 310.88 147.188C311.038 140.767 306.299 109.283 311.844 78.9298C307.854 78.2409 303.82 77.8486 299.772 77.7559C293.848 77.5396 287.916 77.6683 282.007 78.1414C277.96 78.6202 273.956 79.4139 270.032 80.5153Z"
            fill="#263238" />
        <path opacity="0.2"
            d="M309.426 100.532L302.899 95.127C303.329 99.3494 307.148 109.695 309.163 114.933C309.128 110.343 309.172 105.499 309.426 100.532Z"
            fill="black" />
        <path
            d="M286.08 92.937L278.958 107.032C278.808 107.328 278.755 107.664 278.808 107.992C278.861 108.319 279.016 108.622 279.252 108.856C279.488 109.09 279.792 109.242 280.12 109.293C280.448 109.343 280.784 109.287 281.078 109.134L285.73 106.576C285.983 106.44 286.269 106.378 286.555 106.397C286.842 106.415 287.117 106.514 287.35 106.681L291.932 109.984C292.195 110.175 292.513 110.277 292.838 110.274C293.163 110.271 293.479 110.163 293.739 109.966C293.998 109.77 294.187 109.495 294.278 109.183C294.369 108.871 294.358 108.537 294.245 108.232L288.892 93.1823C288.799 92.896 288.624 92.6435 288.388 92.4561C288.153 92.2688 287.867 92.1549 287.567 92.1288C287.267 92.1026 286.967 92.1653 286.702 92.309C286.438 92.4528 286.221 92.6712 286.08 92.937Z"
            fill="white" />
        <path
            d="M297.582 57.7481C296.584 63.4947 295.69 73.9892 299.772 77.7122C299.772 77.7122 298.581 82.9156 287.71 84.7202C280.404 82.3725 282.007 78.1326 282.007 78.1326C288.349 76.4682 288.078 71.7466 286.878 67.3316L297.582 57.7481Z"
            fill="#FF8B7B" />
        <path opacity="0.2"
            d="M293.22 61.6463L286.877 67.2878C287.173 68.3163 287.378 69.3685 287.491 70.4326C289.926 70.0297 293.211 67.279 293.412 64.7299C293.537 63.6989 293.471 62.6539 293.22 61.6463Z"
            fill="black" />
        <path
            d="M301.06 50.6788C298.949 58.1423 298.099 62.6187 293.439 65.6759C286.431 70.2662 277.837 64.7999 277.671 56.8371C277.513 49.6889 280.982 38.6776 289.059 37.276C290.833 36.9613 292.658 37.1047 294.361 37.6928C296.064 38.2809 297.589 39.294 298.791 40.6363C299.992 41.9786 300.832 43.6055 301.229 45.363C301.626 47.1204 301.568 48.9501 301.06 50.6788Z"
            fill="#FF8B7B" />
        <path
            d="M296.566 55.2515C295.585 52.8688 294.875 45.0198 298.966 43.0926C303.057 41.1654 307.306 45.8696 306.228 48.0946C304.572 51.546 298.843 60.7703 296.566 55.2515Z"
            fill="#263238" />
        <path
            d="M299.01 45.8608C298.003 43.2328 285.993 41.7436 284.311 38.9141C282.314 35.5503 290.504 35.1473 296.137 36.8555C301.086 38.3622 304.389 39.8164 303.811 43.4956C303.486 45.5805 299.01 45.8608 299.01 45.8608Z"
            fill="#263238" />
        <path
            d="M301.621 43.1539C301.621 43.1539 304.249 43.8723 305.685 41.9451C305.23 43.8547 302.996 45.7819 301.621 43.1539Z"
            fill="#263238" />
        <path
            d="M289.593 35.0509C285.984 32.2477 281.07 35.5415 281.534 39.1944C281.998 42.8474 294.166 45.6243 294.166 45.6243C294.166 45.6243 294.385 38.7739 289.593 35.0509Z"
            fill="#263238" />
        <path
            d="M281.542 39.2119C282.094 41.7699 283.96 43.7759 287.736 45.2651C285.551 43.6493 283.895 41.4204 282.979 38.8615L281.542 39.2119Z"
            fill="#263238" />
        <path
            d="M289.12 50.3021C288.988 50.9241 288.559 51.3533 288.156 51.2657C287.753 51.1781 287.534 50.6 287.666 49.9868C287.797 49.3736 288.235 48.9443 288.638 49.0319C289.041 49.1195 289.26 49.724 289.12 50.3021Z"
            fill="#263238" />
        <path
            d="M282.165 48.7954C282.024 49.4086 281.595 49.8378 281.192 49.7502C280.789 49.6626 280.57 49.0932 280.702 48.48C280.833 47.8668 281.271 47.4376 281.674 47.5164C282.077 47.5953 282.296 48.1822 282.165 48.7954Z"
            fill="#263238" />
        <path
            d="M284.311 49.5838C283.167 51.307 281.79 52.8636 280.22 54.2091C281.096 55.4618 283.049 55.4004 283.049 55.4004L284.311 49.5838Z"
            fill="#FF5652" />
        <path
            d="M284.469 57.4941C285.291 57.6984 286.151 57.7007 286.975 57.5009C287.798 57.3011 288.561 56.905 289.199 56.3465C289.216 56.3294 289.23 56.309 289.24 56.2864C289.249 56.2638 289.254 56.2396 289.254 56.2151C289.254 56.1907 289.249 56.1664 289.24 56.1439C289.23 56.1213 289.216 56.1009 289.199 56.0837C289.163 56.0505 289.116 56.032 289.068 56.032C289.019 56.032 288.972 56.0505 288.936 56.0837C288.338 56.5871 287.63 56.9436 286.87 57.1246C286.109 57.3056 285.317 57.3061 284.556 57.1262C284.507 57.1157 284.456 57.1251 284.415 57.1522C284.373 57.1793 284.343 57.2219 284.333 57.2707C284.322 57.3195 284.332 57.3704 284.359 57.4123C284.386 57.4542 284.429 57.4836 284.477 57.4941H284.469Z"
            fill="#263238" />
        <path
            d="M291.704 48.5151C291.771 48.5285 291.841 48.5234 291.906 48.5002C291.97 48.477 292.027 48.4366 292.07 48.3834C292.114 48.3302 292.141 48.2663 292.151 48.1984C292.161 48.1305 292.152 48.0613 292.125 47.9982C291.888 47.4587 291.526 46.9833 291.069 46.6116C290.612 46.2399 290.073 45.9825 289.497 45.8608C289.399 45.8482 289.301 45.8741 289.222 45.933C289.144 45.9919 289.091 46.0791 289.076 46.1761C289.069 46.2239 289.071 46.2726 289.082 46.3196C289.093 46.3666 289.114 46.4109 289.142 46.4499C289.171 46.4889 289.207 46.522 289.248 46.5472C289.289 46.5723 289.335 46.5892 289.383 46.5966C289.837 46.6965 290.261 46.9037 290.619 47.2008C290.978 47.498 291.259 47.8765 291.441 48.3048C291.466 48.3578 291.502 48.4044 291.548 48.4409C291.594 48.4774 291.647 48.5028 291.704 48.5151Z"
            fill="#263238" />
        <path
            d="M279.624 45.7382C279.693 45.7572 279.766 45.7548 279.833 45.7313C279.9 45.7078 279.959 45.6644 280.001 45.6068C280.278 45.2346 280.639 44.9329 281.054 44.726C281.47 44.519 281.928 44.4127 282.392 44.4154C282.49 44.4247 282.587 44.3948 282.663 44.3324C282.738 44.27 282.786 44.1801 282.795 44.0825C282.804 43.9849 282.775 43.8877 282.712 43.8121C282.65 43.7365 282.56 43.6888 282.462 43.6796C281.875 43.6621 281.291 43.7868 280.762 44.043C280.233 44.2992 279.773 44.6794 279.423 45.1512C279.391 45.1887 279.368 45.2321 279.355 45.2788C279.341 45.3255 279.337 45.3745 279.342 45.4228C279.348 45.4711 279.364 45.5178 279.388 45.56C279.412 45.6021 279.445 45.6389 279.484 45.6681C279.524 45.7032 279.572 45.7273 279.624 45.7382Z"
            fill="#263238" />
        <path
            d="M313.753 84.9041C315.347 87.6898 316.679 90.3879 318.063 93.1648C319.447 95.9417 320.691 98.7362 321.874 101.592C323.056 104.448 324.204 107.347 325.202 110.352C326.241 113.348 327.118 116.398 327.83 119.489L328.365 121.88C328.598 123.003 328.698 124.15 328.663 125.296C328.588 127.427 328.116 129.524 327.27 131.481C325.782 134.778 323.667 137.753 321.041 140.241C318.7 142.502 316.148 144.535 313.42 146.312C312.097 147.188 310.731 147.994 309.356 148.765C307.98 149.535 306.614 150.245 305.081 150.919L302.172 145.83C303.232 144.954 304.397 144.078 305.484 143.132C306.57 142.186 307.63 141.222 308.681 140.259C310.711 138.376 312.594 136.34 314.314 134.17C315.843 132.31 317.03 130.192 317.818 127.916C318.089 127.068 318.196 126.176 318.133 125.288C318.107 124.931 318.04 124.578 317.932 124.237L317.336 122.274C315.566 116.831 313.459 111.504 311.029 106.322C309.829 103.694 308.55 101.066 307.271 98.4383C305.992 95.8103 304.643 93.1823 303.337 90.6857L313.753 84.9041Z"
            fill="#FF8B7B" />
        <path
            d="M312.141 78.9736C319.447 80.5504 324.528 99.6122 324.528 99.6122L311.467 111.464C307.314 106.845 304.048 101.499 301.831 95.6964C298.371 86.1568 304.327 77.2742 312.141 78.9736Z"
            fill="#263238" />
        <path
            d="M303.758 144.928L295.357 145.015L300.613 153.486C300.613 153.486 306.596 152.006 307.13 149.001L303.758 144.928Z"
            fill="#FF8B7B" />
        <path d="M290.127 150.017L294.761 156.815L300.569 153.486L295.357 145.015L290.127 150.017Z"
            fill="#FF8B7B" />
        <path
            d="M303.355 57.5116C302.422 59.2288 300.847 60.5073 298.975 61.0681C296.487 61.7952 295.217 59.5789 295.883 57.2225C296.487 55.1026 298.511 52.168 300.998 52.4746C303.486 52.7812 304.467 55.4004 303.355 57.5116Z"
            fill="#FF8B7B" />
        <path
            d="M277.559 98.7634L122.893 109.915C119.674 110.166 116.684 111.676 114.571 114.118C112.459 116.56 111.395 119.737 111.61 122.958L116.866 195.859C117.115 199.083 118.627 202.078 121.073 204.193C123.519 206.308 126.701 207.371 129.927 207.151L138.687 206.52C139.323 206.474 139.952 206.683 140.435 207.1C140.918 207.517 141.215 208.109 141.262 208.745L142.243 222.253C142.259 222.515 142.353 222.766 142.513 222.973C142.673 223.181 142.891 223.337 143.14 223.419C143.388 223.502 143.656 223.509 143.908 223.438C144.161 223.368 144.386 223.224 144.556 223.024L159.22 206.073C159.837 205.363 160.709 204.926 161.647 204.856L284.567 195.999C287.788 195.75 290.78 194.241 292.894 191.799C295.008 189.356 296.074 186.179 295.859 182.956L290.603 110.055C290.354 106.834 288.844 103.842 286.402 101.728C283.96 99.6137 280.782 98.5484 277.559 98.7634Z"
            fill="#1B0A6C" />
        <path opacity="0.2"
            d="M122.893 109.915C119.674 110.166 116.684 111.676 114.571 114.118C112.459 116.56 111.395 119.737 111.61 122.959L116.866 195.859C117.115 199.083 118.627 202.078 121.073 204.193C123.519 206.308 126.701 207.371 129.927 207.151L131.215 207.055C133.354 206.9 135.383 206.043 136.986 204.618C138.589 203.192 139.676 201.277 140.08 199.171L157.696 107.401L122.893 109.915Z"
            fill="black" />
        <path
            d="M166.896 168.432C165.155 168.55 163.768 168.087 162.736 167.042C161.848 166.14 161.353 164.934 161.25 163.422L160.488 152.169L163.976 150.03L164.856 163.005C164.906 163.751 165.096 164.277 165.424 164.581C165.751 164.867 166.278 164.985 167.005 164.935L169.589 164.76L169.824 168.234L166.896 168.432ZM168.093 168.351L167.858 164.878L172.91 164.535L173.145 168.009L168.093 168.351ZM171.429 168.125L171.194 164.652L176.246 164.309L176.481 167.783L171.429 168.125ZM174.765 167.899L174.53 164.426L179.582 164.083L179.817 167.557L174.765 167.899ZM178.101 167.673L177.866 164.2L182.918 163.857L183.153 167.331L178.101 167.673ZM181.437 167.447L181.202 163.973L186.254 163.631L186.489 167.105L181.437 167.447ZM184.773 167.221L184.537 163.747L189.59 163.405L189.825 166.878L184.773 167.221ZM188.109 166.995L187.873 163.521L192.926 163.179L193.161 166.652L188.109 166.995ZM201.429 162.603L204.012 162.428L204.247 165.901L201.319 166.1C199.922 166.194 198.739 165.9 197.77 165.215C196.902 166.024 195.77 166.476 194.373 166.57L191.445 166.769L191.209 163.295L193.793 163.12C194.52 163.071 195.026 162.883 195.312 162.556C195.596 162.21 195.713 161.664 195.662 160.917L195.302 155.607L198.791 153.467L199.279 160.672C199.33 161.419 199.519 161.944 199.847 162.249C200.174 162.534 200.701 162.652 201.429 162.603ZM198.195 168.936C198.769 168.897 199.23 169.029 199.578 169.332C199.945 169.653 200.149 170.101 200.188 170.675C200.275 171.957 199.696 172.64 198.452 172.725C197.878 172.764 197.407 172.622 197.039 172.301C196.671 171.98 196.467 171.523 196.427 170.93C196.39 170.375 196.531 169.913 196.852 169.546C197.174 169.178 197.621 168.974 198.195 168.936ZM202.518 166.018L202.282 162.545L206.56 162.255C209.928 162.027 212.539 160.841 214.393 158.696C212.937 156.507 211.281 155.476 209.425 155.601C207.894 155.705 206.276 156.651 204.571 158.439L204.355 155.253C205.843 153.383 207.601 152.38 209.63 152.242C211.123 152.141 212.614 152.588 214.104 153.583C215.594 154.578 216.953 156.043 218.18 157.978L218.277 159.414C217.018 161.268 215.388 162.743 213.386 163.84C211.403 164.936 209.197 165.566 206.766 165.731L202.518 166.018ZM230.509 160.632L233.092 160.457L233.328 163.931L230.4 164.129C229.749 164.173 229.14 164.128 228.574 163.993C228.45 165.847 227.811 167.352 226.659 168.506C225.614 169.538 224.316 170.107 222.766 170.212C221.561 170.294 220.363 170.067 219.173 169.533L218.959 166.375C219.992 166.863 220.987 167.074 221.944 167.009C222.996 166.938 223.786 166.538 224.314 165.81C224.862 165.1 225.095 164.142 225.013 162.937L224.383 153.636L226.653 152.242L227.843 151.498L227.844 151.527L227.871 151.496L228.359 158.702C228.41 159.448 228.599 159.973 228.928 160.278C229.255 160.563 229.782 160.682 230.509 160.632ZM235.672 155.813C235.555 154.09 236 152.705 237.005 151.656C237.886 150.751 239.063 150.248 240.537 150.148C242.431 150.02 243.952 150.618 245.099 151.944C246.078 153.05 246.629 154.522 246.754 156.359C246.898 158.484 246.447 160.196 245.401 161.498C244.459 162.638 243.204 163.261 241.634 163.368C240.103 163.472 238.827 163.222 237.806 162.618C236.933 163.35 235.845 163.76 234.544 163.848L231.616 164.047L231.381 160.573L233.964 160.398C234.691 160.349 235.198 160.161 235.483 159.834C235.767 159.488 235.884 158.942 235.834 158.195L235.672 155.813ZM239.482 158.409C239.554 159.481 240.155 159.979 241.284 159.902C242.7 159.806 243.334 158.667 243.187 156.486C243.045 154.4 242.238 153.407 240.764 153.507C239.693 153.579 239.2 154.247 239.285 155.51L239.482 158.409Z"
            fill="white" />
        <path
            d="M120.788 86.1656C120.749 87.4479 120.816 88.7313 120.989 90.0024C113.052 92.6532 104.586 93.3239 96.33 91.9559C96.7263 90.4575 96.967 88.9222 97.0483 87.3744C96.7721 88.933 96.2299 90.4324 95.4452 91.807C93.8859 91.5092 93.0099 91.2551 93.0099 91.2551C93.0099 91.2551 94.6042 82.6353 91.731 76.3631C88.8577 70.091 90.2943 66.587 92.4668 65.5971C96.4964 53.2104 111.642 55.1639 116.767 60.1922C123.267 66.5694 123.302 84.5362 124.458 88.6446C123.503 89.0564 122.566 89.433 121.629 89.7659C121.159 88.618 120.876 87.4027 120.788 86.1656Z"
            fill="#263238" />
        <path
            d="M127.051 105.446L127.84 107.943C128.129 108.819 128.418 109.695 128.716 110.527C129.303 112.279 129.916 114.031 130.573 115.713C131.23 117.395 131.861 119.164 132.544 120.881L133.56 123.509L133.814 124.158L133.875 124.307C133.767 124.212 133.643 124.138 133.508 124.088C133.315 124.018 133.236 124.088 133.359 124.088C133.57 124.087 133.779 124.054 133.981 123.991C134.666 123.774 135.324 123.48 135.943 123.115C137.437 122.245 138.865 121.267 140.218 120.189C141.637 119.086 143.03 117.903 144.396 116.685C145.763 115.468 147.138 114.198 148.461 112.954L151.15 115.231C150.029 116.843 148.846 118.315 147.646 119.813C146.446 121.311 145.097 122.712 143.713 124.105C142.288 125.559 140.737 126.884 139.079 128.065C138.13 128.729 137.111 129.288 136.039 129.729C135.359 130.002 134.647 130.184 133.919 130.272C132.932 130.395 131.93 130.259 131.011 129.878C130.009 129.451 129.156 128.738 128.558 127.828C128.427 127.627 128.304 127.425 128.208 127.241L127.971 126.768L127.656 126.129C127.244 125.253 126.78 124.377 126.421 123.553C125.624 121.801 124.826 120.049 124.099 118.297C123.372 116.545 122.663 114.741 121.988 112.936C121.673 112.06 121.357 111.105 121.06 110.185C120.762 109.266 120.473 108.363 120.184 107.286L127.051 105.446Z"
            fill="#FFC3BD" />
        <path
            d="M124.975 97.6675C127.998 98.4383 130.109 110.86 130.109 110.86L121.787 116.519C121.787 116.519 113.815 103.983 116.136 100.663C118.554 97.2119 120.569 96.5462 124.975 97.6675Z"
            fill="#1B0A6C" />
        <path
            d="M124.975 97.6675C127.998 98.4383 130.109 110.86 130.109 110.86L121.787 116.519C121.787 116.519 113.815 103.983 116.136 100.663C118.554 97.2119 120.569 96.5462 124.975 97.6675Z"
            fill="#1B0A6C" />
        <path opacity="0.4"
            d="M124.975 97.6675C127.998 98.4383 130.109 110.86 130.109 110.86L121.787 116.519C121.787 116.519 113.815 103.983 116.136 100.663C118.554 97.2119 120.569 96.5462 124.975 97.6675Z"
            fill="white" />
        <path opacity="0.3" d="M124.704 100.444L127.025 112.962L122.347 116.134L124.704 100.444Z"
            fill="black" />
        <path
            d="M148.321 113.251L151.098 106.559L154.523 113.251C154.523 113.251 152.298 116.58 149.363 115.766L148.321 113.251Z"
            fill="#FFC3BD" />
        <path d="M154.155 105.867L158.552 107.636L154.523 113.252L151.089 106.559L154.155 105.867Z"
            fill="#FFC3BD" />
        <path d="M108.638 306.786H115.97L116.461 289.818H109.128L108.638 306.786Z" fill="#FFC3BD" />
        <path d="M59.4768 284.93L66.2132 287.803L75.0346 273.121L68.2894 270.248L59.4768 284.93Z"
            fill="#FFC3BD" />
        <path
            d="M67.5097 286.804L60.5017 282.495C60.3819 282.418 60.2378 282.387 60.0972 282.41C59.9565 282.433 59.8292 282.506 59.7396 282.617L55.526 287.672C55.4212 287.804 55.3459 287.957 55.3052 288.121C55.2645 288.285 55.2593 288.455 55.29 288.621C55.3207 288.787 55.3866 288.945 55.4832 289.083C55.5798 289.222 55.7049 289.338 55.8501 289.424C58.3205 290.887 59.5819 291.465 62.6654 293.357C64.5663 294.531 67.2119 296.423 69.8311 298.035C72.4503 299.647 74.2111 297.159 73.2387 296.239C68.9901 292.183 69.1128 290.256 68.3156 287.856C68.1831 287.419 67.8968 287.046 67.5097 286.804Z"
            fill="#263238" />
        <path
            d="M116.215 305.936H107.99C107.848 305.935 107.711 305.985 107.603 306.076C107.495 306.168 107.424 306.296 107.403 306.436L106.465 312.953C106.442 313.12 106.456 313.291 106.506 313.452C106.555 313.613 106.639 313.762 106.751 313.888C106.864 314.014 107.002 314.113 107.157 314.18C107.312 314.247 107.479 314.28 107.648 314.276C110.521 314.232 111.905 314.057 115.532 314.057C117.757 314.057 122.365 314.293 125.44 314.293C128.514 314.293 128.672 311.254 127.393 310.973C121.655 309.738 119.395 308.039 117.459 306.418C117.116 306.113 116.674 305.942 116.215 305.936Z"
            fill="#263238" />
        <path opacity="0.2" d="M116.452 289.827L116.207 298.569H108.875L109.129 289.827H116.452Z"
            fill="black" />
        <path opacity="0.2"
            d="M68.2894 270.257L75.0258 273.122L70.4794 280.69L63.7429 277.817L68.2894 270.257Z"
            fill="black" />
        <path
            d="M124.975 97.6675C124.975 97.6675 128.479 98.8939 121.471 141.879H91.6874C92.1867 129.773 92.2042 122.309 86.4314 97.4572C90.5961 96.5965 94.8179 96.0403 99.0633 95.7928C103.563 95.4683 108.08 95.4683 112.58 95.7928C118.397 96.3184 124.975 97.6675 124.975 97.6675Z"
            fill="#1B0A6C" />
        <path opacity="0.4"
            d="M124.975 97.6675C124.975 97.6675 128.479 98.8939 121.471 141.879H91.6874C92.1867 129.773 92.2042 122.309 86.4314 97.4572C90.5961 96.5965 94.8179 96.0403 99.0633 95.7928C103.563 95.4683 108.08 95.4683 112.58 95.7928C118.397 96.3184 124.975 97.6675 124.975 97.6675Z"
            fill="white" />
        <path
            d="M99.0807 95.784C103.581 95.4681 108.097 95.4681 112.597 95.784C113.324 95.8541 114.069 95.933 114.805 96.0206C115.111 96.4809 115.308 97.0055 115.379 97.5538C115.45 98.1021 115.395 98.6595 115.217 99.1829C114.262 101.539 110.837 101.811 108.349 101.811C99.142 101.811 97.5828 96.4323 97.5214 96.2045L97.4338 95.8804L99.0807 95.784Z"
            fill="white" />
        <path
            d="M100.421 80.5767C101.297 84.9567 102.129 92.8933 99.0808 95.7928C99.0808 95.7928 100.272 100.173 108.349 100.173C117.232 100.173 112.597 95.7928 112.597 95.7928C107.744 94.6365 107.876 91.0362 108.717 87.6636L100.421 80.5767Z"
            fill="#FFC3BD" />
        <path
            d="M101.306 77.4844C100.263 80.9271 101.709 89.0739 103.855 92.2275C99.6239 89.801 98.196 82.4075 98.196 82.4075L101.306 77.4844Z"
            fill="#263238" />
        <path opacity="0.2"
            d="M103.802 83.4675L108.717 87.6548C108.501 88.4398 108.36 89.2435 108.296 90.055C106.448 89.7834 103.916 87.7511 103.706 85.8152C103.597 85.0332 103.63 84.238 103.802 83.4675Z"
            fill="black" />
        <path
            d="M96.409 72.8153C98.1085 79.8847 98.6691 82.9156 102.926 85.9553C109.33 90.5193 117.643 86.8927 118.09 79.4554C118.493 72.7628 115.655 62.3296 108.165 60.7178C106.515 60.3534 104.799 60.4168 103.18 60.902C101.561 61.3872 100.093 62.2781 98.9153 63.4901C97.7376 64.7021 96.8891 66.195 96.4504 67.8271C96.0118 69.4591 95.9975 71.1762 96.409 72.8153Z"
            fill="#FFC3BD" />
        <path
            d="M121.48 141.879C121.48 141.879 127.253 198.311 126.736 220.649C126.237 243.881 117.722 296.861 117.722 296.861H107.823C107.823 296.861 109.391 245.221 108.515 222.401C107.56 197.523 99.6589 141.862 99.6589 141.862L121.48 141.879Z"
            fill="#1B0A6C" />
        <path opacity="0.4"
            d="M121.48 141.879C121.48 141.879 127.253 198.311 126.736 220.649C126.237 243.881 117.722 296.861 117.722 296.861H107.823C107.823 296.861 109.391 245.221 108.515 222.401C107.56 197.523 99.6589 141.862 99.6589 141.862L121.48 141.879Z"
            fill="black" />
        <path d="M107 297.229H118.615L119.474 293.524L106.457 293.068L107 297.229Z"
            fill="#1B0A6C" />
        <path opacity="0.2"
            d="M108.647 155.921C115.953 170.621 110.11 197.435 107.525 207.413C106.203 192.433 103.969 174.125 102.226 160.661C103.329 153.092 105.274 149.141 108.647 155.921Z"
            fill="black" />
        <path
            d="M113.622 141.879C113.622 141.879 106.877 200.571 101.788 219.379C95.7519 241.743 72.7744 279.823 72.7744 279.823L63.5852 275.916C63.5852 275.916 77.8027 232.677 82.428 220.894C92.283 195.753 83.8471 158.287 91.7223 141.879H113.622Z"
            fill="#1B0A6C" />
        <path opacity="0.4"
            d="M113.622 141.879C113.622 141.879 106.877 200.571 101.788 219.379C95.7519 241.743 72.7744 279.823 72.7744 279.823L63.5852 275.916C63.5852 275.916 77.8027 232.677 82.428 220.894C92.283 195.753 83.8471 158.287 91.7223 141.879H113.622Z"
            fill="black" />
        <path d="M62.3149 275.942L73.7205 280.795L76.4623 277.729L63.3048 271.413L62.3149 275.942Z"
            fill="#1B0A6C" />
        <path
            d="M107.648 72.9117C107.753 73.4898 108.139 73.9103 108.524 73.8402C108.909 73.7702 109.128 73.2446 109.023 72.6664C108.918 72.0883 108.533 71.6678 108.147 71.7291C107.762 71.7904 107.499 72.3248 107.648 72.9117Z"
            fill="#263238" />
        <path
            d="M114.183 71.7554C114.279 72.3336 114.673 72.754 115.059 72.684C115.444 72.6139 115.672 72.0883 115.567 71.5101C115.462 70.932 115.076 70.5115 114.691 70.5728C114.305 70.6341 114.078 71.1685 114.183 71.7554Z"
            fill="#263238" />
        <path d="M114.525 70.6428L115.847 69.9858C115.847 69.9858 115.322 71.2035 114.525 70.6428Z"
            fill="#263238" />
        <path
            d="M112.615 73.0606C113.367 74.297 114.287 75.4231 115.348 76.4069C115.088 76.6701 114.774 76.8737 114.428 77.0038C114.081 77.1339 113.711 77.1873 113.342 77.1603L112.615 73.0606Z"
            fill="#ED847E" />
        <path
            d="M110.705 79.9022C111.037 79.9016 111.368 79.8723 111.695 79.8146C111.72 79.8136 111.745 79.8072 111.767 79.7959C111.789 79.7847 111.809 79.7687 111.825 79.7492C111.84 79.7297 111.852 79.707 111.858 79.6828C111.864 79.6585 111.865 79.6332 111.861 79.6086C111.856 79.5839 111.846 79.5605 111.832 79.5399C111.818 79.5193 111.8 79.502 111.778 79.4892C111.757 79.4763 111.733 79.4682 111.708 79.4654C111.683 79.4626 111.658 79.4652 111.634 79.4729C110.912 79.6167 110.167 79.5876 109.459 79.3882C108.751 79.1887 108.101 78.8245 107.56 78.3254C107.528 78.2933 107.484 78.2753 107.438 78.2753C107.392 78.2753 107.348 78.2933 107.315 78.3254C107.298 78.341 107.285 78.3599 107.275 78.381C107.266 78.4021 107.261 78.4249 107.261 78.448C107.261 78.4711 107.266 78.4939 107.275 78.515C107.285 78.5361 107.298 78.5551 107.315 78.5706C108.229 79.4378 109.445 79.9153 110.705 79.9022Z"
            fill="#263238" />
        <path
            d="M98.8881 68.6719C99.0797 70.5347 99.3721 72.3858 99.7641 74.217C99.7641 74.217 104.144 68.6719 104.871 65.7022C104.697 66.8714 104.358 68.0099 103.864 69.0836C103.864 69.0836 109.759 67.7959 110.337 63.9064C110.327 65.6477 110.134 67.383 109.759 69.0836C109.759 69.0836 115.383 66.8761 114.866 63.1443C114.349 59.4126 105.712 57.9671 101.726 59.2286C97.7405 60.49 93.8423 64.581 95.0162 70.2049C96.19 75.8288 98.4413 77.94 98.4413 77.94C98.4413 77.94 96.8207 72.2722 98.8881 68.6719Z"
            fill="#263238" />
        <path
            d="M96.1022 78.1414C96.6429 79.439 97.6763 80.4692 98.9755 81.0059C100.728 81.7067 101.77 80.2088 101.463 78.4743C101.192 76.9063 99.9566 74.6637 98.1433 74.6987C97.7465 74.7163 97.3604 74.8324 97.0197 75.0366C96.679 75.2408 96.3946 75.5266 96.192 75.8683C95.9895 76.2099 95.8752 76.5966 95.8595 76.9935C95.8439 77.3903 95.9273 77.7849 96.1022 78.1414Z"
            fill="#FFC3BD" />
        <path
            d="M99.9479 65.9738C99.0719 69.4778 100.894 77.537 103.189 80.5767C98.8091 78.3604 97.0571 71.0371 97.0571 71.0371L99.9479 65.9738Z"
            fill="#263238" />
        <path
            d="M105.248 70.9144C105.293 70.9008 105.335 70.8783 105.371 70.8482C105.407 70.8181 105.437 70.781 105.458 70.7392C105.643 70.344 105.918 69.9983 106.263 69.7303C106.607 69.4623 107.009 69.2797 107.438 69.1974C107.528 69.1844 107.611 69.1372 107.668 69.0655C107.725 68.9939 107.752 68.9032 107.744 68.812C107.74 68.7662 107.727 68.7218 107.705 68.6813C107.683 68.6409 107.653 68.6053 107.617 68.5767C107.581 68.548 107.54 68.527 107.495 68.5147C107.451 68.5025 107.405 68.4993 107.359 68.5054C106.816 68.5997 106.303 68.8232 105.864 69.157C105.425 69.4909 105.072 69.9254 104.836 70.4238C104.806 70.4847 104.795 70.553 104.803 70.6203C104.811 70.6875 104.839 70.751 104.883 70.8029C104.926 70.8548 104.984 70.893 105.049 70.9128C105.113 70.9326 105.183 70.9331 105.248 70.9144Z"
            fill="#263238" />
        <path
            d="M116.574 68.1988C116.618 68.2007 116.662 68.1931 116.703 68.1764C116.744 68.1598 116.781 68.1346 116.811 68.1024C116.875 68.0369 116.911 67.9489 116.911 67.8572C116.911 67.7654 116.875 67.6774 116.811 67.6119C116.437 67.2076 115.974 66.897 115.458 66.7052C114.942 66.5135 114.388 66.4459 113.841 66.5081C113.796 66.5165 113.752 66.5339 113.713 66.5592C113.675 66.5845 113.641 66.6172 113.615 66.6555C113.589 66.6938 113.571 66.7369 113.562 66.7822C113.552 66.8276 113.552 66.8744 113.561 66.9198C113.58 67.0084 113.633 67.0862 113.708 67.1368C113.783 67.1874 113.875 67.207 113.964 67.1914C114.395 67.1432 114.832 67.1974 115.238 67.3496C115.645 67.5018 116.009 67.7478 116.303 68.0674C116.335 68.1082 116.377 68.1411 116.424 68.1638C116.471 68.1866 116.522 68.1985 116.574 68.1988Z"
            fill="#263238" />
        <path
            d="M90.0668 107.855C88.8491 111.701 87.684 115.739 86.6942 119.716C85.6978 123.642 84.969 127.632 84.5129 131.656L84.4428 132.392C84.4428 132.629 84.4428 132.681 84.4428 132.891C84.4525 133.305 84.4847 133.717 84.5392 134.127C84.6508 135.086 84.8116 136.039 85.021 136.982C85.4327 138.936 85.897 140.951 86.4927 142.948C87.0884 144.945 87.5964 146.978 88.1921 148.992L89.9441 155.037L86.6942 156.377C84.6969 152.558 82.9624 148.668 81.3418 144.656C80.5622 142.641 79.8 140.609 79.1693 138.463C78.854 137.394 78.5561 136.299 78.2933 135.108C78.1685 134.477 78.0808 133.839 78.0305 133.198C78.0305 132.874 78.0305 132.392 78.0305 132.103V131.227C78.1048 128.995 78.3095 126.769 78.6437 124.561C78.9328 122.371 79.362 120.233 79.8263 118.105C80.7378 113.841 81.908 109.637 83.3303 105.516L90.0668 107.855Z"
            fill="#FFC3BD" />
        <path
            d="M86.4487 97.4572C83.4703 98.3332 79.8875 108.626 79.8875 108.626L91.4506 116.896C91.4506 116.896 95.673 108.328 94.4203 104.474C93.115 100.462 89.8563 96.4235 86.4487 97.4572Z"
            fill="#1B0A6C" />
        <path opacity="0.4"
            d="M86.4487 97.4572C83.4703 98.3332 79.8875 108.626 79.8875 108.626L91.4506 116.896C91.4506 116.896 95.673 108.328 94.4203 104.474C93.115 100.462 89.8563 96.4235 86.4487 97.4572Z"
            fill="white" />
        <path
            d="M70.4706 289.59C70.613 289.54 70.7426 289.459 70.8502 289.353C70.9577 289.247 71.0404 289.119 71.0926 288.977C71.1432 288.886 71.1697 288.783 71.1697 288.679C71.1697 288.575 71.1432 288.472 71.0926 288.381C70.567 287.61 67.9127 287.672 67.5886 287.681C67.555 287.681 67.5222 287.691 67.4943 287.71C67.4663 287.729 67.4443 287.755 67.4309 287.786C67.4138 287.813 67.4048 287.845 67.4048 287.878C67.4048 287.91 67.4138 287.942 67.4309 287.97C68.1229 288.662 69.4194 289.792 70.3304 289.617L70.4706 289.59ZM68.009 287.996C69.069 287.996 70.4881 288.145 70.7684 288.557C70.7924 288.596 70.8051 288.642 70.8051 288.688C70.8051 288.734 70.7924 288.78 70.7684 288.819C70.7297 288.925 70.6654 289.02 70.5814 289.094C70.4973 289.169 70.3961 289.222 70.2866 289.249C69.8048 289.371 68.9639 288.872 68.009 287.996Z"
            fill="#1B0A6C" />
        <path
            d="M68.7885 287.812C69.5944 287.558 70.4529 287.111 70.6369 286.612C70.6826 286.482 70.6832 286.34 70.6387 286.21C70.5943 286.08 70.5072 285.968 70.3916 285.894C70.2896 285.808 70.1695 285.748 70.0405 285.716C69.9115 285.684 69.7769 285.682 69.647 285.71C68.6046 285.894 67.4833 287.681 67.4395 287.759C67.4241 287.786 67.416 287.816 67.416 287.847C67.416 287.878 67.4241 287.908 67.4395 287.935C67.4552 287.96 67.4771 287.982 67.503 287.997C67.529 288.012 67.5583 288.021 67.5884 288.022C67.9965 288.011 68.4008 287.94 68.7885 287.812ZM69.5944 286.06H69.7083C69.7907 286.043 69.8758 286.044 69.9576 286.064C70.0394 286.084 70.1158 286.121 70.1814 286.174C70.3566 286.314 70.339 286.419 70.3128 286.498C70.1376 286.98 68.8061 287.558 67.9213 287.672C68.3238 286.998 68.9022 286.447 69.5944 286.078V286.06Z"
            fill="#1B0A6C" />
        <path
            d="M118.966 307.215C119.583 307.266 120.2 307.109 120.718 306.769C120.838 306.66 120.93 306.523 120.985 306.37C121.04 306.217 121.057 306.053 121.033 305.893C121.026 305.798 120.996 305.706 120.943 305.626C120.891 305.547 120.82 305.482 120.736 305.437C119.86 304.947 116.925 306.436 116.592 306.602C116.56 306.615 116.532 306.638 116.513 306.667C116.494 306.696 116.483 306.73 116.483 306.764C116.483 306.799 116.494 306.833 116.513 306.862C116.532 306.891 116.56 306.913 116.592 306.926C117.372 307.103 118.167 307.199 118.966 307.215ZM120.271 305.7C120.383 305.693 120.494 305.714 120.595 305.761C120.63 305.78 120.659 305.808 120.679 305.842C120.699 305.876 120.709 305.915 120.709 305.954C120.726 306.055 120.717 306.158 120.683 306.254C120.649 306.351 120.592 306.437 120.517 306.506C120.07 306.909 118.861 306.979 117.24 306.707C118.186 306.202 119.211 305.862 120.271 305.7Z"
            fill="#1B0A6C" />
        <path
            d="M116.697 306.961H116.767C117.643 306.567 119.395 304.99 119.237 304.158C119.237 303.957 119.062 303.72 118.58 303.668C118.408 303.648 118.233 303.665 118.068 303.716C117.902 303.767 117.748 303.852 117.617 303.965C116.741 304.736 116.531 306.707 116.522 306.786C116.521 306.817 116.527 306.848 116.541 306.875C116.555 306.903 116.575 306.926 116.601 306.944C116.629 306.962 116.664 306.968 116.697 306.961ZM118.449 303.992H118.554C118.87 303.992 118.896 304.158 118.896 304.193C118.983 304.693 117.81 305.945 116.916 306.48C116.986 305.647 117.314 304.857 117.853 304.219C118.014 304.073 118.223 303.992 118.44 303.992H118.449Z"
            fill="#1B0A6C" />
        <path
            d="M91.2755 140.136L90.5221 142.764C90.417 142.965 90.6623 143.176 91.0039 143.176H121.664C121.936 143.176 122.155 143.044 122.172 142.878L122.444 140.25C122.444 140.066 122.225 139.908 121.936 139.908H91.7661C91.6716 139.901 91.5769 139.918 91.491 139.958C91.4051 139.998 91.3309 140.059 91.2755 140.136Z"
            fill="#263238" />
        <path
            d="M95.3228 143.5H94.5081C94.3504 143.5 94.2278 143.421 94.2365 143.316L94.6132 139.812C94.6132 139.715 94.7709 139.628 94.9286 139.628H95.7345C95.9009 139.628 96.0148 139.715 96.006 139.812L95.6294 143.316C95.6294 143.456 95.4892 143.5 95.3228 143.5Z"
            fill="#1B0A6C" />
        <path opacity="0.4"
            d="M95.3228 143.5H94.5081C94.3504 143.5 94.2278 143.421 94.2365 143.316L94.6132 139.812C94.6132 139.715 94.7709 139.628 94.9286 139.628H95.7345C95.9009 139.628 96.0148 139.715 96.006 139.812L95.6294 143.316C95.6294 143.456 95.4892 143.5 95.3228 143.5Z"
            fill="black" />
        <path
            d="M119.351 143.5H118.545C118.388 143.5 118.265 143.421 118.274 143.316L118.659 139.812C118.659 139.715 118.808 139.628 118.966 139.628H119.772C119.938 139.628 120.061 139.715 120.043 139.812L119.667 143.316C119.658 143.456 119.518 143.5 119.351 143.5Z"
            fill="#1B0A6C" />
        <path opacity="0.4"
            d="M119.351 143.5H118.545C118.388 143.5 118.265 143.421 118.274 143.316L118.659 139.812C118.659 139.715 118.808 139.628 118.966 139.628H119.772C119.938 139.628 120.061 139.715 120.043 139.812L119.667 143.316C119.658 143.456 119.518 143.5 119.351 143.5Z"
            fill="black" />
        <path
            d="M107.341 143.5H106.535C106.369 143.5 106.246 143.421 106.264 143.316L106.641 139.812C106.641 139.715 106.789 139.628 106.956 139.628H107.762C107.92 139.628 108.042 139.715 108.033 139.812L107.657 143.316C107.648 143.456 107.499 143.5 107.341 143.5Z"
            fill="#1B0A6C" />
        <path opacity="0.4"
            d="M107.341 143.5H106.535C106.369 143.5 106.246 143.421 106.264 143.316L106.641 139.812C106.641 139.715 106.789 139.628 106.956 139.628H107.762C107.92 139.628 108.042 139.715 108.033 139.812L107.657 143.316C107.648 143.456 107.499 143.5 107.341 143.5Z"
            fill="black" />
        <path d="M107.946 71.7904L109.269 71.1422C109.269 71.1422 108.743 72.3598 107.946 71.7904Z"
            fill="#263238" />
        <path
            d="M89.6987 154.047L95.9796 158.865L88.7001 160.468C88.7001 160.468 85.6078 156.964 86.6765 154.073L89.6987 154.047Z"
            fill="#FFC3BD" />
        <path d="M97.5214 164.83L91.3543 165.838L87.9905 159.513L95.9796 158.865L97.5214 164.83Z"
            fill="#FFC3BD" />
    </g>
    <defs>
        <clipPath id="clip0_15_14756">
            <rect width="393" height="334" fill="white" />
        </clipPath>
    </defs>
</svg>
