<svg width="14" height="14" viewBox="0 0 14 14" fill="none" xmlns="http://www.w3.org/2000/svg">
    <path
        d="M12.832 6.16744H7.83203V1.16744C7.83203 0.946426 7.74423 0.734465 7.58795 0.578184C7.43167 0.421904 7.21971 0.334106 6.9987 0.334106C6.77768 0.334106 6.56572 0.421904 6.40944 0.578184C6.25316 0.734465 6.16536 0.946426 6.16536 1.16744V6.16744H1.16536C0.944351 6.16744 0.732389 6.25524 0.576109 6.41152C0.419829 6.5678 0.332031 6.77976 0.332031 7.00077C0.332031 7.22179 0.419829 7.43375 0.576109 7.59003C0.732389 7.74631 0.944351 7.83411 1.16536 7.83411H6.16536V12.8341C6.16536 13.0551 6.25316 13.2671 6.40944 13.4234C6.56572 13.5796 6.77768 13.6674 6.9987 13.6674C7.21971 13.6674 7.43167 13.5796 7.58795 13.4234C7.74423 13.2671 7.83203 13.0551 7.83203 12.8341V7.83411H12.832C13.053 7.83411 13.265 7.74631 13.4213 7.59003C13.5776 7.43375 13.6654 7.22179 13.6654 7.00077C13.6654 6.77976 13.5776 6.5678 13.4213 6.41152C13.265 6.25524 13.053 6.16744 12.832 6.16744Z"
        fill="#121212" />
</svg>
