<svg width="20" height="18" viewBox="0 0 20 18" fill="none" xmlns="http://www.w3.org/2000/svg">
    <path
        d="M15.412 3.26794L14.217 1.47498C13.706 0.707976 12.85 0.25 11.929 0.25H8.07001C7.14901 0.25 6.29298 0.707976 5.78198 1.47498L4.58701 3.26794C2.16001 3.47794 0.25 5.52 0.25 8V13C0.25 15.619 2.381 17.75 5 17.75H15C17.619 17.75 19.75 15.619 19.75 13V8C19.749 5.521 17.839 3.47894 15.412 3.26794ZM18.249 13.001C18.249 14.793 16.791 16.251 14.999 16.251H4.99899C3.20699 16.251 1.74899 14.793 1.74899 13.001V8.00098C1.74899 6.20898 3.20699 4.75098 4.99899 4.75098C5.24999 4.75098 5.48399 4.62599 5.62299 4.41699L7.02899 2.30798C7.26099 1.95898 7.65 1.75098 8.069 1.75098H11.928C12.347 1.75098 12.736 1.95898 12.968 2.30798L14.374 4.41699C14.513 4.62499 14.747 4.75098 14.998 4.75098C16.79 4.75098 18.248 6.20898 18.248 8.00098V13.001H18.249ZM9.99899 6.25098C7.93099 6.25098 6.24899 7.93298 6.24899 10.001C6.24899 12.069 7.93099 13.751 9.99899 13.751C12.067 13.751 13.749 12.069 13.749 10.001C13.749 7.93298 12.067 6.25098 9.99899 6.25098ZM9.99899 12.251C8.75799 12.251 7.74899 11.242 7.74899 10.001C7.74899 8.75998 8.75799 7.75098 9.99899 7.75098C11.24 7.75098 12.249 8.75998 12.249 10.001C12.249 11.242 11.24 12.251 9.99899 12.251ZM16.999 7.00098C16.999 7.55298 16.551 8.00098 15.999 8.00098C15.447 8.00098 14.999 7.55298 14.999 7.00098C14.999 6.44898 15.447 6.00098 15.999 6.00098C16.551 6.00098 16.999 6.44898 16.999 7.00098Z"
        fill="#0B042C" />
</svg>
