<svg width="31" height="30" viewBox="0 0 31 30" fill="none" xmlns="http://www.w3.org/2000/svg">
    <g clip-path="url(#clip0_63_4628)">
        <path
            d="M22.8713 19.5935H13.907C13.0913 19.5877 12.3011 19.3077 11.6637 18.7986C11.0263 18.2894 10.5786 17.5807 10.3927 16.7864L8.96418 10.9792C8.83274 10.44 8.82601 9.87792 8.94448 9.33572C9.06295 8.79351 9.3035 8.28546 9.64785 7.85021C9.9922 7.41495 10.4313 7.06395 10.9317 6.82391C11.4321 6.58386 11.9806 6.46109 12.5356 6.46493H24.3213C24.8763 6.46109 25.4249 6.58386 25.9253 6.82391C26.4257 7.06395 26.8647 7.41495 27.2091 7.85021C27.5534 8.28546 27.794 8.79351 27.9124 9.33572C28.0309 9.87792 28.0242 10.44 27.8927 10.9792L26.4642 16.8006C26.2713 17.6049 25.8105 18.3195 25.1575 18.8271C24.5045 19.3347 23.6983 19.605 22.8713 19.5935ZM12.4927 8.25065C12.2104 8.25151 11.9319 8.31624 11.6782 8.43999C11.4244 8.56375 11.2019 8.74332 11.0274 8.96525C10.8529 9.18719 10.7308 9.44573 10.6704 9.72153C10.61 9.99732 10.6127 10.2832 10.6785 10.5578L12.107 16.3792C12.2038 16.7872 12.4357 17.1504 12.7651 17.4098C13.0946 17.6691 13.502 17.8094 13.9213 17.8078H22.8713C23.2906 17.8094 23.6981 17.6691 24.0275 17.4098C24.3569 17.1504 24.5889 16.7872 24.6856 16.3792L26.1142 10.5578C26.1814 10.2831 26.1852 9.99672 26.1253 9.72034C26.0654 9.44396 25.9435 9.18482 25.7687 8.96253C25.5939 8.74024 25.3708 8.56063 25.1163 8.4373C24.8619 8.31396 24.5827 8.25013 24.2999 8.25065H12.4927Z"
            fill="black" />
        <path
            d="M10.0073 12.4997C9.80332 12.4973 9.60631 12.4251 9.44907 12.2951C9.29182 12.1652 9.18381 11.9853 9.14302 11.7854L7.86445 6.23539C7.74639 5.72981 7.46023 5.27926 7.0528 4.95747C6.64536 4.63567 6.14078 4.46168 5.6216 4.46396H4.45731C4.22051 4.46396 3.99341 4.36989 3.82596 4.20245C3.65852 4.03501 3.56445 3.80791 3.56445 3.5711C3.56445 3.3343 3.65852 3.1072 3.82596 2.93976C3.99341 2.77232 4.22051 2.67825 4.45731 2.67825H5.6216C6.54431 2.67502 7.44085 2.98478 8.16478 3.55692C8.88871 4.12905 9.39724 4.92976 9.60731 5.82825L10.8787 11.3782C10.9063 11.4923 10.9109 11.6106 10.8923 11.7264C10.8737 11.8422 10.8323 11.9531 10.7705 12.0528C10.7087 12.1525 10.6278 12.2389 10.5323 12.307C10.4368 12.3751 10.3288 12.4236 10.2145 12.4497C10.1473 12.4735 10.0779 12.4903 10.0073 12.4997ZM14.043 27.3211C13.4779 27.3211 12.9255 27.1535 12.4557 26.8396C11.9858 26.5256 11.6196 26.0794 11.4034 25.5573C11.1871 25.0353 11.1305 24.4608 11.2408 23.9066C11.351 23.3523 11.6231 22.8432 12.0227 22.4437C12.4223 22.0441 12.9314 21.772 13.4856 21.6617C14.0399 21.5515 14.6143 21.6081 15.1364 21.8243C15.6585 22.0406 16.1047 22.4068 16.4187 22.8766C16.7326 23.3465 16.9002 23.8989 16.9002 24.464C16.9002 25.2217 16.5991 25.9485 16.0633 26.4843C15.5275 27.0201 14.8008 27.3211 14.043 27.3211ZM14.043 23.364C13.8283 23.364 13.6184 23.4276 13.4398 23.5469C13.2613 23.6662 13.1221 23.8358 13.04 24.0342C12.9578 24.2326 12.9363 24.4509 12.9782 24.6615C13.0201 24.8721 13.1235 25.0656 13.2753 25.2174C13.4271 25.3692 13.6206 25.4726 13.8312 25.5145C14.0418 25.5564 14.2601 25.5349 14.4585 25.4527C14.6569 25.3706 14.8265 25.2314 14.9458 25.0529C15.0651 24.8743 15.1287 24.6644 15.1287 24.4497C15.1287 24.1617 15.0144 23.8856 14.8107 23.682C14.6071 23.4784 14.331 23.364 14.043 23.364ZM23.9145 27.3211C23.3494 27.3211 22.797 27.1535 22.3271 26.8396C21.8573 26.5256 21.491 26.0794 21.2748 25.5573C21.0585 25.0353 21.002 24.4608 21.1122 23.9066C21.2225 23.3523 21.4946 22.8432 21.8941 22.4437C22.2937 22.0441 22.8028 21.772 23.3571 21.6617C23.9113 21.5515 24.4858 21.6081 25.0078 21.8243C25.5299 22.0406 25.9761 22.4068 26.2901 22.8766C26.604 23.3465 26.7716 23.8989 26.7716 24.464C26.7716 25.2217 26.4706 25.9485 25.9348 26.4843C25.3989 27.0201 24.6722 27.3211 23.9145 27.3211ZM23.9145 23.364C23.7 23.3654 23.4908 23.4302 23.3132 23.5504C23.1356 23.6706 22.9976 23.8406 22.9165 24.0391C22.8354 24.2376 22.8149 24.4557 22.8576 24.6658C22.9003 24.876 23.0043 25.0688 23.1564 25.2199C23.3085 25.371 23.502 25.4737 23.7124 25.515C23.9228 25.5563 24.1407 25.5344 24.3387 25.452C24.5367 25.3697 24.7058 25.2305 24.8248 25.0521C24.9438 24.8737 25.0073 24.6641 25.0073 24.4497C25.0073 24.3065 24.979 24.1647 24.924 24.0325C24.869 23.9003 24.7884 23.7803 24.6868 23.6794C24.5852 23.5785 24.4647 23.4987 24.3321 23.4445C24.1996 23.3904 24.0576 23.363 23.9145 23.364Z"
            fill="black" />
        <path
            d="M23.9144 23.3648H12.0144C11.2775 23.3648 10.5707 23.072 10.0497 22.5509C9.52858 22.0299 9.23584 21.3231 9.23584 20.5862C9.23584 19.8493 9.52858 19.1425 10.0497 18.6214C10.5707 18.1004 11.2775 17.8076 12.0144 17.8076H13.9073C14.1441 17.8076 14.3712 17.9017 14.5386 18.0691C14.7061 18.2366 14.8001 18.4637 14.8001 18.7005C14.8001 18.9373 14.7061 19.1644 14.5386 19.3318C14.3712 19.4993 14.1441 19.5933 13.9073 19.5933H12.0144C11.7511 19.5933 11.4986 19.6979 11.3124 19.8841C11.1262 20.0703 11.0216 20.3229 11.0216 20.5862C11.0216 20.8495 11.1262 21.102 11.3124 21.2882C11.4986 21.4744 11.7511 21.579 12.0144 21.579H23.9144C24.1512 21.579 24.3783 21.6731 24.5458 21.8406C24.7132 22.008 24.8073 22.2351 24.8073 22.4719C24.8073 22.7087 24.7132 22.9358 24.5458 23.1032C24.3783 23.2707 24.1512 23.3648 23.9144 23.3648Z"
            fill="black" />
    </g>
    <defs>
        <clipPath id="clip0_63_4628">
            <rect width="25" height="25" fill="white" transform="translate(3.25 2.5)" />
        </clipPath>
    </defs>
</svg>
