<svg width="15" height="16" viewBox="0 0 15 16" fill="none" xmlns="http://www.w3.org/2000/svg">
    <path
        d="M10.0323 2.55957H4.15037C2.60989 2.55957 1.35645 3.81301 1.35645 5.35349V13C1.35645 13.1782 1.46409 13.3394 1.62879 13.4076C1.68349 13.4306 1.74054 13.4412 1.79759 13.4412C1.91229 13.4412 2.02522 13.3965 2.10933 13.3118L3.52924 11.8918C3.66805 11.753 3.85274 11.6766 4.0492 11.6766H10.0323C11.5728 11.6766 12.8262 10.4231 12.8262 8.88266V5.35349C12.8262 3.81301 11.5728 2.55957 10.0323 2.55957ZM11.9439 8.88266C11.9439 9.93671 11.0864 10.7943 10.0323 10.7943H4.04979C3.61747 10.7943 3.21161 10.9625 2.90575 11.2684L2.23874 11.9354V5.35349C2.23874 4.29945 3.09632 3.44186 4.15037 3.44186H10.0323C11.0864 3.44186 11.9439 4.29945 11.9439 5.35349V8.88266ZM5.32676 7.11808C5.32676 7.44276 5.06325 7.70627 4.73856 7.70627C4.41388 7.70627 4.15037 7.44276 4.15037 7.11808C4.15037 6.79339 4.41388 6.52988 4.73856 6.52988C5.06325 6.52988 5.32676 6.79339 5.32676 7.11808ZM7.67954 7.11808C7.67954 7.44276 7.41603 7.70627 7.09134 7.70627C6.76666 7.70627 6.50315 7.44276 6.50315 7.11808C6.50315 6.79339 6.76666 6.52988 7.09134 6.52988C7.41603 6.52988 7.67954 6.79339 7.67954 7.11808ZM10.0323 7.11808C10.0323 7.44276 9.7688 7.70627 9.44412 7.70627C9.11944 7.70627 8.85593 7.44276 8.85593 7.11808C8.85593 6.79339 9.11944 6.52988 9.44412 6.52988C9.7688 6.52988 10.0323 6.79339 10.0323 7.11808Z"
        fill="#474068" />
</svg>
