<svg width="70" height="70" viewBox="0 0 70 70" fill="none" xmlns="http://www.w3.org/2000/svg">
    <path
        d="M55.2876 47.1353L54.3669 47.8677L5.97064 69.3855C3.24021 70.2135 -0.400359 66.3707 0.298122 63.6955L22.2791 14.0254V16.7005C23.0093 26.1377 44.0696 47.2096 53.6473 47.4219C54.2293 47.4325 54.7267 47.1247 55.2982 47.1459L55.2876 47.1353ZM13.8233 42.3477C10.4578 43.0271 11.1457 48.3985 14.7546 48.1438C18.7655 47.8571 18.1306 41.4772 13.8233 42.3477Z"
        fill="#0A4438" />
    <path
        d="M34.5872 9.93838L34.2062 10.5753C35.4339 11.7112 37.0425 11.3821 38.5982 12.0403C43.5934 14.1315 42.4716 20.2142 37.36 20.883C36.4922 20.9998 33.4866 20.5964 33.1903 21.2864C32.7881 22.2312 35.0846 22.3586 35.6561 22.6346C37.5505 23.5475 37.1801 26.2757 34.5872 26.2757C30.6398 26.2757 27.0944 21.7959 30.3858 18.4733C32.513 16.3289 35.0106 17.1251 37.5928 16.8173C38.0056 14.9914 34.6613 15.3629 33.1797 14.6623C28.4279 12.4118 29.8566 6.31847 35.3386 5.87262C35.9842 5.81954 38.831 6.30786 39.0215 5.47984C39.3496 4.06797 34.7354 5.02337 35.3069 2.0404C35.8572 -0.772717 40.1857 0.883308 41.5615 2.16779C43.6887 4.16351 43.4664 7.41187 40.9688 8.97236C40.5984 9.2059 38.9475 9.93838 38.63 9.93838H34.5661H34.5872Z"
        fill="#0A4438" />
    <path
        d="M60.3993 53.7912L60.4734 54.5343C60.9814 55.2031 63.1615 54.322 64.0293 54.2583C70.2415 53.8337 72.0089 60.2243 66.6751 63.0268C65.5109 63.6425 64.061 63.8017 63.1615 64.842C63.1721 66.1477 67.7439 64.0459 67.9662 66.6467C68.1673 68.8759 66.1565 69.343 64.2939 69.3218C58.706 69.2369 57.5313 63.0055 62.3783 60.5003C62.7593 60.2986 66.5586 59.1839 65.9448 58.3453C64.7278 57.7509 63.6695 58.4621 62.4842 58.5682C55.8698 59.1733 54.0389 52.6554 59.5844 49.7998C59.9019 49.6406 64.0399 48.4198 62.7276 47.6448C61.8068 47.2308 60.939 47.8253 60.0606 47.7616C57.4361 47.5599 57.2032 43.9931 61.0131 43.6003C64.4738 43.2394 67.8815 45.7022 66.5692 49.4283C65.6273 52.0821 62.6429 52.7509 60.3781 53.7912H60.3993Z"
        fill="#0A4438" />
    <path
        d="M9.63254 30.0018C9.39972 29.747 9.16689 28.8872 9.18806 28.505C9.26214 26.9658 10.4051 23.9934 10.7543 22.2206C11.5057 18.4839 13.2202 9.48195 11.3047 6.28667C10.7543 5.36312 9.57963 4.92788 8.65891 5.58604C7.00795 6.77499 8.87056 10.9894 6.07664 11.4246C2.39374 11.9978 4.01295 5.15081 5.39932 3.33555C7.01853 1.21244 10.003 0.787814 12.3418 1.93429C17.7286 4.57757 15.9295 15.8937 15.0828 20.6814C14.7971 22.3055 13.3578 29.418 12.363 30.1823C11.6433 30.7343 10.2252 30.6281 9.63254 29.9912V30.0018Z"
        fill="#0A4438" />
    <path
        d="M61.8386 28.6111C63.3732 28.5262 67.7863 28.4838 68.9822 29.195C70.8342 30.299 69.977 32.8467 67.871 32.8786C65.7649 32.9104 63.3097 32.4434 60.992 32.6026C55.3301 32.9954 49.8163 35.5537 45.1386 38.6322C43.4982 38.9825 42.5457 37.6344 42.8526 36.0633C43.0325 35.1609 45.382 33.834 46.2286 33.3351C50.7582 30.6812 56.5894 28.9084 61.8386 28.6111Z"
        fill="#0A4438" />
    <path
        d="M2.89111 30.6387C8.48954 29.471 9.55843 38.1014 4.04466 38.4199C-0.760045 38.6959 -1.45853 31.5516 2.89111 30.6387Z"
        fill="#0A4438" />
    <path
        d="M53.4464 3.37799C59.7222 2.22089 59.9656 11.8386 53.6581 10.9363C49.4037 10.3312 49.7 4.068 53.4464 3.37799Z"
        fill="#0A4438" />
    <path
        d="M48.61 15.0869C53.2348 14.0148 53.7427 20.469 49.7635 20.8406C46.197 21.1697 45.5832 15.7876 48.61 15.0869Z"
        fill="#0A4438" />
    <path
        d="M47.8372 62.8463C45.2973 65.5533 41.117 61.8272 43.35 58.9823C45.8688 55.7657 50.5148 60.0013 47.8372 62.8463Z"
        fill="#0A4438" />
    <path
        d="M55.1078 21.7323C57.4043 19.1315 62.0714 22.3798 59.6056 25.607C57.1397 28.8341 52.5573 24.6197 55.1078 21.7323Z"
        fill="#0A4438" />
    <path
        d="M65.3734 39.4178C63.0134 42.1035 58.5156 38.5579 60.8756 35.5431C63.2356 32.5283 67.9768 36.456 65.3734 39.4178Z"
        fill="#0A4438" />
    <path
        d="M62.59 13.0488C66.7174 12.3694 67.2254 18.4839 63.5108 18.8449C59.7961 19.2058 59.1717 13.6114 62.59 13.0488Z"
        fill="#0A4438" />
    <path
        d="M13.8233 42.3477C18.12 41.4772 18.7655 47.8571 14.7546 48.1438C11.1563 48.3985 10.4578 43.0377 13.8233 42.3477Z"
        fill="#0A4438" />
</svg>
