<svg width="24" height="24" viewBox="0 0 24 24" fill="none" xmlns="http://www.w3.org/2000/svg">
    <g clip-path="url(#clip0_1124_46325)">
        <path
            d="M24.0672 16.35C23.7225 15.7284 23.2183 15.2099 22.6067 14.8478C21.995 14.4858 21.298 14.2932 20.5872 14.29C20.7685 13.9407 20.8645 13.5535 20.8672 13.16V9C20.8672 8.86739 20.8145 8.74021 20.7207 8.64645C20.627 8.55268 20.4998 8.5 20.3672 8.5H19.8672V7.5H20.3672C20.4998 7.5 20.627 7.44732 20.7207 7.35355C20.8145 7.25979 20.8672 7.13261 20.8672 7V5C20.8672 4.86739 20.8145 4.74021 20.7207 4.64645C20.627 4.55268 20.4998 4.5 20.3672 4.5H19.3672C19.0646 4.50897 18.7718 4.60929 18.5273 4.78777C18.2828 4.96625 18.098 5.21454 17.9972 5.5H15.3672C15.2346 5.5 15.1074 5.55268 15.0136 5.64645C14.9199 5.74021 14.8672 5.86739 14.8672 6C14.8672 6.13261 14.9199 6.25979 15.0136 6.35355C15.1074 6.44732 15.2346 6.5 15.3672 6.5H17.9972C18.0718 6.7097 18.1922 6.90015 18.3496 7.05755C18.507 7.21495 18.6975 7.33534 18.9072 7.41V8.5H18.4072C18.2746 8.5 18.1474 8.55268 18.0536 8.64645C17.9599 8.74021 17.9072 8.86739 17.9072 9V9.5H16.4072C16.0094 9.5 15.6278 9.65804 15.3465 9.93934C15.0652 10.2206 14.9072 10.6022 14.9072 11V13C14.9091 13.3636 15.043 13.714 15.284 13.9863C15.5249 14.2585 15.8566 14.434 16.2172 14.48L15.6472 15.05C15.5068 15.1905 15.34 15.3018 15.1563 15.3773C14.9726 15.4528 14.7758 15.4911 14.5772 15.49H12.5772C12.2037 15.4905 11.8341 15.4154 11.4904 15.2693C11.1467 15.1232 10.836 14.9092 10.5772 14.64C10.3487 14.4125 10.1689 14.141 10.0486 13.8419C9.92824 13.5428 9.86993 13.2223 9.87719 12.9C9.97355 12.2146 10.2343 11.5628 10.6372 11C11.035 10.9642 11.4023 10.7718 11.6583 10.4652C11.9143 10.1586 12.038 9.76282 12.0022 9.365C11.9664 8.96718 11.774 8.59987 11.4674 8.34388C11.1608 8.08789 10.765 7.9642 10.3672 8H8.86719V2.5C8.86719 2.36739 8.81451 2.24021 8.72074 2.14645C8.62697 2.05268 8.4998 2 8.36719 2H2.36719C2.23458 2 2.1074 2.05268 2.01363 2.14645C1.91987 2.24021 1.86719 2.36739 1.86719 2.5V8.5C1.86719 8.63261 1.91987 8.75979 2.01363 8.85355C2.1074 8.94732 2.23458 9 2.36719 9H3.99719C3.93859 9.16023 3.90814 9.32939 3.90719 9.5C3.90819 9.74836 3.97084 9.99259 4.08953 10.2108C4.20821 10.4289 4.37922 10.6142 4.58719 10.75C3.63227 11.248 2.75889 11.8887 1.99719 12.65C0.617188 14 -0.132812 17 -0.132812 19C-0.132812 19.1326 -0.0801341 19.2598 0.0136341 19.3536C0.107402 19.4473 0.234579 19.5 0.367188 19.5H2.91719C3.04464 20.1893 3.40949 20.8123 3.94837 21.2607C4.48726 21.7091 5.16616 21.9546 5.86719 21.9546C6.56822 21.9546 7.24712 21.7091 7.786 21.2607C8.32489 20.8123 8.68973 20.1893 8.81719 19.5H15.4972C15.8835 19.5007 16.2643 19.408 16.6072 19.23L16.6772 19.18C16.7608 19.5296 16.8921 19.8661 17.0672 20.18C17.0986 20.2379 17.1411 20.289 17.1923 20.3304C17.2435 20.3718 17.3024 20.4027 17.3656 20.4213C17.4288 20.4399 17.495 20.4458 17.5605 20.4387C17.626 20.4316 17.6894 20.4117 17.7472 20.38L18.1372 20.17C18.2983 20.5606 18.5401 20.9127 18.8467 21.2034C19.1534 21.494 19.5179 21.7166 19.9166 21.8566C20.3152 21.9966 20.7389 22.0508 21.1599 22.0156C21.5809 21.9805 21.9898 21.8568 22.3597 21.6528C22.7297 21.4487 23.0523 21.1687 23.3065 20.8313C23.5608 20.4938 23.7409 20.1065 23.835 19.6947C23.9292 19.2828 23.9353 18.8557 23.853 18.4413C23.7706 18.0269 23.6017 17.6346 23.3572 17.29L23.8772 17C23.9846 16.9352 24.0638 16.8325 24.099 16.7121C24.1342 16.5917 24.1228 16.4624 24.0672 16.35ZM19.3672 5.5H19.8672V6.5H19.3672C19.2346 6.5 19.1074 6.44732 19.0136 6.35355C18.9199 6.25979 18.8672 6.13261 18.8672 6C18.8672 5.86739 18.9199 5.74021 19.0136 5.64645C19.1074 5.55268 19.2346 5.5 19.3672 5.5ZM15.8672 13V11C15.8672 10.8674 15.9199 10.7402 16.0136 10.6464C16.1074 10.5527 16.2346 10.5 16.3672 10.5H17.8672V12.17C17.8691 12.3836 17.8248 12.5951 17.7372 12.79C17.661 12.954 17.556 13.1031 17.4272 13.23L17.1672 13.49H16.3772C16.3115 13.4913 16.2462 13.4797 16.1851 13.4558C16.1239 13.4319 16.068 13.3962 16.0207 13.3507C15.9733 13.3052 15.9354 13.2508 15.909 13.1906C15.8827 13.1304 15.8685 13.0657 15.8672 13ZM10.3672 9C10.4998 9 10.627 9.05268 10.7207 9.14645C10.8145 9.24021 10.8672 9.36739 10.8672 9.5C10.8672 9.63261 10.8145 9.75979 10.7207 9.85355C10.627 9.94732 10.4998 10 10.3672 10H5.36719C5.23458 10 5.1074 9.94732 5.01363 9.85355C4.91987 9.75979 4.86719 9.63261 4.86719 9.5C4.86719 9.36739 4.91987 9.24021 5.01363 9.14645C5.1074 9.05268 5.23458 9 5.36719 9H10.3672ZM2.86719 3H7.86719V4H2.86719V3ZM2.86719 8V5H7.86719V8H2.86719ZM5.86719 21C5.42491 20.9986 4.99558 20.8506 4.64637 20.5792C4.29715 20.3077 4.04776 19.9282 3.93719 19.5H7.79719C7.68662 19.9282 7.43722 20.3077 7.08801 20.5792C6.73879 20.8506 6.30947 20.9986 5.86719 21ZM3.31719 18.5H2.86719C2.86719 17.7044 3.18326 16.9413 3.74587 16.3787C4.30848 15.8161 5.07154 15.5 5.86719 15.5C6.66284 15.5 7.4259 15.8161 7.98851 16.3787C8.55112 16.9413 8.86719 17.7044 8.86719 18.5H3.31719ZM16.0572 18.39C15.88 18.4645 15.6894 18.5019 15.4972 18.5H9.86719C9.86719 17.4391 9.44576 16.4217 8.69561 15.6716C7.94547 14.9214 6.92805 14.5 5.86719 14.5C4.80632 14.5 3.78891 14.9214 3.03876 15.6716C2.28861 16.4217 1.86719 17.4391 1.86719 18.5H0.867188C0.977187 16.72 1.65719 14.4 2.70719 13.35C3.59719 12.47 5.36719 11 7.36719 11H9.44719C9.13103 11.5784 8.93382 12.2142 8.86719 12.87C8.8578 13.328 8.9416 13.7831 9.1135 14.2077C9.28541 14.6323 9.54183 15.0175 9.86719 15.34C10.217 15.7038 10.6361 15.9939 11.0998 16.1931C11.5636 16.3923 12.0625 16.4967 12.5672 16.5H14.5672C14.8964 16.4993 15.2222 16.4335 15.526 16.3065C15.8297 16.1795 16.1054 15.9938 16.3372 15.76L17.7372 14.36L18.1372 13.96C18.3497 13.7493 18.5224 13.502 18.6472 13.23C18.793 12.9164 18.8714 12.5758 18.8772 12.23V10V9.5H19.8772V13.16C19.8806 13.5292 19.745 13.8862 19.4972 14.16L16.0572 18.39ZM20.8672 21C20.4614 21.0001 20.0652 20.8767 19.7312 20.6463C19.3972 20.4159 19.1412 20.0893 18.9972 19.71L20.2672 19.01L20.4572 19.28C20.4953 19.3338 20.5436 19.3797 20.5994 19.4148C20.6552 19.45 20.7173 19.4738 20.7823 19.485C20.8473 19.4961 20.9139 19.4943 20.9782 19.4798C21.0425 19.4652 21.1033 19.4381 21.1572 19.4C21.211 19.3619 21.2568 19.3136 21.292 19.2578C21.3272 19.202 21.351 19.1399 21.3622 19.0749C21.3733 19.0099 21.3715 18.9433 21.357 18.879C21.3424 18.8147 21.3153 18.7538 21.2772 18.7L21.1472 18.52L22.4672 17.79C22.6929 18.0871 22.8311 18.4414 22.866 18.8129C22.9009 19.1844 22.8312 19.5583 22.6647 19.8922C22.4983 20.2262 22.2417 20.5069 21.9241 20.7026C21.6064 20.8984 21.2403 21.0014 20.8672 21ZM22.3572 16.72L17.7272 19.28C17.5956 18.9014 17.5445 18.4995 17.5772 18.1L19.7572 15.41C20.3225 15.2499 20.9223 15.2594 21.4823 15.4371C22.0423 15.6149 22.5377 15.9532 22.9072 16.41L22.3572 16.72Z"
            fill="#7A7A7A" />
    </g>
    <defs>
        <clipPath id="clip0_1124_46325">
            <rect width="24" height="24" fill="white" />
        </clipPath>
    </defs>
</svg>
