<svg width="373" height="435" viewBox="0 0 373 435" fill="none" xmlns="http://www.w3.org/2000/svg">
    <path
        d="M359.839 278.256H230.084V196.034H359.839V278.256ZM230.876 277.389H359.047V196.901H230.876V277.389Z"
        fill="#E0E0E0" />
    <path d="M333.071 239.876H247.462V242.624H333.071V239.876Z" fill="#F0F0F0" />
    <path d="M338.969 250.123H247.462V253.123H338.969V250.123Z" fill="#F0F0F0" />
    <path d="M338.969 260.492H247.462V263.492H338.969V260.492Z" fill="#F0F0F0" />
    <path d="M277.381 224.99H247.462V232.125H277.381V224.99Z" fill="#F0F0F0" />
    <path d="M359.443 196.468H230.504V209.559H359.443V196.468Z" fill="#E0E0E0" />
    <path
        d="M349.522 207.6C349.356 207.426 351.019 205.233 353.228 202.701C355.437 200.17 357.376 198.254 357.535 198.419C357.693 198.583 356.038 200.785 353.829 203.325C351.621 205.866 349.681 207.773 349.522 207.6Z"
        fill="white" />
    <path
        d="M357.55 207.6C357.392 207.773 355.46 205.866 353.244 203.325C351.027 200.785 349.372 198.592 349.538 198.419C349.705 198.245 351.628 200.152 353.845 202.701C356.062 205.25 357.701 207.426 357.55 207.6Z"
        fill="white" />
    <path d="M200.173 33.6464H71.2339V115.009H200.173V33.6464Z" fill="#E6E6E6" />
    <path d="M173.809 77.0632H88.2004V79.8114H173.809V77.0632Z" fill="#F0F0F0" />
    <path d="M179.707 87.3105H88.2004V90.3101H179.707V87.3105Z" fill="#F0F0F0" />
    <path d="M179.707 97.6792H88.2004V100.679H179.707V97.6792Z" fill="#F0F0F0" />
    <path d="M118.119 62.1777H88.2004V69.3127H118.119V62.1777Z" fill="#F0F0F0" />
    <path d="M200.173 33.6464H71.2339V46.7373H200.173V33.6464Z" fill="#E0E0E0" />
    <path
        d="M189.817 44.7174C189.651 44.5527 191.314 42.3506 193.522 39.8191C195.731 37.2876 197.671 35.3717 197.829 35.5451C197.988 35.7185 196.333 37.9118 194.124 40.4433C191.915 42.9748 189.976 44.8734 189.817 44.7174Z"
        fill="white" />
    <path
        d="M197.829 44.7174C197.671 44.8908 195.739 42.9835 193.523 40.4433C191.306 37.9032 189.651 35.7185 189.817 35.5451C189.984 35.3717 191.907 37.279 194.124 39.8191C196.341 42.3593 197.996 44.5527 197.829 44.7174Z"
        fill="white" />
    <path
        d="M151.34 184.79H21.6091V102.56H151.34V184.79ZM22.4008 183.923H150.548V103.427H22.4008V183.923Z"
        fill="#E0E0E0" />
    <path d="M124.58 146.41H38.9716V149.159H124.58V146.41Z" fill="#F0F0F0" />
    <path d="M130.478 156.658H38.9716V159.657H130.478V156.658Z" fill="#F0F0F0" />
    <path d="M130.478 167.026H38.9716V170.026H130.478V167.026Z" fill="#F0F0F0" />
    <path d="M68.8906 131.525H38.9716V138.66H68.8906V131.525Z" fill="#F0F0F0" />
    <path d="M150.944 102.994H22.005V116.085H150.944V102.994Z" fill="#E0E0E0" />
    <path d="M301.061 203.629H148.814V352.883H301.061V203.629Z" fill="#E6E6E6" />
    <path d="M156.47 156.614H37.206V292.3H156.47V156.614Z" fill="#F0F0F0" />
    <path d="M156.47 156.614H37.206V171.396H156.47V156.614Z" fill="#E0E0E0" />
    <path
        d="M47.0548 163.853C47.0331 164.389 46.8681 164.907 46.5804 165.341C46.2926 165.775 45.8947 166.107 45.4361 166.296C44.9775 166.485 44.4783 166.522 44.0005 166.403C43.5227 166.284 43.0874 166.014 42.7485 165.627C42.4096 165.239 42.1821 164.751 42.0942 164.223C42.0063 163.696 42.0619 163.151 42.2541 162.657C42.4463 162.164 42.7666 161.743 43.1753 161.447C43.584 161.151 44.063 160.993 44.553 160.992C45.2306 161.011 45.8741 161.322 46.3428 161.858C46.8116 162.394 47.0676 163.111 47.0548 163.853Z"
        fill="white" />
    <path
        d="M57.2127 163.853C57.1925 164.392 57.0281 164.912 56.74 165.349C56.4519 165.786 56.0528 166.121 55.5923 166.311C55.1319 166.502 54.6304 166.54 54.1503 166.421C53.6703 166.302 53.2328 166.031 52.8924 165.641C52.5519 165.252 52.3235 164.762 52.2356 164.231C52.1477 163.701 52.2042 163.154 52.398 162.659C52.5918 162.163 52.9144 161.741 53.3257 161.445C53.7369 161.148 54.2186 160.991 54.7108 160.992C55.3884 161.011 56.0319 161.322 56.5007 161.858C56.9695 162.394 57.2254 163.111 57.2127 163.853Z"
        fill="white" />
    <path
        d="M67.3703 163.853C67.3502 164.392 67.1858 164.912 66.8977 165.349C66.6096 165.786 66.2105 166.121 65.75 166.311C65.2895 166.502 64.7881 166.54 64.308 166.421C63.8279 166.302 63.3905 166.031 63.05 165.641C62.7096 165.252 62.4812 164.762 62.3933 164.231C62.3054 163.701 62.3619 163.154 62.5557 162.659C62.7495 162.163 63.0721 161.741 63.4833 161.445C63.8946 161.148 64.3763 160.991 64.8685 160.992C65.5461 161.011 66.1896 161.322 66.6584 161.858C67.1271 162.394 67.3831 163.111 67.3703 163.853Z"
        fill="white" />
    <path d="M342.809 63.322H190.562V229.481H342.809V63.322Z" fill="#F0F0F0" />
    <path d="M342.809 63.322H190.562V82.785H342.809V63.322Z" fill="#E0E0E0" />
    <path
        d="M203.53 72.8585C203.502 73.5661 203.285 74.2491 202.906 74.8227C202.526 75.3963 202.001 75.8353 201.396 76.0852C200.791 76.335 200.132 76.3847 199.501 76.2281C198.871 76.0715 198.296 75.7155 197.848 75.2042C197.401 74.6929 197.1 74.049 196.984 73.3523C196.868 72.6556 196.941 71.9369 197.194 71.2853C197.448 70.6338 197.871 70.0781 198.41 69.6874C198.949 69.2966 199.582 69.0879 200.228 69.0873C201.122 69.11 201.972 69.5196 202.59 70.2264C203.209 70.9332 203.547 71.8796 203.53 72.8585Z"
        fill="white" />
    <path
        d="M215.936 70.3096C216.375 70.8316 216.664 71.4834 216.767 72.1839C216.87 72.8844 216.782 73.6026 216.515 74.249C216.248 74.8954 215.813 75.4414 215.265 75.8191C214.716 76.1967 214.078 76.3893 213.43 76.3727C212.783 76.3561 212.154 76.1312 211.622 75.726C211.09 75.3208 210.679 74.7531 210.439 74.0937C210.2 73.4344 210.143 72.7125 210.276 72.018C210.409 71.3236 210.725 70.6872 211.186 70.1882C211.831 69.5159 212.693 69.1511 213.584 69.1739C214.474 69.1966 215.32 69.605 215.936 70.3096Z"
        fill="white" />
    <path
        d="M230.274 72.8585C230.246 73.5661 230.029 74.2491 229.65 74.8227C229.271 75.3963 228.746 75.8353 228.141 76.0852C227.535 76.335 226.876 76.3847 226.246 76.2281C225.615 76.0715 225.04 75.7155 224.593 75.2042C224.145 74.6929 223.844 74.049 223.728 73.3523C223.612 72.6556 223.685 71.9369 223.939 71.2853C224.192 70.6338 224.615 70.0781 225.154 69.6874C225.694 69.2966 226.326 69.0879 226.973 69.0873C227.867 69.11 228.716 69.5196 229.335 70.2264C229.953 70.9332 230.291 71.8796 230.274 72.8585Z"
        fill="white" />
    <path
        d="M301.258 394.223C301.258 394.345 249.457 394.449 185.578 394.449C121.7 394.449 69.8763 394.345 69.8763 394.223C69.8763 394.101 121.67 393.997 185.578 393.997C249.487 393.997 301.258 394.11 301.258 394.223Z"
        fill="#263238" />
    <path
        d="M250.785 287.718C239.259 278.33 236.649 260.904 237.104 245.236C237.178 242.626 236.932 239.859 237.999 237.571C239.066 235.283 241.557 233.708 243.564 234.804C245.227 235.718 245.951 237.98 246.883 239.85C248.128 242.342 249.951 244.372 252.143 245.705C253.567 246.575 255.335 247.097 256.745 246.193C258.685 244.949 258.909 241.843 258.894 239.233C258.894 234.378 258.869 229.529 258.819 224.686C258.685 222.086 258.912 219.477 259.491 216.961C260.184 214.49 261.728 212.202 263.84 211.506C265.951 210.81 268.584 212.245 269.062 214.786C269.144 215.862 269.166 216.943 269.129 218.022C269.188 219.11 269.621 220.301 270.494 220.632C271.367 220.963 272.277 220.206 272.948 219.44C275.246 216.83 276.812 213.428 278.267 210.07C279.722 206.712 281.146 203.258 283.235 200.396C285.324 197.533 288.211 195.263 291.441 195.045C294.671 194.828 298.036 197.142 298.841 200.796C299.647 204.45 297.819 208.182 295.857 211.149C292.897 215.553 289.407 219.435 285.496 222.676C284.732 223.163 284.123 223.922 283.757 224.843C283.273 226.583 284.682 228.323 286.152 228.871C287.816 229.515 289.621 229.315 291.374 229.558C293.127 229.802 294.992 230.689 295.656 232.603C296.566 235.265 294.656 238.049 292.784 239.876C289.024 243.53 284.755 246.405 280.162 248.376C278.521 249.072 276.797 249.69 275.47 251.03C274.142 252.37 273.351 254.71 274.149 256.546C274.947 258.381 276.999 258.964 278.722 258.59C280.445 258.216 281.974 257.137 283.616 256.415C286.682 255.067 290.635 255.31 292.567 258.399C293.166 259.463 293.545 260.674 293.674 261.937C293.804 263.201 293.68 264.482 293.313 265.681C292.567 268.066 291.418 270.252 289.934 272.11C285.048 278.918 278.7 284.091 271.538 287.1C264.429 289.971 257.842 290.754 250.777 287.735"
        fill="#322E29" />
    <path
        d="M295.559 197.194C295.559 197.194 295.492 197.281 295.343 197.438L294.679 198.125C294.097 198.734 293.239 199.622 292.157 200.796C289.09 204.117 286.243 207.703 283.638 211.523C281.975 213.933 280.251 216.665 278.416 219.632C276.581 222.598 274.686 225.8 272.806 229.202C270.802 232.789 268.967 236.5 267.308 240.32C266.443 242.312 265.682 244.392 264.899 246.515L262.586 252.996C259.538 261.16 256.883 269.516 254.634 278.026C252.823 284.988 251.574 292.133 250.904 299.367C250.47 304.249 250.401 309.165 250.695 314.061C250.815 315.801 250.927 317.132 251.031 318.037C251.076 318.472 251.106 318.82 251.136 319.073V319.429C251.103 319.316 251.081 319.2 251.068 319.081C251.031 318.829 250.986 318.49 250.927 318.055C250.792 317.185 250.651 315.81 250.516 314.07C250.156 309.165 250.181 304.232 250.591 299.332C251.219 292.067 252.44 284.889 254.239 277.895C256.469 269.362 259.117 260.985 262.169 252.805L264.541 246.349C265.324 244.235 266.093 242.138 266.965 240.137C268.635 236.306 270.486 232.586 272.508 228.993C274.418 225.513 276.342 222.363 278.155 219.423C279.968 216.482 281.721 213.733 283.377 211.332C286.008 207.521 288.894 203.961 292.008 200.683C293.112 199.526 293.992 198.656 294.589 198.073L295.283 197.42C295.368 197.334 295.46 197.258 295.559 197.194Z"
        fill="#263238" />
    <path
        d="M267.062 240.12C266.957 239.762 266.885 239.391 266.846 239.015C266.727 238.293 266.592 237.275 266.436 235.953C266.115 233.343 265.787 229.767 265.436 225.809C265.085 221.85 264.69 218.266 264.362 215.682C264.19 214.394 264.041 213.359 263.937 212.637C263.855 212.267 263.813 211.887 263.81 211.506C263.938 211.854 264.031 212.219 264.086 212.593C264.25 213.307 264.436 214.333 264.645 215.63C265.071 218.24 265.488 221.789 265.839 225.756C266.189 229.724 266.488 233.204 266.719 235.909C266.831 237.127 266.928 238.163 267.003 238.989C267.061 239.362 267.081 239.742 267.062 240.12Z"
        fill="#263238" />
    <path
        d="M295.768 233.873C295.405 233.966 295.035 234.018 294.664 234.03C293.918 234.108 292.858 234.213 291.545 234.387C288.92 234.717 285.309 235.326 281.348 236.196C277.387 237.066 273.828 238.049 271.27 238.806C269.994 239.189 268.965 239.537 268.286 239.772C267.923 239.922 267.548 240.027 267.167 240.085C267.511 239.883 267.871 239.717 268.241 239.589C268.942 239.302 269.957 238.902 271.225 238.476C273.769 237.606 277.327 236.57 281.303 235.683C284.671 234.932 288.07 234.38 291.486 234.03C292.806 233.9 293.873 233.847 294.619 233.83C295.002 233.8 295.387 233.814 295.768 233.873Z"
        fill="#263238" />
    <path
        d="M254.604 277.286C254.525 277.16 254.46 277.023 254.41 276.878L253.918 275.668C253.493 274.615 252.918 273.058 252.232 271.153C250.845 267.325 249.077 261.966 247.197 256.015C245.317 250.064 243.586 244.705 242.273 240.833C241.632 238.954 241.102 237.414 240.707 236.266L240.289 235.022C240.231 234.878 240.191 234.726 240.17 234.569C240.249 234.695 240.314 234.833 240.363 234.978L240.856 236.188C241.274 237.24 241.855 238.798 242.542 240.703C243.929 244.531 245.697 249.89 247.577 255.841C249.457 261.792 251.188 267.151 252.501 271.022C253.142 272.902 253.672 274.441 254.06 275.59C254.231 276.086 254.373 276.46 254.485 276.834C254.543 276.977 254.583 277.13 254.604 277.286Z"
        fill="#263238" />
    <path
        d="M292.709 262.958C292.59 263.037 292.462 263.099 292.329 263.14L291.225 263.575L287.144 265.115C283.698 266.42 278.938 268.282 273.716 270.335C268.495 272.388 263.713 274.215 260.244 275.433C258.513 276.051 257.103 276.521 256.126 276.834L255 277.173C254.869 277.222 254.734 277.254 254.597 277.269C254.716 277.189 254.844 277.128 254.977 277.086L256.081 276.651L260.162 275.111C263.608 273.806 268.368 271.945 273.59 269.891C278.812 267.838 283.586 266.011 287.055 264.793C288.793 264.176 290.195 263.706 291.18 263.393L292.306 263.053C292.437 263.005 292.572 262.973 292.709 262.958Z"
        fill="#263238" />
    <path
        d="M277.163 51.9216L273.321 53.5224L271.672 47.6673C268.644 36.8706 258.991 31.1373 250.121 34.7826C241.251 38.4279 236.529 50.2686 239.558 61.0653L241.206 66.9204L237.35 68.5299C235.879 69.1951 234.685 70.4957 234.015 72.1614C233.346 73.827 233.252 75.7295 233.754 77.4735L244.444 115.571C244.666 116.434 245.034 117.237 245.527 117.931C246.021 118.625 246.628 119.196 247.314 119.611C248 120.025 248.751 120.275 249.522 120.345C250.292 120.414 251.067 120.303 251.799 120.016L291.613 103.408C293.103 102.744 294.314 101.432 294.991 99.7477C295.669 98.0635 295.76 96.1385 295.246 94.3776L284.548 56.2803C284.32 55.4194 283.946 54.6208 283.448 53.9321C282.95 53.2435 282.338 52.6789 281.649 52.2721C280.96 51.8653 280.207 51.6247 279.437 51.5644C278.666 51.5042 277.893 51.6257 277.163 51.9216ZM246.816 58.0116C246 55.2043 246.146 52.1373 247.225 49.4533C248.304 46.7692 250.232 44.6763 252.605 43.6131C253.777 43.1456 255.017 42.9581 256.252 43.0618C257.487 43.1656 258.692 43.5584 259.794 44.2169C260.896 44.8754 261.873 45.7861 262.667 46.8946C263.461 48.003 264.055 49.2866 264.414 50.6688L266.055 56.5239L248.457 63.8667L246.816 58.0116ZM269.196 91.8198L271.926 101.546C271.976 101.741 271.96 101.951 271.881 102.133C271.802 102.314 271.666 102.453 271.501 102.521L267.674 104.113C267.522 104.162 267.359 104.141 267.22 104.053C267.081 103.966 266.976 103.819 266.928 103.643L264.175 93.96C262.657 93.8635 261.201 93.2286 260.001 92.1402C258.801 91.0518 257.915 89.5619 257.461 87.87C256.813 85.6331 256.931 83.1903 257.792 81.053C258.652 78.9156 260.189 77.2495 262.079 76.4034C263.012 76.0315 264 75.8825 264.984 75.9654C265.968 76.0483 266.927 76.3612 267.805 76.8857C268.683 77.4101 269.461 78.1353 270.094 79.018C270.726 79.9007 271.199 80.9229 271.486 82.0236C271.966 83.7423 272.006 85.587 271.6 87.3316C271.195 89.0762 270.362 90.6451 269.203 91.8459L269.196 91.8198Z"
        fill="#322E29" />
    <path
        d="M273.15 53.418C273.15 53.5398 266.025 56.6631 257.163 60.378C248.301 64.0928 241.072 67.0769 241.035 66.9899C240.998 66.9029 248.159 63.7535 257.029 60.0299C265.899 56.3063 273.112 53.3049 273.15 53.418Z"
        fill="#263238" />
    <path
        d="M281.609 55.0188C281.642 55.0943 281.669 55.1729 281.691 55.2537C281.751 55.4277 281.818 55.6539 281.907 55.9323C282.101 56.5674 282.37 57.4461 282.706 58.5423L285.57 68.2689C286.764 72.3927 288.189 77.2821 289.77 82.7109C290.516 85.434 291.396 88.2702 292.217 91.2543C292.656 92.7921 292.846 94.4118 292.776 96.0306C292.713 96.8725 292.508 97.6915 292.172 98.4405C291.814 99.187 291.335 99.8458 290.762 100.381C289.61 101.362 288.33 102.122 286.973 102.634L283.131 104.243L275.857 107.28L263.541 112.395L255.224 115.806L252.986 116.676L252.389 116.902C252.325 116.935 252.257 116.956 252.187 116.963C252.187 116.963 252.247 116.963 252.374 116.858L252.956 116.589L255.194 115.606L263.467 112.056L275.76 106.836L283.019 103.774L286.861 102.155C288.18 101.665 289.422 100.927 290.538 99.9717C291.071 99.4754 291.517 98.8639 291.851 98.1708C292.167 97.4781 292.358 96.717 292.411 95.9349C292.479 94.3752 292.297 92.8142 291.874 91.3326C291.068 88.3746 290.218 85.5123 289.449 82.7892C287.898 77.3517 286.465 72.4449 285.331 68.3211C284.198 64.1973 283.243 60.8826 282.586 58.551C282.273 57.4113 282.034 56.5239 281.84 55.8801L281.661 55.1841C281.639 55.1314 281.621 55.076 281.609 55.0188Z"
        fill="#263238" />
    <path
        d="M260.602 43.0215C260.602 43.0215 260.207 42.7953 259.476 42.4473C258.434 41.9803 257.331 41.7215 256.216 41.6817C254.562 41.6155 252.916 41.978 251.397 42.7431C249.549 43.6957 247.969 45.2366 246.839 47.1888C245.7 49.1354 245.09 51.4359 245.086 53.7921C245.101 55.7232 245.352 57.642 245.832 59.4906C246.219 61.074 246.622 62.3355 246.891 63.2142C247.049 63.6605 247.179 64.12 247.279 64.5888C247.067 64.1715 246.89 63.7316 246.749 63.2751C246.443 62.4051 246.003 61.1697 245.57 59.5776C245.039 57.7096 244.75 55.7596 244.713 53.7921C244.693 51.3469 245.318 48.9536 246.503 46.9365C247.673 44.913 249.317 43.3244 251.24 42.3603C252.807 41.5911 254.504 41.2517 256.201 41.3685C257.341 41.4362 258.461 41.7458 259.505 42.282C259.785 42.4323 260.054 42.6068 260.311 42.804C260.417 42.8583 260.515 42.9317 260.602 43.0215Z"
        fill="#263238" />
    <path
        d="M260.945 77.0645C261.064 76.9804 261.189 76.9077 261.318 76.847C261.692 76.6505 262.078 76.4905 262.474 76.3685C263.103 76.1521 263.752 76.0236 264.407 75.9857C265.297 75.9299 266.188 76.0868 267.025 76.4468C268.935 77.2298 270.688 79.5005 271.553 82.5368C271.968 84.1663 271.968 85.9012 271.553 87.5306C271.093 89.2991 270.268 90.9092 269.151 92.2199L269.196 91.985C270.188 95.1605 271.27 98.6057 272.389 102.199L272.456 102.416L272.269 102.495L270.561 103.156L266.831 104.609L266.645 104.678L266.585 104.461C265.563 100.859 264.444 97.5008 263.601 94.2035L263.765 94.3514C262.307 94.2102 260.916 93.5718 259.767 92.5157C258.726 91.5815 257.874 90.3939 257.267 89.0357C256.721 87.8313 256.448 86.4832 256.477 85.1207C256.511 83.7283 256.809 82.3619 257.35 81.1195C257.89 79.8772 258.659 78.7896 259.602 77.9345C259.991 77.567 260.426 77.2734 260.893 77.0645C260.472 77.3561 260.063 77.6726 259.67 78.0128C258.634 79.035 257.84 80.35 257.364 81.8321C256.956 82.9498 256.765 84.1589 256.805 85.3728C256.845 86.5867 257.115 87.7752 257.596 88.853C258.192 90.1596 259.024 91.2995 260.035 92.1938C261.132 93.1976 262.458 93.8028 263.847 93.9338H263.974L264.011 94.0643C264.832 97.3007 265.958 100.685 266.995 104.304L266.749 104.165L270.479 102.712L272.18 102.042L272.06 102.338C270.949 98.7449 269.875 95.291 268.89 92.1155V91.985L268.979 91.8806C270.064 90.6243 270.873 89.0813 271.337 87.3827C271.732 85.8241 271.732 84.1651 271.337 82.6064C270.524 79.6832 268.845 77.4647 267.025 76.6817C266.219 76.3194 265.359 76.1507 264.496 76.1858C263.852 76.2031 263.211 76.3052 262.586 76.4903C261.475 76.8122 260.953 77.108 260.945 77.0645Z"
        fill="#263238" />
    <path
        d="M237.887 328.268L163.371 327.868C159.067 327.841 154.949 325.822 151.921 322.256C148.893 318.69 147.202 313.869 147.22 308.85L148.011 90.9933C148.019 88.5069 148.448 86.0469 149.273 83.7539C150.097 81.4609 151.301 79.3799 152.816 77.6298C154.33 75.8797 156.125 74.4949 158.099 73.5545C160.073 72.6141 162.186 72.1365 164.318 72.1491L238.827 72.5493C243.13 72.5746 247.249 74.5908 250.278 78.155C253.308 81.7193 255.001 86.5401 254.985 91.5588L254.194 309.407C254.185 311.894 253.756 314.355 252.932 316.649C252.108 318.943 250.904 321.025 249.39 322.776C247.876 324.528 246.081 325.914 244.107 326.857C242.133 327.799 240.02 328.279 237.887 328.268Z"
        fill="#455A64" />
    <path
        d="M238.715 80.04H224.273C223.801 80.0502 223.336 80.1685 222.904 80.3883C222.472 80.6081 222.082 80.9249 221.755 81.3208C221.428 81.7167 221.171 82.1838 220.999 82.6955C220.827 83.2072 220.743 83.7534 220.752 84.303V87.3567C220.76 87.9058 220.676 88.4516 220.504 88.9628C220.332 89.474 220.075 89.9406 219.748 90.3357C219.421 90.7309 219.03 91.047 218.598 91.2658C218.166 91.4846 217.701 91.6019 217.231 91.611L189.077 91.4631C188.125 91.4335 187.221 90.9642 186.565 90.1584C185.909 89.3526 185.554 88.2761 185.578 87.1653V84.1116C185.603 83.0023 185.249 81.927 184.594 81.1215C183.94 80.3159 183.038 79.8457 182.087 79.8138H177.007L164.363 79.7442C161.355 79.7233 158.463 81.0931 156.32 83.5537C154.176 86.0143 152.956 89.3651 152.927 92.8725L152.181 305.518C152.174 307.258 152.461 308.983 153.026 310.593C153.59 312.204 154.421 313.669 155.471 314.905C156.522 316.141 157.77 317.124 159.146 317.797C160.522 318.47 161.998 318.821 163.49 318.829L237.85 319.229C239.343 319.237 240.822 318.902 242.204 318.243C243.586 317.584 244.843 316.614 245.904 315.389C246.964 314.163 247.808 312.706 248.385 311.101C248.963 309.495 249.264 307.772 249.271 306.031L250.017 93.3858C250.034 89.8685 248.854 86.4869 246.735 83.9843C244.615 81.4817 241.731 80.063 238.715 80.04Z"
        fill="white" />
    <path
        d="M228.711 290.858L173.419 290.58C172.844 290.58 172.382 289.849 172.389 288.962L172.449 272.093C172.449 271.223 172.919 270.474 173.494 270.474L228.786 270.77C229.104 270.834 229.389 271.039 229.581 271.343C229.773 271.646 229.857 272.023 229.815 272.397L229.763 289.249C229.763 290.145 229.286 290.867 228.711 290.858Z"
        fill="#322E29" />
    <path
        d="M190.924 283.535C190.502 283.535 190.095 283.467 189.705 283.332C189.32 283.191 189.022 283.012 188.81 282.795L189.046 282.332C189.247 282.527 189.515 282.692 189.851 282.828C190.193 282.958 190.55 283.023 190.924 283.023C191.282 283.023 191.572 282.98 191.794 282.893C192.022 282.801 192.187 282.679 192.29 282.527C192.399 282.375 192.453 282.207 192.453 282.023C192.453 281.801 192.388 281.622 192.258 281.486C192.133 281.351 191.968 281.245 191.762 281.169C191.556 281.088 191.328 281.017 191.079 280.958C190.83 280.898 190.58 280.836 190.331 280.771C190.081 280.7 189.851 280.608 189.64 280.494C189.434 280.38 189.266 280.231 189.136 280.047C189.011 279.857 188.948 279.61 188.948 279.307C188.948 279.025 189.022 278.768 189.168 278.534C189.32 278.296 189.55 278.106 189.859 277.965C190.168 277.819 190.564 277.746 191.046 277.746C191.366 277.746 191.683 277.792 191.998 277.884C192.312 277.971 192.583 278.093 192.811 278.25L192.608 278.73C192.364 278.567 192.103 278.448 191.827 278.372C191.556 278.296 191.293 278.258 191.038 278.258C190.697 278.258 190.415 278.304 190.193 278.396C189.97 278.488 189.805 278.613 189.697 278.77C189.594 278.922 189.542 279.095 189.542 279.291C189.542 279.513 189.604 279.692 189.729 279.827C189.859 279.963 190.027 280.069 190.233 280.144C190.445 280.22 190.675 280.288 190.924 280.348C191.174 280.407 191.42 280.472 191.664 280.543C191.914 280.613 192.141 280.705 192.347 280.819C192.559 280.928 192.727 281.074 192.852 281.258C192.982 281.443 193.047 281.684 193.047 281.982C193.047 282.259 192.971 282.516 192.819 282.755C192.667 282.988 192.434 283.177 192.12 283.324C191.811 283.465 191.412 283.535 190.924 283.535ZM194.358 283.486V277.794H194.959V283.486H194.358ZM196.811 283.486V277.794H197.307L201.235 282.738H200.975V277.794H201.568V283.486H201.072L197.153 278.543H197.413V283.486H196.811ZM205.922 283.535C205.489 283.535 205.087 283.465 204.719 283.324C204.356 283.177 204.039 282.974 203.768 282.714C203.502 282.454 203.293 282.147 203.141 281.795C202.995 281.443 202.922 281.058 202.922 280.64C202.922 280.223 202.995 279.838 203.141 279.486C203.293 279.133 203.505 278.827 203.776 278.567C204.047 278.307 204.364 278.106 204.727 277.965C205.096 277.819 205.497 277.746 205.93 277.746C206.364 277.746 206.76 277.813 207.118 277.949C207.481 278.085 207.79 278.29 208.045 278.567L207.671 278.949C207.432 278.711 207.169 278.54 206.882 278.437C206.594 278.334 206.286 278.282 205.955 278.282C205.602 278.282 205.277 278.342 204.979 278.461C204.686 278.575 204.429 278.74 204.207 278.957C203.99 279.169 203.819 279.418 203.694 279.705C203.575 279.987 203.515 280.299 203.515 280.64C203.515 280.977 203.575 281.288 203.694 281.576C203.819 281.863 203.99 282.115 204.207 282.332C204.429 282.543 204.686 282.708 204.979 282.828C205.277 282.942 205.6 282.999 205.947 282.999C206.272 282.999 206.578 282.95 206.866 282.852C207.158 282.755 207.427 282.589 207.671 282.356L208.012 282.811C207.741 283.05 207.424 283.232 207.061 283.356C206.697 283.476 206.318 283.535 205.922 283.535ZM207.435 282.738V280.64H208.012V282.811L207.435 282.738ZM191.648 293.535C190.922 293.535 190.35 293.326 189.932 292.909C189.515 292.492 189.306 291.874 189.306 291.055V287.794H189.908V291.031C189.908 291.703 190.06 292.199 190.363 292.519C190.667 292.839 191.095 292.999 191.648 292.999C192.206 292.999 192.637 292.839 192.941 292.519C193.245 292.199 193.396 291.703 193.396 291.031V287.794H193.982V291.055C193.982 291.874 193.773 292.492 193.356 292.909C192.944 293.326 192.374 293.535 191.648 293.535ZM195.795 293.486V287.794H197.925C198.408 287.794 198.823 287.873 199.169 288.03C199.516 288.182 199.782 288.404 199.966 288.697C200.156 288.984 200.251 289.334 200.251 289.746C200.251 290.147 200.156 290.494 199.966 290.787C199.782 291.074 199.516 291.296 199.169 291.454C198.823 291.611 198.408 291.689 197.925 291.689H196.128L196.397 291.405V293.486H195.795ZM196.397 291.454L196.128 291.161H197.909C198.478 291.161 198.909 291.039 199.202 290.795C199.5 290.546 199.649 290.196 199.649 289.746C199.649 289.291 199.5 288.938 199.202 288.689C198.909 288.44 198.478 288.315 197.909 288.315H196.128L196.397 288.03V291.454Z"
        fill="#E8E8E3" />
    <path d="M184.448 142.55L165.261 142.448L165.245 146.555L184.432 146.656L184.448 142.55Z"
        fill="#322E29" />
    <path opacity="0.1"
        d="M184.448 142.55L165.261 142.448L165.245 146.555L184.432 146.656L184.448 142.55Z"
        fill="black" />
    <path
        d="M240.692 167.762C240.842 167.744 240.99 167.703 241.132 167.64C241.338 167.546 241.518 167.386 241.65 167.178C241.782 166.971 241.861 166.724 241.878 166.466C241.878 165.083 241.878 163.064 241.878 160.472C241.878 159.175 241.878 157.722 241.878 156.122C241.878 155.73 241.878 155.321 241.878 154.912C241.926 154.515 241.852 154.111 241.669 153.773C241.566 153.61 241.433 153.478 241.279 153.385C241.125 153.293 240.954 153.244 240.781 153.242H239.618H228.838L166.444 152.972C166.284 152.969 166.126 153.011 165.983 153.094C165.841 153.177 165.717 153.3 165.623 153.451C165.443 153.791 165.374 154.196 165.429 154.59C165.429 155.46 165.429 156.33 165.429 157.2C165.429 158.94 165.429 160.68 165.429 162.42C165.429 163.29 165.429 164.16 165.429 165.03C165.398 165.436 165.398 165.843 165.429 166.248C165.469 166.422 165.541 166.583 165.642 166.719C165.743 166.854 165.869 166.961 166.011 167.031C166.158 167.1 166.316 167.132 166.474 167.127H170.271L186.839 167.231L214.888 167.432L233.799 167.606L238.939 167.675H240.274C240.58 167.675 240.729 167.675 240.729 167.675H240.274H238.939H233.799H214.888L186.839 167.571L170.271 167.492H166.474C166.265 167.502 166.056 167.461 165.862 167.371C165.666 167.273 165.491 167.124 165.351 166.936C165.212 166.747 165.111 166.524 165.056 166.283C165.013 166.055 164.998 165.82 165.012 165.587V164.943C165.012 164.073 165.012 163.203 165.012 162.333C165.012 160.593 165.012 158.853 165.012 157.113C165.012 156.243 165.012 155.373 165.012 154.503C164.997 154.272 164.997 154.039 165.012 153.807C165.04 153.551 165.124 153.308 165.258 153.103C165.387 152.893 165.557 152.722 165.754 152.605C165.952 152.489 166.17 152.43 166.392 152.433L228.786 152.833L239.565 152.92H240.729C240.934 152.92 241.136 152.978 241.318 153.088C241.5 153.199 241.656 153.359 241.773 153.555C241.984 153.933 242.069 154.388 242.012 154.834C242.012 155.243 242.012 155.652 242.012 156.043C242.012 157.627 242.012 159.08 242.012 160.393C242.012 163.003 241.96 165.004 241.945 166.396C241.927 166.664 241.843 166.92 241.705 167.134C241.566 167.348 241.377 167.512 241.162 167.606C241.021 167.708 240.858 167.762 240.692 167.762Z"
        fill="#E0E0E0" />
    <path d="M206.115 157.34H171.024V161.176H206.115V157.34Z" fill="#322E29" />
    <path opacity="0.2" d="M206.115 157.34H171.024V161.176H206.115V157.34Z" fill="white" />
    <path d="M184.317 180.011L165.13 179.909L165.114 184.016L184.301 184.117L184.317 180.011Z"
        fill="#322E29" />
    <path opacity="0.1"
        d="M184.317 180.011L165.13 179.909L165.114 184.016L184.301 184.117L184.317 180.011Z"
        fill="black" />
    <path
        d="M240.207 205.224C240.358 205.203 240.507 205.171 240.654 205.129C240.863 205.051 241.055 204.923 241.217 204.752C241.379 204.581 241.508 204.371 241.594 204.137C241.712 203.786 241.758 203.407 241.729 203.032C241.729 202.614 241.729 202.162 241.729 201.657C241.729 200.648 241.729 199.5 241.729 198.177V192.653C241.764 192.253 241.688 191.85 241.512 191.504C241.328 191.15 241.039 190.887 240.699 190.765C240.328 190.688 239.949 190.664 239.573 190.695H228.838L166.66 190.426C166.326 190.427 166.003 190.569 165.752 190.827C165.501 191.084 165.339 191.44 165.295 191.826C165.295 192.653 165.295 193.566 165.295 194.436C165.295 196.176 165.295 197.916 165.295 199.656C165.295 200.526 165.295 201.396 165.295 202.266C165.267 202.673 165.282 203.082 165.34 203.484C165.433 203.837 165.625 204.143 165.884 204.354C166.16 204.558 166.484 204.656 166.809 204.633H167.846H170.002L186.511 204.728L214.463 204.929L233.306 205.102L238.431 205.172H233.306H214.463L186.496 205.137L169.987 205.068H166.742C166.339 205.096 165.938 204.97 165.601 204.711C165.262 204.437 165.014 204.034 164.9 203.571C164.833 203.129 164.813 202.679 164.84 202.231C164.84 201.361 164.84 200.491 164.84 199.621C164.84 197.881 164.84 196.141 164.84 194.401C164.84 193.531 164.84 192.661 164.84 191.791C164.895 191.294 165.103 190.837 165.425 190.505C165.748 190.174 166.163 189.991 166.593 189.991L228.771 190.391L239.506 190.486C239.905 190.458 240.307 190.49 240.699 190.582C241.087 190.73 241.414 191.04 241.617 191.452C241.81 191.835 241.893 192.28 241.855 192.722C241.855 193.131 241.855 193.531 241.855 193.932C241.855 195.506 241.855 196.951 241.855 198.282C241.855 199.613 241.855 200.735 241.855 201.762C241.855 202.258 241.855 202.719 241.855 203.145C241.883 203.534 241.829 203.925 241.699 204.285C241.602 204.525 241.462 204.738 241.288 204.909C241.114 205.08 240.911 205.205 240.692 205.276C240.529 205.292 240.365 205.275 240.207 205.224Z"
        fill="#E0E0E0" />
    <path d="M184.172 219.099L164.986 218.997L164.97 223.104L184.156 223.205L184.172 219.099Z"
        fill="#322E29" />
    <path opacity="0.1"
        d="M184.172 219.099L164.986 218.997L164.97 223.104L184.156 223.205L184.172 219.099Z"
        fill="black" />
    <path
        d="M240.058 244.296C240.208 244.275 240.358 244.243 240.505 244.2C240.713 244.123 240.904 243.996 241.066 243.827C241.228 243.657 241.357 243.449 241.445 243.217C241.562 242.866 241.608 242.488 241.579 242.112C241.579 241.686 241.579 241.242 241.579 240.729C241.579 239.729 241.579 238.571 241.579 237.249V231.725C241.615 231.325 241.539 230.922 241.363 230.576C241.175 230.228 240.887 229.969 240.55 229.845C240.179 229.765 239.8 229.739 239.424 229.767H228.689L166.511 229.497C166.177 229.498 165.854 229.641 165.603 229.898C165.352 230.156 165.189 230.511 165.146 230.898C165.146 231.768 165.146 232.638 165.146 233.508C165.146 235.248 165.146 236.988 165.146 238.728C165.146 239.598 165.146 240.468 165.146 241.338C165.118 241.742 165.133 242.148 165.191 242.547C165.28 242.902 165.473 243.21 165.735 243.417C166.009 243.626 166.334 243.724 166.66 243.696H169.905L186.414 243.8L214.366 244L233.21 244.174L238.334 244.244H233.21H214.366L186.414 244.148L169.905 244.07H166.66C166.256 244.102 165.855 243.976 165.519 243.713C165.179 243.439 164.932 243.036 164.818 242.573C164.751 242.131 164.731 241.681 164.758 241.234C164.758 240.364 164.758 239.494 164.758 238.624C164.758 236.884 164.758 235.144 164.758 233.404C164.758 232.534 164.758 231.664 164.758 230.75C164.811 230.253 165.017 229.796 165.339 229.465C165.66 229.133 166.074 228.95 166.504 228.949L228.681 229.349L239.416 229.445C239.816 229.417 240.217 229.449 240.61 229.541C240.997 229.689 241.324 229.998 241.527 230.411C241.72 230.794 241.804 231.239 241.766 231.681C241.766 232.09 241.766 232.499 241.766 232.89C241.766 234.465 241.766 235.909 241.766 237.24C241.766 238.571 241.766 239.694 241.766 240.72C241.766 241.216 241.766 241.677 241.766 242.104C241.795 242.493 241.741 242.884 241.609 243.243C241.512 243.483 241.372 243.696 241.199 243.867C241.025 244.039 240.821 244.164 240.602 244.235C240.427 244.305 240.241 244.326 240.058 244.296Z"
        fill="#E0E0E0" />
    <path d="M205.366 195.886L170.276 195.701L170.261 199.537L205.351 199.723L205.366 195.886Z"
        fill="#322E29" />
    <path opacity="0.2"
        d="M205.366 195.886L170.276 195.701L170.261 199.537L205.351 199.723L205.366 195.886Z"
        fill="white" />
    <path
        d="M173.449 237.197C173.427 237.547 173.317 237.882 173.133 238.159C172.95 238.437 172.7 238.646 172.416 238.761C172.131 238.875 171.824 238.889 171.533 238.801C171.242 238.714 170.979 238.528 170.777 238.268C170.575 238.008 170.443 237.685 170.397 237.338C170.352 236.991 170.394 236.636 170.52 236.317C170.645 235.998 170.849 235.73 171.104 235.544C171.36 235.359 171.656 235.265 171.957 235.274C172.372 235.301 172.762 235.518 173.041 235.878C173.321 236.238 173.467 236.712 173.449 237.197Z"
        fill="#322E29" />
    <path
        d="M178.201 237.223C178.215 237.468 178.187 237.714 178.116 237.946C178.046 238.178 177.935 238.39 177.791 238.57C177.648 238.75 177.474 238.893 177.28 238.991C177.087 239.089 176.878 239.14 176.668 239.14C176.457 239.14 176.248 239.089 176.055 238.991C175.862 238.893 175.688 238.75 175.544 238.57C175.4 238.39 175.29 238.178 175.219 237.946C175.149 237.714 175.12 237.468 175.135 237.223C175.12 236.978 175.149 236.731 175.219 236.5C175.29 236.268 175.4 236.056 175.544 235.876C175.688 235.696 175.862 235.553 176.055 235.455C176.248 235.357 176.457 235.306 176.668 235.306C176.878 235.306 177.087 235.357 177.28 235.455C177.474 235.553 177.648 235.696 177.791 235.876C177.935 236.056 178.046 236.268 178.116 236.5C178.187 236.731 178.215 236.978 178.201 237.223Z"
        fill="#322E29" />
    <path
        d="M182.96 237.249C182.938 237.599 182.828 237.934 182.645 238.212C182.461 238.49 182.212 238.699 181.927 238.813C181.643 238.927 181.336 238.941 181.044 238.853C180.753 238.766 180.49 238.581 180.288 238.32C180.086 238.06 179.954 237.737 179.909 237.39C179.863 237.043 179.905 236.688 180.031 236.369C180.157 236.051 180.36 235.782 180.615 235.596C180.871 235.411 181.167 235.317 181.468 235.326C181.883 235.356 182.272 235.573 182.55 235.933C182.829 236.292 182.976 236.765 182.96 237.249Z"
        fill="#322E29" />
    <path
        d="M187.712 237.275C187.69 237.625 187.58 237.96 187.397 238.238C187.213 238.516 186.964 238.725 186.679 238.839C186.394 238.953 186.087 238.967 185.796 238.88C185.505 238.792 185.242 238.607 185.04 238.347C184.838 238.086 184.706 237.763 184.66 237.416C184.615 237.069 184.657 236.714 184.783 236.395C184.909 236.077 185.112 235.808 185.367 235.622C185.623 235.437 185.919 235.343 186.22 235.352C186.635 235.382 187.023 235.599 187.302 235.959C187.581 236.318 187.728 236.791 187.712 237.275Z"
        fill="#322E29" />
    <path
        d="M192.464 237.293C192.443 237.643 192.335 237.979 192.152 238.258C191.969 238.537 191.72 238.747 191.436 238.863C191.151 238.978 190.844 238.994 190.552 238.907C190.26 238.82 189.996 238.636 189.794 238.376C189.591 238.116 189.458 237.792 189.412 237.445C189.366 237.098 189.408 236.742 189.534 236.423C189.659 236.104 189.863 235.835 190.118 235.649C190.374 235.463 190.671 235.369 190.972 235.379C191.385 235.408 191.773 235.624 192.052 235.982C192.33 236.339 192.478 236.81 192.464 237.293Z"
        fill="#322E29" />
    <path
        d="M197.223 237.319C197.203 237.667 197.096 238.001 196.914 238.28C196.733 238.558 196.486 238.769 196.204 238.886C195.922 239.003 195.616 239.021 195.325 238.938C195.034 238.855 194.77 238.674 194.566 238.419C194.362 238.163 194.226 237.843 194.175 237.499C194.125 237.154 194.162 236.8 194.282 236.48C194.402 236.16 194.599 235.887 194.85 235.696C195.101 235.505 195.394 235.404 195.694 235.405C196.114 235.423 196.511 235.634 196.798 235.993C197.084 236.352 197.237 236.829 197.223 237.319Z"
        fill="#322E29" />
    <path
        d="M201.975 237.345C201.99 237.59 201.961 237.836 201.891 238.068C201.82 238.3 201.71 238.512 201.566 238.692C201.422 238.872 201.248 239.015 201.055 239.113C200.862 239.211 200.653 239.262 200.442 239.262C200.231 239.262 200.023 239.211 199.829 239.113C199.636 239.015 199.462 238.872 199.318 238.692C199.175 238.512 199.064 238.3 198.994 238.068C198.923 237.836 198.895 237.59 198.909 237.345C198.895 237.099 198.923 236.853 198.994 236.622C199.064 236.39 199.175 236.177 199.318 235.998C199.462 235.818 199.636 235.674 199.829 235.576C200.023 235.478 200.231 235.428 200.442 235.428C200.653 235.428 200.862 235.478 201.055 235.576C201.248 235.674 201.422 235.818 201.566 235.998C201.71 236.177 201.82 236.39 201.891 236.622C201.961 236.853 201.99 237.099 201.975 237.345Z"
        fill="#322E29" />
    <path
        d="M206.727 237.371C206.707 237.719 206.599 238.054 206.418 238.332C206.237 238.611 205.99 238.821 205.708 238.938C205.426 239.055 205.12 239.073 204.829 238.99C204.538 238.907 204.274 238.726 204.07 238.471C203.865 238.215 203.73 237.895 203.679 237.551C203.629 237.206 203.666 236.852 203.786 236.532C203.905 236.212 204.103 235.939 204.354 235.748C204.605 235.557 204.898 235.456 205.198 235.457C205.618 235.475 206.015 235.687 206.302 236.045C206.588 236.404 206.741 236.881 206.727 237.371Z"
        fill="#322E29" />
    <path
        d="M211.479 237.397C211.458 237.747 211.35 238.083 211.167 238.362C210.984 238.641 210.735 238.852 210.451 238.967C210.166 239.083 209.859 239.098 209.567 239.011C209.275 238.925 209.011 238.74 208.809 238.48C208.606 238.22 208.474 237.896 208.427 237.549C208.381 237.202 208.423 236.847 208.549 236.528C208.675 236.208 208.878 235.939 209.133 235.753C209.389 235.568 209.686 235.474 209.987 235.483C210.401 235.512 210.788 235.729 211.067 236.086C211.345 236.444 211.493 236.914 211.479 237.397Z"
        fill="#322E29" />
    <g opacity="0.2">
        <path
            d="M173.449 237.197C173.427 237.547 173.317 237.882 173.133 238.159C172.95 238.437 172.7 238.646 172.416 238.761C172.131 238.875 171.824 238.889 171.533 238.801C171.242 238.714 170.979 238.528 170.777 238.268C170.575 238.008 170.443 237.685 170.397 237.338C170.352 236.991 170.394 236.636 170.52 236.317C170.645 235.998 170.849 235.73 171.104 235.544C171.36 235.359 171.656 235.265 171.957 235.274C172.372 235.301 172.762 235.518 173.041 235.878C173.321 236.238 173.467 236.712 173.449 237.197Z"
            fill="white" />
        <path
            d="M178.201 237.222C178.215 237.468 178.187 237.714 178.116 237.946C178.046 238.177 177.935 238.39 177.791 238.57C177.648 238.749 177.474 238.893 177.28 238.991C177.087 239.089 176.878 239.139 176.668 239.139C176.457 239.139 176.248 239.089 176.055 238.991C175.862 238.893 175.688 238.749 175.544 238.57C175.4 238.39 175.29 238.177 175.219 237.946C175.149 237.714 175.12 237.468 175.135 237.222C175.12 236.977 175.149 236.731 175.219 236.499C175.29 236.268 175.4 236.055 175.544 235.875C175.688 235.696 175.862 235.552 176.055 235.454C176.248 235.356 176.457 235.305 176.668 235.305C176.878 235.305 177.087 235.356 177.28 235.454C177.474 235.552 177.648 235.696 177.791 235.875C177.935 236.055 178.046 236.268 178.116 236.499C178.187 236.731 178.215 236.977 178.201 237.222Z"
            fill="white" />
        <path
            d="M182.96 237.248C182.938 237.598 182.828 237.933 182.645 238.211C182.461 238.489 182.212 238.698 181.927 238.812C181.643 238.926 181.336 238.94 181.044 238.853C180.753 238.765 180.49 238.58 180.288 238.32C180.086 238.06 179.954 237.736 179.909 237.389C179.863 237.042 179.905 236.688 180.031 236.369C180.157 236.05 180.36 235.781 180.615 235.596C180.871 235.41 181.167 235.316 181.468 235.326C181.883 235.355 182.272 235.573 182.55 235.932C182.829 236.291 182.976 236.764 182.96 237.248Z"
            fill="white" />
        <path
            d="M187.712 237.275C187.69 237.625 187.58 237.959 187.397 238.237C187.213 238.515 186.964 238.724 186.679 238.838C186.394 238.952 186.087 238.967 185.796 238.879C185.505 238.792 185.242 238.606 185.04 238.346C184.838 238.086 184.706 237.762 184.66 237.416C184.615 237.069 184.657 236.714 184.783 236.395C184.909 236.076 185.112 235.807 185.367 235.622C185.623 235.437 185.919 235.343 186.22 235.352C186.635 235.381 187.023 235.599 187.302 235.958C187.581 236.318 187.728 236.79 187.712 237.275Z"
            fill="white" />
        <path
            d="M192.464 237.292C192.443 237.642 192.335 237.978 192.152 238.257C191.969 238.536 191.72 238.747 191.436 238.862C191.151 238.978 190.844 238.993 190.552 238.906C190.26 238.82 189.996 238.635 189.794 238.375C189.591 238.115 189.458 237.792 189.412 237.444C189.366 237.097 189.408 236.742 189.534 236.423C189.659 236.103 189.863 235.834 190.118 235.648C190.374 235.463 190.671 235.369 190.972 235.378C191.385 235.407 191.773 235.624 192.052 235.981C192.33 236.339 192.478 236.809 192.464 237.292Z"
            fill="white" />
        <path
            d="M197.223 237.319C197.203 237.667 197.096 238.001 196.914 238.28C196.733 238.558 196.486 238.769 196.204 238.886C195.922 239.003 195.616 239.021 195.325 238.938C195.034 238.855 194.77 238.674 194.566 238.419C194.362 238.163 194.226 237.843 194.175 237.499C194.125 237.154 194.162 236.8 194.282 236.48C194.402 236.16 194.599 235.887 194.85 235.696C195.101 235.505 195.394 235.404 195.694 235.405C196.114 235.423 196.511 235.634 196.798 235.993C197.084 236.352 197.237 236.829 197.223 237.319Z"
            fill="white" />
        <path
            d="M201.975 237.345C201.99 237.59 201.961 237.836 201.891 238.068C201.82 238.3 201.71 238.512 201.566 238.692C201.422 238.872 201.248 239.015 201.055 239.113C200.862 239.211 200.653 239.262 200.442 239.262C200.231 239.262 200.023 239.211 199.829 239.113C199.636 239.015 199.462 238.872 199.318 238.692C199.175 238.512 199.064 238.3 198.994 238.068C198.923 237.836 198.895 237.59 198.909 237.345C198.895 237.099 198.923 236.853 198.994 236.622C199.064 236.39 199.175 236.177 199.318 235.998C199.462 235.818 199.636 235.674 199.829 235.576C200.023 235.478 200.231 235.428 200.442 235.428C200.653 235.428 200.862 235.478 201.055 235.576C201.248 235.674 201.422 235.818 201.566 235.998C201.71 236.177 201.82 236.39 201.891 236.622C201.961 236.853 201.99 237.099 201.975 237.345Z"
            fill="white" />
        <path
            d="M206.727 237.371C206.707 237.719 206.599 238.054 206.418 238.332C206.237 238.611 205.99 238.821 205.708 238.938C205.426 239.055 205.12 239.073 204.829 238.99C204.538 238.907 204.274 238.726 204.07 238.471C203.865 238.215 203.73 237.895 203.679 237.551C203.629 237.206 203.666 236.852 203.786 236.532C203.905 236.212 204.103 235.939 204.354 235.748C204.605 235.557 204.898 235.456 205.198 235.457C205.618 235.475 206.015 235.687 206.302 236.045C206.588 236.404 206.741 236.881 206.727 237.371Z"
            fill="white" />
        <path
            d="M211.479 237.397C211.458 237.747 211.35 238.083 211.167 238.362C210.984 238.641 210.735 238.852 210.451 238.967C210.166 239.083 209.859 239.098 209.567 239.011C209.275 238.925 209.011 238.74 208.809 238.48C208.606 238.22 208.474 237.896 208.427 237.549C208.381 237.202 208.423 236.847 208.549 236.528C208.675 236.208 208.878 235.939 209.133 235.753C209.389 235.568 209.686 235.474 209.987 235.483C210.401 235.512 210.788 235.729 211.067 236.086C211.345 236.444 211.493 236.914 211.479 237.397Z"
            fill="white" />
    </g>
    <path
        d="M204.728 111.804C205.246 111.538 205.686 111.1 205.992 110.544C206.299 109.989 206.458 109.341 206.451 108.68C206.47 108.251 206.415 107.822 206.287 107.419C206.159 107.015 205.963 106.647 205.709 106.335C205.455 106.023 205.15 105.775 204.811 105.605C204.473 105.435 204.108 105.348 203.739 105.348C203.371 105.348 203.006 105.435 202.667 105.605C202.329 105.775 202.023 106.023 201.77 106.335C201.516 106.647 201.319 107.015 201.192 107.419C201.064 107.822 201.008 108.251 201.028 108.68C201.016 109.347 201.175 110.003 201.483 110.565C201.791 111.127 202.235 111.57 202.758 111.839C198.581 112.569 198.767 117.859 198.767 117.859L208.644 117.911C208.644 117.911 208.876 112.526 204.728 111.804Z"
        fill="#322E29" />
    <path opacity="0.1"
        d="M204.728 111.804C205.246 111.538 205.686 111.1 205.992 110.544C206.299 109.989 206.458 109.341 206.451 108.68C206.47 108.251 206.415 107.822 206.287 107.419C206.159 107.015 205.963 106.647 205.709 106.335C205.455 106.023 205.15 105.775 204.811 105.605C204.473 105.435 204.108 105.348 203.739 105.348C203.371 105.348 203.006 105.435 202.667 105.605C202.329 105.775 202.023 106.023 201.77 106.335C201.516 106.647 201.319 107.015 201.192 107.419C201.064 107.822 201.008 108.251 201.028 108.68C201.016 109.347 201.175 110.003 201.483 110.565C201.791 111.127 202.235 111.57 202.758 111.839C198.581 112.569 198.767 117.859 198.767 117.859L208.644 117.911C208.644 117.911 208.876 112.526 204.728 111.804Z"
        fill="black" />
    <path d="M220.777 121.323L185.575 121.136L185.556 126.043L220.758 126.23L220.777 121.323Z"
        fill="#322E29" />
    <path opacity="0.2"
        d="M220.777 121.323L185.575 121.136L185.556 126.043L220.758 126.23L220.777 121.323Z"
        fill="white" />
    <path
        d="M91.3607 146.752H91.0101L89.9955 146.839C89.4465 146.877 88.9005 146.961 88.3618 147.091C88.0129 147.148 87.6668 147.226 87.3249 147.326L86.1686 147.7C84.2006 148.404 82.3437 149.477 80.6707 150.875C78.4603 152.747 76.6145 155.142 75.2549 157.905C74.4557 159.498 73.8198 161.194 73.3601 162.96C72.877 164.879 72.5989 166.86 72.532 168.858C72.4876 169.908 72.5025 170.96 72.5768 172.008C72.5768 172.538 72.7036 173.069 72.7633 173.609C72.8135 174.152 72.9008 174.69 73.0244 175.218C73.6952 178.709 75.0563 181.969 76.9991 184.738C78.9418 187.507 81.4126 189.708 84.2141 191.165C86.2418 192.186 88.4151 192.755 90.6221 192.844C92.9017 192.99 95.1835 192.609 97.336 191.722L97.9925 191.435H98.082L98.1566 191.487L107.563 197.055L107.287 197.333C106.28 193.697 105.311 190.173 104.371 186.789V186.659L104.453 186.563C106.735 183.882 108.429 180.6 109.391 176.993C110.263 173.696 110.517 170.218 110.137 166.796C109.799 163.755 108.961 160.819 107.668 158.149C106.554 155.855 105.116 153.796 103.416 152.059C102.013 150.684 100.46 149.531 98.7981 148.631C97.5405 147.998 96.2307 147.517 94.8892 147.195L93.3972 146.908L92.3155 146.813L91.6591 146.76H91.4353C91.5096 146.751 91.5847 146.751 91.6591 146.76H92.323L93.4047 146.813L94.8966 147.065C96.2549 147.363 97.5825 147.827 98.8578 148.448C100.548 149.338 102.129 150.488 103.558 151.867C105.289 153.597 106.757 155.656 107.899 157.957C109.229 160.656 110.093 163.632 110.443 166.718C110.855 170.193 110.618 173.73 109.749 177.089C108.78 180.77 107.06 184.123 104.736 186.859L104.781 186.632C105.721 190.017 106.698 193.54 107.713 197.168L107.854 197.699L107.429 197.447L98.0223 191.887H98.1864L97.515 192.174C95.321 193.075 92.997 193.465 90.6744 193.323C88.4198 193.223 86.201 192.633 84.1321 191.583C80.1856 189.612 76.9022 186.186 74.7849 181.83C73.8106 179.818 73.099 177.649 72.6738 175.392C72.5573 174.851 72.4701 174.302 72.4127 173.748C72.353 173.2 72.256 172.66 72.2336 172.121C72.0317 169.025 72.3123 165.913 73.0617 162.934C73.5328 161.144 74.1865 159.426 75.0087 157.818C76.4008 155.03 78.285 152.619 80.5364 150.745C82.237 149.343 84.125 148.278 86.1239 147.596L87.295 147.248C87.6398 147.154 87.9883 147.082 88.3394 147.03C88.8837 146.913 89.4348 146.843 89.9881 146.821L91.0101 146.778C91.1263 146.76 91.2434 146.751 91.3607 146.752Z"
        fill="#322E29" />
    <path
        d="M95.6128 167.04H94.2327L91.2488 162.151V158.94C91.2488 158.94 89.1153 158.784 89.3689 162.986C89.6225 167.188 89.3689 166.118 89.3689 166.118C89.3689 166.118 84.8408 166.118 84.4678 166.596C84.0948 167.075 84.0724 172.173 84.0202 175.018C83.9916 175.704 84.1603 176.381 84.4996 176.942C84.8388 177.503 85.3291 177.916 85.8926 178.115C86.0505 178.166 86.2136 178.192 86.3775 178.193C87.5114 178.193 93.2778 177.123 93.2778 177.123H95.6575L95.6128 167.04Z"
        fill="#322E29" />
    <path d="M99.559 166.179L98.7086 177.176H96.3513V166.405L99.559 166.179Z" fill="#322E29" />
    <path
        d="M127.675 390.056V382.617L116.239 382.522L116.142 393.771L116.851 393.832C120.006 394.067 132.905 394.415 135.023 393.649C137.38 392.796 127.675 390.056 127.675 390.056Z"
        fill="#322E29" />
    <path
        d="M135.292 392.953C135.292 393.075 131.01 393.179 125.736 393.179C120.461 393.179 116.18 393.075 116.18 392.953C116.18 392.831 120.461 392.727 125.736 392.727C131.01 392.727 135.292 392.831 135.292 392.953Z"
        fill="#263238" />
    <path
        d="M127.877 391.578C127.78 391.517 127.877 391.126 128.108 390.708C128.339 390.291 128.652 390.117 128.727 390.204C128.802 390.291 128.645 390.621 128.421 390.978C128.197 391.335 127.974 391.639 127.877 391.578Z"
        fill="#263238" />
    <path
        d="M128.608 392.065C128.503 392.065 128.555 391.578 128.779 391.117C129.003 390.656 129.301 390.378 129.383 390.447C129.466 390.517 129.331 390.908 129.122 391.317C128.913 391.726 128.705 392.109 128.608 392.065Z"
        fill="#263238" />
    <path
        d="M119.626 392.918C119.581 392.918 119.41 392.761 119.163 392.431C118.863 392.006 118.528 391.616 118.164 391.265C117.806 390.931 117.379 390.712 116.926 390.63C116.575 390.578 116.351 390.63 116.329 390.578C116.306 390.526 116.523 390.343 116.933 390.308C117.474 390.295 118.003 390.504 118.425 390.9C118.821 391.276 119.154 391.733 119.41 392.248C119.581 392.631 119.671 392.883 119.626 392.918Z"
        fill="#263238" />
    <path
        d="M127.914 390.178C127.966 390.282 127.772 390.543 127.444 390.682C127.116 390.821 126.825 390.769 126.81 390.682C126.795 390.595 127.026 390.413 127.31 390.291C127.593 390.169 127.854 390.073 127.914 390.178Z"
        fill="#263238" />
    <path
        d="M127.735 389.456C127.735 389.586 127.436 389.69 127.049 389.699C126.661 389.708 126.355 389.603 126.362 389.482C126.37 389.36 126.676 389.247 127.049 389.238C127.422 389.229 127.72 389.334 127.735 389.456Z"
        fill="#263238" />
    <path
        d="M155.836 390.056V382.617L144.4 382.522L144.303 393.658L145.012 393.719C148.167 393.953 161.073 394.415 163.184 393.649C165.541 392.796 155.836 390.056 155.836 390.056Z"
        fill="#322E29" />
    <path
        d="M163.453 392.97C163.453 393.092 159.178 393.197 153.897 393.197C148.615 393.197 144.348 393.092 144.348 392.97C144.348 392.849 148.622 392.744 153.897 392.744C159.171 392.744 163.453 392.849 163.453 392.97Z"
        fill="#263238" />
    <path
        d="M156.037 391.578C155.948 391.517 156.037 391.126 156.269 390.708C156.5 390.291 156.813 390.117 156.888 390.204C156.962 390.291 156.806 390.621 156.582 390.978C156.358 391.335 156.134 391.639 156.037 391.578Z"
        fill="#263238" />
    <path
        d="M156.769 392.065C156.672 392.065 156.716 391.578 156.948 391.117C157.179 390.656 157.47 390.378 157.552 390.447C157.634 390.517 157.492 390.908 157.283 391.317C157.074 391.726 156.873 392.109 156.769 392.065Z"
        fill="#263238" />
    <path
        d="M147.787 392.918C147.742 392.918 147.578 392.761 147.324 392.431C147.024 392.006 146.689 391.616 146.325 391.265C145.966 390.931 145.54 390.712 145.086 390.63C144.743 390.578 144.512 390.63 144.49 390.578C144.467 390.526 144.684 390.343 145.094 390.308C145.635 390.295 146.164 390.504 146.586 390.9C146.984 391.273 147.318 391.731 147.571 392.248C147.742 392.631 147.832 392.883 147.787 392.918Z"
        fill="#263238" />
    <path
        d="M156.075 390.178C156.127 390.282 155.933 390.543 155.605 390.682C155.277 390.821 154.986 390.769 154.971 390.682C154.956 390.595 155.187 390.413 155.471 390.291C155.754 390.169 156.015 390.073 156.075 390.178Z"
        fill="#263238" />
    <path
        d="M155.911 389.456C155.911 389.586 155.612 389.69 155.224 389.699C154.836 389.708 154.538 389.603 154.546 389.482C154.553 389.36 154.851 389.247 155.224 389.238C155.597 389.229 155.911 389.334 155.911 389.456Z"
        fill="#263238" />
    <path
        d="M197.969 169.163C197.671 168.806 196.932 168.98 196.932 168.98C197.006 168.479 197.006 167.967 196.932 167.466C196.798 166.979 195.858 167.075 195.858 167.075C195.815 166.665 195.815 166.25 195.858 165.839C195.866 165.748 195.849 165.657 195.81 165.578C195.771 165.498 195.713 165.435 195.642 165.396C195.197 165.184 194.719 165.084 194.239 165.1C193.665 164.621 195.992 160.82 196.858 159.602C197.723 158.384 197.566 157.435 196.798 157.435C196.268 157.435 193.553 161.089 192.718 162.316C191.882 163.543 189.666 166.953 189.592 164.23C189.517 161.507 188.577 159.454 187.988 159.106C187.399 158.758 186.772 159.575 187.093 160.332C187.375 161.192 187.55 162.094 187.615 163.012C187.696 163.743 187.668 164.484 187.533 165.204C187.286 166.544 186.949 167.859 186.526 169.137H186.466C186.466 169.137 170.189 187.346 169.01 188.642C167.958 189.808 146.802 187.259 142.558 186.737C141.115 186.491 139.659 186.374 138.201 186.389C136.358 186.485 136.03 186.789 134.195 186.815C129.561 186.875 124.937 187.349 120.365 188.233C118.294 188.644 116.36 189.71 114.774 191.314C113.187 192.919 112.009 195.001 111.368 197.333C107.093 212.906 97.4106 249.768 95.7023 270.474C94.4114 273.204 93.246 276.013 92.2111 278.887C91.01 282.698 91.301 282.828 91.7038 282.915C92.7929 283.15 94.0313 276.312 94.4938 277.965C94.9563 279.618 92.1439 286.117 93.2853 286.308C94.7773 286.552 95.9634 279.348 96.1051 278.774C96.2468 278.2 96.9854 278.383 96.8511 278.922C96.6348 279.688 94.5385 287.805 96.0007 288.066C96.8063 288.205 96.8958 286.491 96.8958 286.491C96.8958 286.491 98.3878 278.722 99.0667 278.879C99.7455 279.035 99.0219 283.62 98.6788 285.151C98.3356 286.682 98.813 287.457 99.5142 287.083C99.9917 286.822 101.133 282.167 101.446 280.653C101.76 279.14 102.543 274.946 103.595 277.373C104.647 279.801 106.243 281.21 106.899 281.245C107.047 281.225 107.187 281.154 107.3 281.041C107.413 280.928 107.494 280.778 107.534 280.61C107.573 280.443 107.568 280.265 107.52 280.101C107.473 279.937 107.384 279.793 107.265 279.688C106.7 279.045 106.216 278.312 105.825 277.513C105.477 276.89 105.225 276.201 105.079 275.477C104.779 274.034 104.604 272.559 104.557 271.075L104.438 270.205C106.109 260.556 110.92 232.238 117.865 214.151L120.715 220.989L121.953 226.052L114.359 247.915L146.75 247.419L141.916 225.722L147.787 203.102C154.135 203.267 170.435 203.545 173.15 202.11C176.567 200.37 194.239 174.339 194.239 174.339C195.391 173.295 196.494 172.18 197.544 170.999C197.544 170.999 198.618 169.946 197.969 169.163Z"
        fill="#FFBE9D" />
    <path
        d="M112.935 231.759C113.874 228.018 118.701 209.522 118.701 209.522C118.701 209.522 121.073 224.599 120.447 226.418C119.87 227.974 119.189 229.475 118.41 230.907C112.935 240.625 113.651 245.488 113.651 245.488L146.735 244.313C146.81 238.919 144.072 226.374 143.505 224.373C142.938 222.372 144.825 215.821 144.825 215.821C144.825 215.821 148.555 211.393 148.421 209.113C148.35 207.066 148.133 205.029 147.772 203.023L167.914 203.893L167.279 187.972L138.35 184.597C137.343 187.911 128.235 186.284 128.235 186.284C118.403 186.667 117.791 188.773 113.703 192.479C109.615 196.185 102.849 227.992 102.849 227.992L112.935 231.759Z"
        fill="#322E29" />
    <path
        d="M132.494 227.992C131.921 228.112 131.337 228.147 130.756 228.097C129.674 228.097 128.19 228.01 126.556 227.818C124.922 227.627 123.445 227.357 122.394 227.113C121.814 227.026 121.245 226.857 120.7 226.609C121.283 226.609 121.865 226.673 122.438 226.8C123.498 226.957 124.967 227.174 126.593 227.366C128.22 227.557 129.697 227.688 130.764 227.775C131.345 227.783 131.925 227.856 132.494 227.992Z"
        fill="#263238" />
    <path
        d="M134.762 224.712C134.188 225.04 133.582 225.283 132.957 225.434C129.981 226.346 126.91 226.771 123.833 226.696C123.197 226.72 122.56 226.65 121.939 226.487C122.567 226.395 123.2 226.357 123.833 226.374C125.005 226.331 126.616 226.235 128.391 225.991C130.167 225.748 131.748 225.4 132.867 225.121C133.489 224.928 134.122 224.791 134.762 224.712Z"
        fill="#263238" />
    <path
        d="M145.892 210.079C145.877 210.742 145.799 211.402 145.661 212.045C145.467 213.254 145.168 214.907 144.788 216.717C144.408 218.527 144.042 220.197 143.714 221.328C143.582 221.975 143.387 222.603 143.132 223.199C143.174 222.537 143.279 221.884 143.445 221.25C143.729 219.893 144.05 218.327 144.408 216.613C144.766 214.899 145.109 213.333 145.392 211.976C145.493 211.322 145.661 210.686 145.892 210.079Z"
        fill="#263238" />
    <path
        d="M113.285 229.541C111.559 229.23 109.856 228.768 108.19 228.158C106.488 227.693 104.817 227.083 103.192 226.331C104.917 226.646 106.62 227.109 108.287 227.714C109.99 228.176 111.661 228.787 113.285 229.541Z"
        fill="#263238" />
    <path
        d="M148.13 202.832C147.849 202.888 147.561 202.888 147.28 202.832C146.5 202.739 145.735 202.525 145.004 202.197C143.784 201.662 142.673 200.835 141.743 199.77C140.813 198.705 140.084 197.424 139.603 196.011C139.072 194.456 138.845 192.783 138.94 191.113C138.973 189.735 139.326 188.394 139.962 187.233C140.409 186.45 141.076 185.875 141.849 185.606C142.055 185.539 142.269 185.507 142.483 185.51C142.632 185.51 142.707 185.51 142.707 185.51C142.707 185.51 142.393 185.51 141.894 185.745C141.185 186.05 140.584 186.623 140.185 187.372C139.171 189.234 138.887 192.635 139.969 195.811C140.472 197.308 141.261 198.653 142.274 199.743C143.105 200.636 144.061 201.354 145.101 201.866C146.078 202.316 147.093 202.64 148.13 202.832Z"
        fill="#263238" />
    <path
        d="M165.519 203.58C165.332 200.912 165.273 198.234 165.34 195.559C165.281 192.885 165.351 190.21 165.549 187.546C165.736 190.211 165.795 192.886 165.728 195.559C165.791 198.235 165.721 200.913 165.519 203.58Z"
        fill="#263238" />
    <path
        d="M138.156 185.571C138.238 183.631 138.41 181.439 138.41 181.439C138.41 181.439 142.528 180.908 142.774 175.949C143.02 170.99 142.774 159.549 142.774 159.549L135.314 155.095L127.034 162.69L128.309 187.485L135.903 188.051C136.484 188.069 137.047 187.819 137.469 187.354C137.892 186.889 138.139 186.248 138.156 185.571Z"
        fill="#FFBE9D" />
    <path
        d="M138.895 172.025C138.895 172.025 138.895 172.121 138.828 172.234C138.772 172.316 138.7 172.381 138.618 172.423C138.537 172.466 138.447 172.484 138.358 172.478C137.88 172.478 137.418 171.834 137.254 171.086C137.176 170.723 137.176 170.343 137.254 169.981C137.269 169.822 137.318 169.671 137.396 169.54C137.474 169.41 137.579 169.304 137.701 169.232C137.802 169.184 137.914 169.184 138.014 169.232C138.089 169.275 138.149 169.346 138.186 169.433C138.238 169.58 138.186 169.676 138.186 169.667C138.186 169.659 138.186 169.58 138.111 169.493C138.072 169.431 138.015 169.388 137.95 169.372C137.886 169.356 137.818 169.368 137.761 169.406C137.669 169.471 137.593 169.561 137.54 169.669C137.486 169.777 137.457 169.899 137.455 170.024C137.392 170.348 137.392 170.684 137.455 171.007C137.604 171.686 138.007 172.234 138.365 172.286C138.435 172.297 138.506 172.291 138.574 172.269C138.642 172.246 138.706 172.208 138.76 172.156C138.85 172.086 138.88 172.016 138.895 172.025Z"
        fill="#EB996E" />
    <path
        d="M145.333 156.87C144.758 154.59 142.677 153.459 140.782 152.833C137.895 151.876 134.777 151.458 131.957 152.668C129.137 153.877 125.751 156 125.751 159.628C124.087 159.471 123.132 161.168 122.476 163.273C122.056 164.556 121.804 165.905 121.73 167.275C121.521 172.025 120.379 178.585 117.739 182.065C116.247 184.005 114.18 185.345 113.33 187.763C112.584 189.86 112.972 192.348 112.278 194.471C111.659 196.342 110.294 197.673 109.294 199.3C108.276 201.145 107.676 203.262 107.552 205.452C107.428 207.642 107.784 209.833 108.585 211.819C109.393 213.754 110.529 215.477 111.926 216.883C113.323 218.289 114.95 219.348 116.709 219.997C120.194 221.233 123.91 221.276 127.414 220.119C130.044 219.385 132.498 217.966 134.59 215.969C136.732 213.93 138.202 211.089 138.753 207.93C139.283 204.38 138.432 200.77 137.798 197.238C135.814 186.076 136.381 185.493 138.887 175.131C138.947 174.948 138.977 174.757 139.022 174.574C139.066 174.392 139.089 174.305 139.119 174.165C139.19 173.756 139.227 173.339 139.23 172.921C138.864 173.08 138.467 173.114 138.085 173.018C137.703 172.922 137.353 172.702 137.075 172.382C136.796 172.041 136.602 171.618 136.512 171.158C136.423 170.699 136.442 170.22 136.567 169.772C136.743 169.282 137.006 168.841 137.337 168.476C137.669 168.112 138.062 167.833 138.492 167.658C139.32 167.258 140.208 167.049 141.021 166.605C142.744 165.648 143.938 163.664 144.751 161.585C145.419 160.144 145.626 158.472 145.333 156.87Z"
        fill="#263238" />
    <path
        d="M139.193 172.26C139.351 172.532 139.481 172.824 139.581 173.13C139.805 173.678 140.103 174.452 140.431 175.349L140.491 175.514H140.334L139.589 175.592C139.074 175.592 138.641 175.705 138.134 175.697C138.09 175.685 138.049 175.661 138.015 175.626C137.981 175.591 137.955 175.546 137.94 175.496C137.918 175.417 137.918 175.332 137.94 175.253C137.957 175.136 137.98 175.019 138.007 174.905L138.141 174.287C138.209 173.875 138.314 173.473 138.455 173.087C138.441 173.507 138.388 173.924 138.298 174.331L138.194 174.948C138.156 175.157 138.089 175.479 138.194 175.453C138.567 175.453 139.096 175.357 139.589 175.322L140.334 175.244L140.238 175.436C139.917 174.566 139.648 173.748 139.492 173.182C139.354 172.893 139.254 172.583 139.193 172.26Z"
        fill="#322E29" />
    <path
        d="M113.651 245.488L146.735 244.313L161.133 309.859L158.484 385.045H140.991L143.132 311.46L130.338 265.829L132.308 387.959L114.628 388.264L112.77 273.467C112.688 270.274 111.793 263.079 112.129 259.913L113.651 245.488Z"
        fill="#263238" />
    <path
        d="M134.74 266.759C134.198 266.799 133.654 266.761 133.121 266.646C132.121 266.507 130.756 266.264 129.257 265.916C127.757 265.568 126.414 265.167 125.445 264.845C124.926 264.713 124.425 264.502 123.953 264.219C123.953 264.089 126.385 264.767 129.369 265.472C132.352 266.177 134.755 266.629 134.74 266.759Z"
        fill="#455A64" />
    <path
        d="M158.305 380.921C158.305 381.043 154.344 381.147 149.458 381.147C144.572 381.147 140.603 381.043 140.603 380.921C140.603 380.799 144.564 380.695 149.458 380.695C154.352 380.695 158.305 380.79 158.305 380.921Z"
        fill="#455A64" />
    <path
        d="M132.151 384.784C132.151 384.914 128.302 385.01 123.557 385.01C118.813 385.01 114.971 384.914 114.971 384.784C114.971 384.653 118.82 384.557 123.557 384.557C128.294 384.557 132.151 384.662 132.151 384.784Z"
        fill="#455A64" />
    <path
        d="M129.868 384.47C129.764 384.47 129.301 357.788 128.831 324.875C128.361 291.963 128.085 265.263 128.182 265.263C128.279 265.263 128.757 291.937 129.219 324.867C129.682 357.796 129.98 384.47 129.868 384.47Z"
        fill="#455A64" />
    <path
        d="M155.955 380.921C155.947 380.802 155.947 380.683 155.955 380.564V379.52C155.955 378.581 156.015 377.232 156.06 375.518C156.164 372.038 156.313 366.983 156.5 360.789C156.903 348.331 157.47 331.157 158.089 312.2C158.089 312.017 158.089 311.843 158.089 311.686V311.747C154.173 293.477 150.629 276.895 148.055 264.898L145.072 250.708C144.728 249.046 144.467 247.75 144.281 246.845C144.191 246.419 144.132 246.088 144.079 245.836C144.05 245.723 144.033 245.606 144.027 245.488C144.066 245.598 144.096 245.711 144.117 245.827C144.176 246.071 144.251 246.401 144.355 246.819C144.557 247.689 144.848 249.011 145.221 250.664C145.967 254.023 147.019 258.86 148.331 264.819C150.927 276.808 154.508 293.347 158.477 311.643V311.704C158.477 311.86 158.477 312.043 158.477 312.217C157.813 331.174 157.209 348.339 156.769 360.798C156.537 367.001 156.343 372.021 156.209 375.518C156.134 377.258 156.075 378.581 156.037 379.52C156.037 379.964 155.993 380.312 155.985 380.564C155.986 380.684 155.976 380.803 155.955 380.921Z"
        fill="#455A64" />
    <path
        d="M150.249 310.155C148.992 310.637 147.698 310.972 146.384 311.156C144.773 311.477 143.401 311.704 142.781 311.738V311.564C142.983 311.634 143.087 311.678 143.087 311.712C143.087 311.747 142.96 311.712 142.752 311.712H142.304L142.752 311.556C143.333 311.356 144.706 311.025 146.317 310.686C147.61 310.359 148.926 310.181 150.249 310.155Z"
        fill="#455A64" />
    <path
        d="M149.943 312.652C148.779 312.714 147.613 312.653 146.459 312.469C145.294 312.441 144.133 312.293 142.99 312.026C145.322 311.804 147.668 312.015 149.943 312.652Z"
        fill="#455A64" />
    <path opacity="0.2"
        d="M113.509 246.871C113.901 247.458 114.394 247.942 114.957 248.291C115.52 248.64 116.14 248.847 116.776 248.898C118.109 249.082 119.457 249.053 120.782 248.811C129.324 247.706 138.373 246.689 146.735 244.313C135.911 245.018 124.475 244.783 113.651 245.488L113.539 246.567"
        fill="black" />
    <g opacity="0.2">
        <path d="M124.661 264.663L130.764 292.277L130.338 265.829L124.661 264.663Z" fill="black" />
    </g>
</svg>
