<svg width="14" height="14" viewBox="0 0 14 14" fill="none" xmlns="http://www.w3.org/2000/svg">
    <path fill-rule="evenodd" clip-rule="evenodd"
        d="M12.5757 2.34433C11.7184 1.30414 10.5269 0.731445 9.21932 0.731445C8.43282 0.731445 7.67244 0.922559 7.00007 1.28693C6.32838 0.922559 5.56801 0.731445 4.78082 0.731445C3.4732 0.731445 2.28108 1.30414 1.42445 2.34433C0.492204 3.47595 0.105825 5.02145 0.389763 6.47826C1.06008 9.91301 4.55807 12.3124 6.03138 13.1842C6.33045 13.3608 6.66526 13.4495 7.00007 13.4495C7.33488 13.4495 7.67038 13.3615 7.96945 13.1842C9.44207 12.3117 12.9408 9.91301 13.6111 6.47826C13.8943 5.02145 13.5079 3.47595 12.5757 2.34433ZM5.73377 1.88617C5.715 1.88117 5.69619 1.87632 5.67732 1.87162C5.69052 1.87876 5.70369 1.88602 5.71681 1.8934C5.72245 1.89097 5.7281 1.88856 5.73377 1.88617Z"
        fill="#F01127" />
</svg>
