<svg width="16" height="14" viewBox="0 0 16 14" fill="none" xmlns="http://www.w3.org/2000/svg">
    <path fill-rule="evenodd" clip-rule="evenodd"
        d="M14.0827 1.82201C13.1474 0.687256 11.8477 0.0625 10.4212 0.0625C9.56318 0.0625 8.73369 0.270988 8.00019 0.668488C7.26744 0.270988 6.43794 0.0625 5.57919 0.0625C4.15269 0.0625 2.8522 0.687256 1.9177 1.82201C0.900697 3.05651 0.479193 4.74251 0.788943 6.33176C1.52019 10.0788 5.33619 12.6963 6.94344 13.6473C7.26969 13.84 7.63494 13.9368 8.00019 13.9368C8.36544 13.9368 8.73144 13.8408 9.05769 13.6473C10.6642 12.6955 14.4809 10.0788 15.2122 6.33176C15.5212 4.74251 15.0997 3.05651 14.0827 1.82201ZM6.61824 1.32205C6.59752 1.31654 6.57675 1.3112 6.55593 1.30602C6.57051 1.31388 6.58504 1.32189 6.59953 1.33004C6.60575 1.32736 6.61198 1.3247 6.61824 1.32205Z"
        fill="#0B042C" />
</svg>
