<svg width="16" height="14" viewBox="0 0 16 14" fill="none" xmlns="http://www.w3.org/2000/svg">
    <path
        d="M14.0824 1.82249C13.1472 0.687744 11.8474 0.0629883 10.4209 0.0629883C9.56294 0.0629883 8.73344 0.271476 7.99994 0.668976C7.26719 0.271476 6.43769 0.0629883 5.57894 0.0629883C4.15244 0.0629883 2.85195 0.687744 1.91745 1.82249C0.900453 3.05699 0.478949 4.74299 0.788699 6.33224C1.51995 10.0792 5.33594 12.6968 6.94319 13.6478C7.26944 13.8405 7.63469 13.9373 7.99994 13.9373C8.36519 13.9373 8.73119 13.8413 9.05744 13.6478C10.6639 12.696 14.4807 10.0792 15.2119 6.33224C15.5209 4.74299 15.0994 3.05699 14.0824 1.82249ZM14.1072 6.117C13.4637 9.41625 9.96043 11.8058 8.48368 12.6795C8.18593 12.8565 7.81395 12.8558 7.5162 12.6795C6.03945 11.8058 2.53619 9.41625 1.89269 6.117C1.64594 4.854 1.98044 3.51598 2.78519 2.53798C3.50294 1.66723 4.49444 1.18799 5.57894 1.18799C6.34244 1.18799 7.07445 1.39799 7.69695 1.79549C7.88145 1.91324 8.11843 1.91324 8.30294 1.79549C8.92544 1.39799 9.65744 1.18799 10.4209 1.18799C11.5047 1.18799 12.4969 1.66723 13.2147 2.53798C14.0194 3.51598 14.3532 4.85325 14.1072 6.117Z"
        fill="#0B042C" />
</svg>
