<svg width="25" height="25" viewBox="0 0 25 25" fill="none" xmlns="http://www.w3.org/2000/svg">
    <path
        d="M20.478 7.84327L15.478 3.82186C13.752 2.43438 11.248 2.43438 9.522 3.82186L4.522 7.84327C3.396 8.74858 2.75 10.096 2.75 11.5405V17.5346C2.75 20.1515 4.881 22.2812 7.5 22.2812H10.25V17.5346C10.25 16.2962 11.259 15.2879 12.5 15.2879C13.741 15.2879 14.75 16.2962 14.75 17.5346V22.2812H17.5C20.119 22.2812 22.25 20.1525 22.25 17.5346V11.5405C22.25 10.096 21.604 8.74858 20.478 7.84327ZM20.75 17.5346C20.75 19.3242 19.292 20.7807 17.5 20.7807H16.25V17.5346C16.25 15.4689 14.568 13.7873 12.5 13.7873C10.432 13.7873 8.75 15.4689 8.75 17.5346V20.7807H7.5C5.708 20.7807 4.25 19.3242 4.25 17.5346V11.5405C4.25 10.5532 4.691 9.6319 5.461 9.01268L10.461 4.99127C11.643 4.04194 13.357 4.04194 14.538 4.99127L19.538 9.01268C20.308 9.6319 20.749 10.5532 20.749 11.5405V17.5346H20.75Z"
        fill="#878787" />
</svg>
