<svg width="255" height="59" viewBox="0 0 255 59" fill="none" xmlns="http://www.w3.org/2000/svg">
    <rect width="255" height="59" fill="#0B042C" />
    <mask id="mask0_9_14755" style="mask-type:luminance" maskUnits="userSpaceOnUse" x="78" y="50"
        width="88" height="7">
        <path d="M78.4731 50.8663H165.506V57H78.4731V50.8663Z" fill="white" />
    </mask>
    <g mask="url(#mask0_9_14755)">
        <path
            d="M160.185 105.663C160.185 107.156 158.976 108.345 157.507 108.345H138.677C137.184 108.345 135.995 107.132 135.995 105.663V77.7431C135.995 73.2951 132.382 69.6829 127.93 69.6829H117.164C112.711 69.6829 109.099 73.2951 109.099 77.7431V105.663C109.099 107.156 107.89 108.345 106.422 108.345H87.52C86.0279 108.345 84.838 107.132 84.838 105.663V51.8531H79.4551V105.663C79.4551 110.116 83.0673 113.728 87.52 113.728H106.351C110.803 113.728 114.416 110.116 114.416 105.663V77.7431C114.416 76.2557 115.624 75.0658 117.093 75.0658H127.864C129.351 75.0658 130.541 76.2746 130.541 77.7431V105.663C130.541 110.116 134.153 113.728 138.606 113.728H157.437C161.889 113.728 165.501 110.116 165.501 105.663V51.8531H160.114L160.185 105.663Z"
            fill="white" />
    </g>
    <path
        d="M127.746 4.35603C124.691 1.74485 120.285 1.74485 117.235 4.35603L64.2368 49.8039L67.7357 53.8788L120.753 8.43572C121.777 7.57162 123.246 7.57162 124.252 8.43572L177.269 53.8788L180.763 49.8039L127.746 4.35603Z"
        fill="white" />
</svg>
