<svg width="20" height="20" viewBox="0 0 20 20" fill="none" xmlns="http://www.w3.org/2000/svg">
    <path
        d="M15.0003 1.66626H5.00033C3.15938 1.66626 1.66699 3.15864 1.66699 4.99959V14.9996C1.66699 16.8405 3.15938 18.3329 5.00033 18.3329H15.0003C16.8413 18.3329 18.3337 16.8405 18.3337 14.9996V4.99959C18.3337 3.15864 16.8413 1.66626 15.0003 1.66626Z"
        stroke="black" stroke-width="0.833333" stroke-linejoin="round" />
    <path
        d="M7.5 9.84043C7.5 9.46809 7.80184 9.16626 8.17418 9.16626C8.27884 9.16626 8.38208 9.19059 8.47567 9.23743L12.1273 11.0633C12.3558 11.1774 12.5 11.4109 12.5 11.6663C12.5 11.9216 12.3558 12.1551 12.1273 12.2693L8.47567 14.0951C8.38208 14.1419 8.27884 14.1663 8.17418 14.1663C7.80184 14.1663 7.5 13.8644 7.5 13.4921V9.84043Z"
        stroke="black" stroke-width="0.833333" stroke-linejoin="round" />
    <path
        d="M1.66699 6.66626H18.3337M6.66699 6.66626L8.33366 1.66626M11.667 6.66626L13.3337 1.66626"
        stroke="black" stroke-width="0.833333" stroke-linecap="round" stroke-linejoin="round" />
</svg>
