<svg width="20" height="20" viewBox="0 0 20 20" fill="none" xmlns="http://www.w3.org/2000/svg">
    <path
        d="M14.1667 2.70825H5.83333C3.65083 2.70825 1.875 4.48409 1.875 6.66659V13.3333C1.875 13.6441 1.91916 13.9424 1.9875 14.2324C1.9975 14.2716 2.00583 14.309 2.02333 14.3465C2.47416 16.0365 4.00333 17.2916 5.83333 17.2916H14.1667C16.3492 17.2916 18.125 15.5158 18.125 13.3333V6.66659C18.125 4.48409 16.3492 2.70825 14.1667 2.70825ZM5.83333 3.95825H14.1667C15.66 3.95825 16.875 5.17325 16.875 6.66659V10.9907L13.5333 7.64905C12.9633 7.07905 12.0358 7.07905 11.4667 7.64905L7.5 11.6157L6.86667 10.9824C6.29667 10.4124 5.36916 10.4124 4.8 10.9824L3.125 12.6574V6.66659C3.125 5.17325 4.34 3.95825 5.83333 3.95825ZM14.1667 16.0416H5.83333C4.66417 16.0416 3.67583 15.2933 3.29666 14.2533L5.68334 11.8666C5.78917 11.7607 5.87667 11.7607 5.9825 11.8666L6.76584 12.65C7.17 13.0541 7.82834 13.0541 8.23334 12.65L12.35 8.53324C12.4317 8.45158 12.5683 8.45158 12.6492 8.53324L16.8742 12.7583V13.3333C16.875 14.8266 15.66 16.0416 14.1667 16.0416ZM5.83333 7.49992C5.83333 7.03992 6.20667 6.66659 6.66667 6.66659C7.12667 6.66659 7.5 7.03992 7.5 7.49992C7.5 7.95992 7.12667 8.33325 6.66667 8.33325C6.20667 8.33325 5.83333 7.95992 5.83333 7.49992Z"
        fill="black" />
</svg>
