<svg width="30" height="32" viewBox="0 0 30 32" fill="none" xmlns="http://www.w3.org/2000/svg">
    <path
        d="M4.49909 32C2.12188 31.6585 0.256196 29.7655 0.0695496 27.3437C0.24292 23.7753 -0.15224 20.0018 0.0695496 16.4569C0.203092 14.3132 1.73219 12.4154 3.81341 11.8946C3.95242 11.8593 4.43349 11.7387 4.53111 11.7387H6.55767C6.6873 9.76343 6.29761 7.51479 6.76306 5.59667C8.20391 -0.353498 16.0907 -1.97634 19.8986 2.76609C22.0712 5.47214 21.441 8.49696 21.5214 11.7379H23.548C23.6628 11.7379 24.1852 11.8531 24.3281 11.893C25.7963 12.3074 25.459 14.4197 23.9869 14.3649C23.7362 14.3555 23.4519 14.249 23.177 14.2364C17.1668 13.9553 10.938 14.4526 4.90518 14.2404C3.66738 14.3508 2.75601 15.2437 2.57249 16.4663L2.56624 27.2153C2.73727 28.5029 3.66816 29.3997 4.96375 29.5007L20.7889 29.5133C22.1563 29.8649 22.1657 31.5622 20.835 32H4.49909ZM19.0278 6.89213C19.0278 6.43629 18.6639 5.46117 18.4367 5.04606C16.7444 1.95467 12.3351 1.6077 10.1133 4.33019C9.70333 4.83224 9.05123 6.12848 9.05123 6.76759V11.7395H19.0278V6.89213Z"
        fill="#0A4438" />
    <path
        d="M25.8244 32H25.3254C23.5808 31.5457 24.3438 28.9634 26.0103 29.5931C27.2005 30.0427 27.0068 31.6616 25.8244 32Z"
        fill="#0A4438" />
    <path
        d="M25.1263 16.3222C29.7214 15.8749 31.8549 21.9011 28.0017 24.4591C27.6925 24.6643 27.1848 24.8374 26.9826 25.1256C26.5406 25.7553 27.1622 26.8534 26.4812 27.5622C25.7307 28.3447 24.4461 27.8309 24.3274 26.7782C24.1595 25.2791 24.4781 23.7378 25.7674 22.8441C26.3 22.4744 26.8217 22.389 27.2083 21.7875C28.3711 19.979 26.0775 17.862 24.357 19.2405C23.4058 20.0025 23.8924 20.8993 23.3559 21.551C22.6288 22.4345 21.2184 21.9473 21.145 20.7764C21.0068 18.5598 22.9763 16.5305 25.1247 16.3214L25.1263 16.3222Z"
        fill="#0A4438" />
    <path
        d="M6.85365 20.3848C8.25545 20.1944 8.86771 22.0953 7.61897 22.7156C5.82279 23.6077 5.03013 20.6323 6.85365 20.3848Z"
        fill="#0A4438" />
    <path
        d="M11.5307 20.3848C12.9325 20.1944 13.5448 22.0953 12.2961 22.7156C10.4999 23.6077 9.70723 20.6323 11.5307 20.3848Z"
        fill="#0A4438" />
    <path
        d="M16.2071 20.3848C17.6089 20.1944 18.2211 22.0953 16.9724 22.7156C15.1762 23.6077 14.3835 20.6323 16.2071 20.3848Z"
        fill="#0A4438" />
</svg>
