<svg width="16" height="20" viewBox="0 0 16 20" fill="none" xmlns="http://www.w3.org/2000/svg">
    <path
        d="M8 4.25C5.932 4.25 4.25 5.932 4.25 8C4.25 10.068 5.932 11.75 8 11.75C10.068 11.75 11.75 10.068 11.75 8C11.75 5.932 10.068 4.25 8 4.25ZM8 10.25C6.759 10.25 5.75 9.241 5.75 8C5.75 6.759 6.759 5.75 8 5.75C9.241 5.75 10.25 6.759 10.25 8C10.25 9.241 9.241 10.25 8 10.25ZM7.996 0.25C3.58 0.25 0.25 3.582 0.25 8C0.25 14.208 4.986 18.076 7.021 19.45C7.317 19.65 7.656 19.75 7.996 19.75C8.334 19.75 8.67299 19.65 8.96899 19.451C11.008 18.074 15.75 14.201 15.75 7.99902C15.75 3.58102 12.417 0.25 7.996 0.25ZM8.13 18.208C8.047 18.264 7.94399 18.264 7.86099 18.208C6.42699 17.24 1.75 13.643 1.75 8C1.75 4.437 4.435 1.75 7.996 1.75C11.561 1.75 14.25 4.437 14.25 8C14.25 13.483 9.97001 16.966 8.13 18.208Z"
        fill="#290FA4" />
</svg>
