<svg width="129" height="131" viewBox="0 0 129 131" fill="none" xmlns="http://www.w3.org/2000/svg">
    <g clip-path="url(#clip0_217_15938)">
        <path
            d="M95.0187 55.4611C92.6501 49.881 94.8303 43.5107 99.8869 40.4821C100.724 39.9813 101.031 38.9144 100.651 38.0178L95.9057 26.8392C95.0422 24.8049 92.6951 23.8566 90.6608 24.7201L17.0204 55.9786C14.9861 56.8421 14.0378 59.1892 14.9013 61.2235L19.6463 72.4021C20.0277 73.3005 21.0081 73.8187 21.9496 73.5646C27.6419 72.0283 33.7378 74.8878 36.1064 80.4679C38.475 86.048 36.2947 92.4183 31.2381 95.4468C30.4013 95.9476 30.0937 97.0146 30.4743 97.9112L35.2193 109.09C36.0828 111.124 38.43 112.072 40.4643 111.209L114.105 79.9504C116.139 79.0869 117.087 76.7397 116.224 74.7054L111.479 63.5268C111.097 62.6284 110.117 62.1103 109.175 62.3644C103.483 63.9006 97.3873 61.0412 95.0187 55.4611Z"
            fill="#27FA86" />
        <path
            d="M110.985 72.5818L37.345 103.84C35.3126 104.703 32.9628 103.754 32.1001 101.721L35.2259 109.085C36.0887 111.118 38.4384 112.067 40.4709 111.204L114.111 79.9458C116.144 79.0831 117.093 76.7334 116.23 74.7009L113.105 67.3369C113.967 69.3693 113.018 71.7191 110.985 72.5818Z"
            fill="#0AAF68" />
        <path
            d="M39.1125 46.601L17.0204 55.9786C14.9861 56.8421 14.0378 59.1892 14.9013 61.2235L19.6463 72.4021C20.0277 73.3005 21.0081 73.8187 21.9496 73.5646C27.6419 72.0283 33.7378 74.8878 36.1064 80.4679C38.475 86.048 36.2947 92.4183 31.2381 95.4468C30.4013 95.9476 30.0937 97.0146 30.4743 97.9112L35.2193 109.09C36.0828 111.124 38.4299 112.072 40.4643 111.209L62.5564 101.831L39.1125 46.601Z"
            fill="#27FA86" />
        <path
            d="M32.1001 101.721L35.2259 109.085C36.0887 111.118 38.4384 112.067 40.4709 111.204L62.563 101.827L59.4372 94.4627L37.345 103.84C35.3126 104.703 32.9628 103.754 32.1001 101.721Z"
            fill="#0AAF68" />
        <path
            d="M100.919 42.1997C102.592 41.1981 103.27 39.0636 102.495 37.2373L97.7501 26.0587C96.4575 23.0136 92.9277 21.5875 89.8827 22.88L16.2423 54.1385C13.1972 55.4311 11.7711 58.9609 13.0636 62.0059L17.8087 73.1846C18.5839 75.0108 20.5902 76.006 22.4733 75.4978C27.2595 74.2071 32.3291 76.6809 34.2687 81.2503C36.2083 85.8197 34.4643 91.1857 30.2129 93.7312C28.5392 94.7328 27.8606 96.8655 28.6366 98.6936L33.3816 109.872C34.6742 112.917 38.204 114.343 41.2491 113.051L114.889 81.7923C117.934 80.4998 119.361 76.97 118.068 73.9249L113.323 62.7463C112.547 60.9182 110.541 59.9249 108.658 60.4331C103.872 61.7238 98.8026 59.25 96.863 54.6806C94.9234 50.1112 96.6666 44.7434 100.919 42.1997ZM93.181 56.2435C95.8966 62.641 102.998 66.1035 109.641 64.3092L114.386 75.4878C114.817 76.5022 114.341 77.6797 113.327 78.1103L63.6193 99.2098L61.7961 94.9147C61.3647 93.8985 60.1899 93.4238 59.1736 93.8552C58.1574 94.2865 57.6827 95.4614 58.1141 96.4777L59.9372 100.773L39.6861 109.369C38.6717 109.799 37.4942 109.324 37.0637 108.309L32.2681 97.1651C38.2239 93.5985 40.6671 86.0867 37.9507 79.6874C35.2343 73.288 28.1337 69.8274 21.4907 71.6216L16.7456 60.443C16.3143 59.4268 16.7908 58.2511 17.8052 57.8205L38.0563 49.2245L39.8794 53.5195C40.3108 54.5358 41.4857 55.0104 42.5019 54.5791C43.5182 54.1477 43.9928 52.9728 43.5615 51.9566L41.7383 47.6615L91.4456 26.5621C92.46 26.1315 93.6367 26.6054 94.068 27.6216L98.8644 38.7676C92.9078 42.3324 90.4654 49.846 93.181 56.2435Z"
            fill="#08105E" />
        <path
            d="M44.1286 58.4202C43.1124 58.8516 42.6377 60.0264 43.0691 61.0427L44.8922 65.3377C45.3236 66.354 46.4984 66.8287 47.5147 66.3973C48.5309 65.9659 49.0056 64.7911 48.5742 63.7748L46.7511 59.4797C46.3197 58.4635 45.1448 57.9888 44.1286 58.4202ZM49.1425 70.2321C48.1262 70.6635 47.6516 71.8384 48.0829 72.8546L49.9061 77.1497C50.3374 78.1659 51.5123 78.6406 52.5285 78.2092C53.5448 77.7778 54.0195 76.603 53.5881 75.5867L51.7649 71.2917C51.3336 70.2754 50.1587 69.8007 49.1425 70.2321ZM54.1571 82.0459C53.1409 82.4772 52.6662 83.6521 53.0976 84.6683L54.9207 88.9634C55.3521 89.9797 56.527 90.4543 57.5432 90.023C58.5594 89.5916 59.0341 88.4167 58.6027 87.4005L56.7796 83.1054C56.3482 82.0892 55.1733 81.6145 54.1571 82.0459Z"
            fill="#08105E" />
        <path
            d="M69.5771 57.9981L69.5463 58.9478L70.4932 59.027L77.1699 59.5856L78.14 59.6668L78.2471 58.6992L83.5444 10.8751L83.6472 9.9467L82.728 9.78091L72.3479 7.90894L71.2085 7.70346L71.1709 8.86065L69.5771 57.9981ZM67.9372 69.2006L67.934 69.2248L67.932 69.2491C67.7973 70.8585 68.0741 72.2827 68.9536 73.3474C69.837 74.4168 71.1755 74.9393 72.7633 75.0721C74.2912 75.2 75.6509 74.9079 76.6643 74.0088C77.6685 73.1178 78.156 71.7862 78.2874 70.2158L78.2875 70.2154L78.2875 70.215L78.2875 70.2147L78.2876 70.2143L78.2876 70.2139L78.2876 70.2135L78.2877 70.2131L78.2877 70.2127L78.2877 70.2123L78.2878 70.2119L78.2878 70.2115L78.2878 70.2111L78.2879 70.2108L78.2879 70.2104L78.2879 70.21L78.288 70.2096L78.288 70.2092L78.288 70.2088L78.2881 70.2084L78.2881 70.208L78.2881 70.2076L78.2882 70.2073L78.2882 70.2069L78.2882 70.2065L78.2883 70.2061L78.2883 70.2057L78.2883 70.2053L78.2883 70.2049L78.2884 70.2045L78.2884 70.2041L78.2884 70.2038L78.2885 70.2034L78.2885 70.203L78.2885 70.2026L78.2886 70.2022L78.2886 70.2018L78.2886 70.2014L78.2887 70.201L78.2887 70.2006L78.2887 70.2002L78.2888 70.1999L78.2888 70.1995L78.2888 70.1991L78.2889 70.1987L78.2889 70.1983L78.2889 70.1979L78.289 70.1975L78.289 70.1971L78.289 70.1967L78.2891 70.1964L78.2891 70.196L78.2891 70.1956L78.2892 70.1952L78.2892 70.1948L78.2892 70.1944L78.2893 70.194L78.2893 70.1936L78.2893 70.1932L78.2894 70.1929L78.2894 70.1925L78.2894 70.1921L78.2895 70.1917L78.2895 70.1913L78.2895 70.1909L78.2896 70.1905L78.2896 70.1901L78.2896 70.1897L78.2897 70.1894L78.2897 70.189L78.2897 70.1886L78.2897 70.1882L78.2898 70.1878L78.2898 70.1874L78.2898 70.187L78.2899 70.1866L78.2899 70.1862L78.2899 70.1858L78.29 70.1855L78.29 70.1851L78.29 70.1847L78.2901 70.1843L78.2901 70.1839L78.2901 70.1835L78.2902 70.1831L78.2902 70.1827L78.2902 70.1823L78.2903 70.182L78.2903 70.1816L78.2903 70.1812L78.2904 70.1808L78.2904 70.1804L78.2904 70.18L78.2905 70.1796L78.2905 70.1792L78.2905 70.1788L78.2906 70.1785L78.2906 70.1781L78.2906 70.1777L78.2907 70.1773L78.2907 70.1769L78.2907 70.1765L78.2908 70.1761L78.2908 70.1757L78.2908 70.1753L78.2909 70.1749L78.2909 70.1746L78.2909 70.1742L78.291 70.1738L78.291 70.1734L78.291 70.173L78.2911 70.1726L78.2911 70.1722L78.2911 70.1718L78.2911 70.1714L78.2912 70.1711L78.2912 70.1707L78.2912 70.1703L78.2913 70.1699L78.2913 70.1695L78.2913 70.1691L78.2914 70.1687L78.2914 70.1683L78.2914 70.1679L78.2915 70.1676L78.2915 70.1672L78.2915 70.1668L78.2916 70.1664L78.2916 70.166L78.2916 70.1656L78.2917 70.1652L78.2917 70.1648L78.2917 70.1644L78.2918 70.164L78.2918 70.1637L78.2918 70.1633L78.2919 70.1629L78.2919 70.1625L78.2919 70.1621L78.292 70.1617L78.292 70.1613L78.292 70.1609L78.2921 70.1605L78.2921 70.1602L78.2921 70.1598L78.2922 70.1594L78.2922 70.159L78.2922 70.1586L78.2923 70.1582L78.2923 70.1578L78.2923 70.1574L78.2924 70.157L78.2924 70.1567L78.2924 70.1563L78.2925 70.1559L78.2925 70.1555L78.2925 70.1551L78.2925 70.1547L78.2926 70.1543L78.2926 70.1539L78.2926 70.1535L78.2927 70.1532L78.2927 70.1528L78.2927 70.1524L78.2928 70.152L78.2928 70.1516L78.2928 70.1512L78.2929 70.1508L78.2929 70.1504L78.2929 70.15L78.293 70.1496L78.293 70.1493L78.293 70.1489L78.2931 70.1485L78.2931 70.1481L78.2931 70.1477L78.2932 70.1473L78.2932 70.1469L78.2932 70.1465L78.2933 70.1461L78.2933 70.1458L78.2933 70.1454L78.2934 70.145L78.2934 70.1446L78.2934 70.1442L78.2935 70.1438L78.2935 70.1434L78.2935 70.143L78.2936 70.1426L78.2936 70.1423L78.2936 70.1419L78.2937 70.1415L78.2937 70.1411L78.2937 70.1407L78.2938 70.1403L78.2938 70.1399L78.2938 70.1395L78.2939 70.1391L78.2939 70.1387L78.2939 70.1384L78.294 70.138L78.294 70.1376L78.294 70.1372L78.294 70.1368L78.2941 70.1364L78.2941 70.136L78.2941 70.1356L78.2942 70.1352L78.2942 70.1349L78.2942 70.1345L78.2943 70.1341L78.2943 70.1337L78.2943 70.1333L78.2944 70.1329L78.2944 70.1325L78.2944 70.1321L78.2945 70.1317L78.2945 70.1314L78.2945 70.131L78.2946 70.1306L78.2946 70.1302L78.2946 70.1298L78.2947 70.1294L78.2947 70.129L78.2947 70.1286L78.2948 70.1282L78.2948 70.1278L78.2948 70.1275L78.2949 70.1271L78.2949 70.1267L78.2949 70.1263L78.295 70.1259L78.295 70.1255L78.295 70.1251L78.2951 70.1247L78.2951 70.1243L78.2951 70.124L78.2952 70.1236L78.2952 70.1232L78.2952 70.1228L78.2953 70.1224L78.2953 70.122L78.2953 70.1216L78.2954 70.1212L78.2954 70.1208L78.2954 70.1205L78.2954 70.1201L78.2955 70.1197L78.2955 70.1193L78.2955 70.1189L78.2956 70.1185L78.2956 70.1181L78.2956 70.1177L78.2957 70.1173L78.2957 70.1169L78.2957 70.1166L78.2958 70.1162L78.2958 70.1158L78.2958 70.1154L78.2959 70.115L78.2959 70.1146L78.2959 70.1142L78.296 70.1138L78.296 70.1134L78.296 70.1131L78.2961 70.1127L78.2961 70.1123L78.2961 70.1119L78.2962 70.1115L78.2962 70.1111L78.2962 70.1107L78.2963 70.1103L78.2963 70.1099L78.2963 70.1096L78.2964 70.1092L78.2964 70.1088L78.2964 70.1084L78.2965 70.108L78.2965 70.1076L78.2965 70.1072L78.2966 70.1068L78.2966 70.1064L78.2966 70.1061L78.2967 70.1057L78.2967 70.1053L78.2967 70.1049L78.2968 70.1045L78.2968 70.1041L78.2968 70.1037L78.2968 70.1033L78.2969 70.1029L78.2969 70.1025L78.2969 70.1022L78.297 70.1018L78.297 70.1014L78.297 70.101L78.2971 70.1006L78.2971 70.1002L78.2971 70.0998L78.2972 70.0994L78.2972 70.099L78.2972 70.0987L78.2973 70.0983L78.2973 70.0979L78.2973 70.0975L78.2974 70.0971L78.2974 70.0967L78.2974 70.0963L78.2975 70.0959L78.2975 70.0955L78.2975 70.0951L78.2976 70.0948L78.2976 70.0944L78.2976 70.094L78.2977 70.0936L78.2977 70.0932L78.2977 70.0928L78.2978 70.0924L78.2978 70.092L78.2978 70.0916L78.2979 70.0913L78.2979 70.0909L78.2979 70.0905L78.298 70.0901L78.298 70.0897L78.298 70.0893L78.2981 70.0889L78.2981 70.0885L78.2981 70.0881L78.2982 70.0878L78.2982 70.0874L78.2982 70.087L78.2982 70.0866L78.2983 70.0862L78.2983 70.0858L78.2983 70.0854L78.2984 70.085L78.2984 70.0846L78.2984 70.0842L78.2985 70.0839L78.2985 70.0835L78.2985 70.0831L78.2986 70.0827L78.2986 70.0823L78.2986 70.0819L78.2987 70.0815L78.2987 70.0811L78.2987 70.0807L78.2988 70.0804L78.2988 70.08L78.2988 70.0796L78.2989 70.0792L78.2989 70.0788L78.2989 70.0784L78.299 70.078L78.299 70.0776L78.299 70.0772L78.2991 70.0769L78.2991 70.0765L78.2991 70.0761L78.2992 70.0757L78.2992 70.0753L78.2992 70.0749L78.2993 70.0745L78.2993 70.0741L78.2993 70.0737L78.2994 70.0734L78.2994 70.073L78.2994 70.0726L78.2995 70.0722L78.2995 70.0718L78.2995 70.0714L78.2996 70.071L78.2996 70.0706L78.2996 70.0702L78.2996 70.0698L78.2997 70.0695L78.2997 70.0691L78.2997 70.0687L78.2998 70.0683L78.2998 70.0679L78.2998 70.0675L78.2999 70.0671L78.2999 70.0667L78.2999 70.0663L78.3 70.066L78.3 70.0656L78.3 70.0652L78.3001 70.0648L78.3001 70.0644L78.3001 70.064L78.3002 70.0636L78.3002 70.0632L78.3002 70.0628L78.3003 70.0625L78.3003 70.0621L78.3003 70.0617L78.3004 70.0613L78.3004 70.0609L78.3004 70.0605L78.3005 70.0601L78.3005 70.0597L78.3005 70.0593L78.3006 70.0589L78.3006 70.0586L78.3006 70.0582L78.3007 70.0578L78.3007 70.0574L78.3007 70.057L78.3008 70.0566L78.3008 70.0562L78.3008 70.0558L78.3009 70.0554L78.3009 70.0551L78.3009 70.0547L78.301 70.0543L78.301 70.0539L78.301 70.0535L78.3011 70.0531L78.3011 70.0527L78.3011 70.0523L78.3011 70.0519L78.3012 70.0516L78.3012 70.0512L78.3012 70.0508L78.3013 70.0504L78.3013 70.05L78.3013 70.0496L78.3014 70.0492L78.3014 70.0488L78.3014 70.0484L78.3015 70.048L78.3015 70.0477L78.3015 70.0473L78.3016 70.0469L78.3016 70.0465L78.3016 70.0461L78.3017 70.0457L78.3017 70.0453L78.3017 70.0449L78.3018 70.0445L78.3018 70.0442L78.3018 70.0438L78.3019 70.0434L78.3019 70.043L78.3019 70.0426L78.302 70.0422L78.302 70.0418L78.302 70.0414L78.3021 70.041L78.3021 70.0407L78.3021 70.0403L78.3022 70.0399L78.3022 70.0395L78.3022 70.0391L78.3023 70.0387L78.3023 70.0383L78.3023 70.0379L78.3024 70.0375L78.3024 70.0371L78.3024 70.0368L78.3025 70.0364L78.3025 70.036L78.3025 70.0356L78.3025 70.0352L78.3026 70.0348L78.3026 70.0344L78.3026 70.034L78.3027 70.0336L78.3027 70.0333L78.3027 70.0329L78.3028 70.0325L78.3028 70.0321L78.3028 70.0317L78.3029 70.0313L78.3029 70.0309L78.3029 70.0305L78.303 70.0301L78.303 70.0298L78.303 70.0294L78.3031 70.029L78.3031 70.0286L78.3031 70.0282L78.3032 70.0278L78.3032 70.0274L78.3032 70.027L78.3033 70.0266L78.3033 70.0263L78.3033 70.0259L78.3034 70.0255L78.3034 70.0251L78.3034 70.0247L78.3035 70.0243L78.3035 70.0239L78.3035 70.0235L78.3036 70.0231L78.3036 70.0227L78.3036 70.0224L78.3037 70.022L78.3037 70.0216L78.3037 70.0212L78.3038 70.0208L78.3038 70.0204L78.3038 70.02L78.3039 70.0196L78.3039 70.0192L78.3039 70.0189L78.3039 70.0185L78.304 70.0181L78.304 70.0177L78.304 70.0173L78.3041 70.0169L78.3041 70.0165C78.4287 68.5279 78.1543 67.1978 77.2919 66.2031C76.4336 65.2132 75.1482 64.735 73.6388 64.6087C72.1194 64.4816 70.7654 64.752 69.7285 65.5873C68.6917 66.4225 68.1384 67.6882 67.9372 69.2006Z"
            fill="#08105E" stroke="white" stroke-width="2" />
    </g>
    <defs>
        <clipPath id="clip0_217_15938">
            <rect width="96" height="101.458" fill="white"
                transform="translate(0.494629 37.5103) rotate(-23)" />
        </clipPath>
    </defs>
</svg>
