<svg width="30" height="30" viewBox="0 0 30 30" fill="none" xmlns="http://www.w3.org/2000/svg">
    <path
        d="M25.5684 19.5587L24.1859 17.2513C23.6909 16.4263 23.4309 15.4824 23.4309 14.5212V11.2375C23.4309 6.59249 19.6484 2.8125 14.9997 2.8125C10.3509 2.8125 6.56842 6.59124 6.56842 11.2375V14.5212C6.56842 15.4824 6.30717 16.4263 5.81342 17.2513L4.43093 19.5587C3.94968 20.36 3.93843 21.325 4.39843 22.1375C4.85968 22.9525 5.69342 23.4387 6.62967 23.4387H11.6047C11.5947 23.5437 11.5634 23.645 11.5634 23.7512C11.5634 25.6475 13.1047 27.1887 15.0009 27.1887C16.8972 27.1887 18.4384 25.6475 18.4384 23.7512C18.4384 23.645 18.4072 23.5437 18.3972 23.4387H23.3722C24.3084 23.4387 25.1434 22.9524 25.6034 22.1387C26.0622 21.3249 26.0497 20.36 25.5684 19.5587ZM16.5609 23.7512C16.5609 24.6125 15.8597 25.3137 14.9984 25.3137C14.1372 25.3137 13.4359 24.6125 13.4359 23.7512C13.4359 23.645 13.4559 23.5412 13.4772 23.4387H16.5197C16.5409 23.5412 16.5609 23.645 16.5609 23.7512ZM23.9697 21.2137C23.9097 21.3187 23.7334 21.5625 23.3697 21.5625H6.62717C6.26467 21.5625 6.08717 21.3187 6.02717 21.2137C5.96842 21.1087 5.84968 20.8325 6.03593 20.5225L7.41843 18.215C8.08843 17.0988 8.44092 15.8212 8.44092 14.5212V11.2375C8.44092 7.62624 11.3822 4.6875 14.9972 4.6875C18.6122 4.6875 21.5534 7.62624 21.5534 11.2375V14.5212C21.5534 15.8212 21.9072 17.0988 22.5759 18.215L23.9584 20.5225C24.1459 20.8325 24.0284 21.1087 23.9697 21.2137Z"
        fill="black" />
</svg>
