<svg width="20" height="20" viewBox="0 0 20 20" fill="none" xmlns="http://www.w3.org/2000/svg">
    <path
        d="M17.0693 2.93199C16.3885 2.25032 15.4827 1.87537 14.5177 1.87537C13.5543 1.87537 12.6485 2.25032 11.966 2.93199L3.18847 11.7096C2.84847 12.0487 2.62682 12.4795 2.54766 12.9537L1.88934 16.902C1.83351 17.2362 1.94267 17.5779 2.18267 17.817C2.381 18.0154 2.64931 18.1246 2.92597 18.1246C2.98264 18.1246 3.04102 18.1204 3.09768 18.1104L7.04681 17.452C7.52014 17.3737 7.95015 17.152 8.29015 16.812L17.0677 8.03453C17.7493 7.35286 18.1251 6.44702 18.1251 5.48285C18.1251 4.51868 17.7518 3.61365 17.0693 2.93199ZM7.4085 15.9287C7.2535 16.0837 7.05851 16.1837 6.84351 16.2195L3.17016 16.8312L3.78184 13.1587C3.81767 12.9429 3.9185 12.7479 4.07267 12.5938L10.8085 5.85791L14.1435 9.19287L7.4085 15.9287ZM16.186 7.15125L15.0277 8.30949L11.6927 4.97453L12.851 3.81618C13.2968 3.37118 13.8885 3.12537 14.5185 3.12537C15.1485 3.12537 15.741 3.37035 16.186 3.81618C16.631 4.26202 16.8768 4.85366 16.8768 5.48366C16.8768 6.11366 16.631 6.70541 16.186 7.15125Z"
        fill="#0B042C" />
</svg>
