<svg width="24" height="25" viewBox="0 0 24 25" fill="none" xmlns="http://www.w3.org/2000/svg">
    <mask id="path-1-inside-1_1_4245" fill="white">
        <path
            d="M2 7.61395C2 6.40896 2.97683 5.43213 4.18182 5.43213H19.8182C21.0232 5.43213 22 6.40896 22 7.61395V13.8468H2V7.61395Z" />
    </mask>
    <path
        d="M0.5 7.61395C0.5 5.58053 2.14841 3.93213 4.18182 3.93213H19.8182C21.8516 3.93213 23.5 5.58053 23.5 7.61395H20.5C20.5 7.23739 20.1947 6.93213 19.8182 6.93213H4.18182C3.80526 6.93213 3.5 7.23739 3.5 7.61395H0.5ZM22 13.8468H2H22ZM0.5 13.8468V7.61395C0.5 5.58053 2.14841 3.93213 4.18182 3.93213V6.93213C3.80526 6.93213 3.5 7.23739 3.5 7.61395V13.8468H0.5ZM19.8182 3.93213C21.8516 3.93213 23.5 5.58053 23.5 7.61395V13.8468H20.5V7.61395C20.5 7.23739 20.1947 6.93213 19.8182 6.93213V3.93213Z"
        fill="#878787" mask="url(#path-1-inside-1_1_4245)" />
    <rect x="4.55664" y="8.26172" width="4.34091" height="4.34091" rx="2.17045" stroke="#878787"
        stroke-width="0.75" />
    <rect x="11.1021" y="10.0801" width="8.34091" height="1.06818" rx="0.534091" stroke="#878787"
        stroke-width="0.75" />
    <path
        d="M2.75 14.5967H21.25V18.2502C21.25 19.041 20.609 19.682 19.8182 19.682H4.18182C3.39105 19.682 2.75 19.041 2.75 18.2502V14.5967Z"
        stroke="#878787" stroke-width="1.5" />
</svg>
