<svg width="20" height="20" viewBox="0 0 20 20" fill="none" xmlns="http://www.w3.org/2000/svg">
    <path
        d="M19.5302 18.469L14.8362 13.775C16.0302 12.344 16.7502 10.505 16.7502 8.5C16.7502 3.951 13.0492 0.25 8.50024 0.25C3.95124 0.25 0.250244 3.951 0.250244 8.5C0.250244 13.049 3.95124 16.75 8.50024 16.75C10.5052 16.75 12.3442 16.0301 13.7752 14.8361L18.4692 19.53C18.6152 19.676 18.8072 19.75 18.9992 19.75C19.1912 19.75 19.3832 19.677 19.5292 19.53C19.8232 19.237 19.8232 18.762 19.5302 18.469ZM1.75024 8.5C1.75024 4.778 4.77824 1.75 8.50024 1.75C12.2222 1.75 15.2502 4.778 15.2502 8.5C15.2502 12.222 12.2222 15.25 8.50024 15.25C4.77824 15.25 1.75024 12.222 1.75024 8.5Z"
        fill="#808080" />
</svg>
