<svg width="20" height="20" viewBox="0 0 20 20" fill="none" xmlns="http://www.w3.org/2000/svg">
    <path
        d="M10 13.75C9.25832 13.75 8.5333 13.5301 7.91661 13.118C7.29993 12.706 6.81928 12.1203 6.53545 11.4351C6.25162 10.7498 6.17736 9.99584 6.32205 9.26841C6.46675 8.54098 6.8239 7.8728 7.34835 7.34835C7.8728 6.8239 8.54098 6.46675 9.26841 6.32205C9.99584 6.17736 10.7498 6.25162 11.4351 6.53545C12.1203 6.81928 12.706 7.29993 13.118 7.91661C13.5301 8.5333 13.75 9.25832 13.75 10C13.7489 10.9942 13.3535 11.9474 12.6505 12.6505C11.9474 13.3535 10.9942 13.7489 10 13.75ZM10 7.75C9.55499 7.75 9.11998 7.88196 8.74997 8.12919C8.37996 8.37643 8.09157 8.72783 7.92127 9.13896C7.75097 9.5501 7.70642 10.0025 7.79323 10.439C7.88005 10.8754 8.09434 11.2763 8.40901 11.591C8.72368 11.9057 9.12459 12.12 9.56105 12.2068C9.9975 12.2936 10.4499 12.249 10.861 12.0787C11.2722 11.9084 11.6236 11.62 11.8708 11.25C12.118 10.88 12.25 10.445 12.25 10C12.2495 9.40343 12.0122 8.83144 11.5904 8.40959C11.1686 7.98775 10.5966 7.75053 10 7.75ZM10.5 19.75H9.5C8.90343 19.7495 8.33144 19.5122 7.90959 19.0904C7.48775 18.6686 7.25053 18.0966 7.25 17.5C7.25126 17.4279 7.231 17.357 7.19182 17.2965C7.15264 17.2359 7.0963 17.1884 7.03 17.16H7.022C6.96161 17.135 6.89515 17.1285 6.83106 17.1413C6.76697 17.1541 6.70813 17.1857 6.662 17.232C6.23683 17.6524 5.66416 17.8899 5.06627 17.8938C4.46839 17.8977 3.89265 17.6678 3.462 17.253L2.762 16.547C2.55243 16.3379 2.38617 16.0895 2.27273 15.8161C2.15929 15.5427 2.10089 15.2495 2.10089 14.9535C2.10089 14.6575 2.15929 14.3643 2.27273 14.0909C2.38617 13.8175 2.55243 13.5691 2.762 13.36C2.81163 13.3091 2.84534 13.2448 2.85902 13.175C2.87269 13.1052 2.86574 13.0329 2.839 12.967C2.81457 12.9047 2.77214 12.851 2.71711 12.8129C2.66207 12.7748 2.59694 12.7539 2.53 12.753C2.23205 12.7559 1.93647 12.6998 1.6603 12.5879C1.38413 12.4761 1.13283 12.3107 0.920886 12.1012C0.708942 11.8918 0.540545 11.6425 0.425401 11.3677C0.310258 11.0929 0.250646 10.798 0.25 10.5V9.5C0.25053 8.90343 0.487752 8.33144 0.909595 7.90959C1.33144 7.48775 1.90343 7.25053 2.5 7.25C2.57203 7.25146 2.64285 7.23128 2.70328 7.19206C2.76372 7.15284 2.811 7.09638 2.839 7.03V7.022C2.86373 6.96156 2.87009 6.89518 2.85729 6.83114C2.84448 6.76711 2.81308 6.70827 2.767 6.662C2.55398 6.45414 2.38431 6.20608 2.26783 5.93219C2.15135 5.65829 2.09036 5.36401 2.08841 5.06638C2.08646 4.76876 2.14357 4.4737 2.25645 4.1983C2.36933 3.92291 2.53572 3.67264 2.746 3.462L3.455 2.753C3.88315 2.34288 4.45312 2.11394 5.046 2.11394C5.63888 2.11394 6.20886 2.34288 6.637 2.753C6.68753 2.80554 6.7526 2.84179 6.82386 2.85711C6.89513 2.87243 6.96934 2.86613 7.037 2.839C7.09903 2.81466 7.15236 2.77233 7.19014 2.71745C7.22792 2.66256 7.24842 2.59763 7.249 2.531C7.24596 2.23313 7.3019 1.93761 7.41357 1.66145C7.52525 1.3853 7.69047 1.13397 7.8997 0.921946C8.10894 0.709922 8.35806 0.541394 8.63271 0.426071C8.90736 0.310747 9.20212 0.250908 9.5 0.25H10.5C11.0966 0.25053 11.6686 0.487752 12.0904 0.909595C12.5122 1.33144 12.7495 1.90343 12.75 2.5C12.7464 2.57038 12.7647 2.64014 12.8023 2.69975C12.8399 2.75935 12.895 2.80589 12.96 2.833C13.0232 2.85994 13.0928 2.86833 13.1607 2.85717C13.2285 2.84601 13.2917 2.81578 13.343 2.77C13.5519 2.55592 13.8015 2.38581 14.0771 2.26971C14.3528 2.15361 14.6489 2.09387 14.948 2.094C15.2436 2.09318 15.5364 2.151 15.8095 2.26411C16.0826 2.37723 16.3306 2.5434 16.539 2.753L17.245 3.453C17.4539 3.66193 17.6197 3.90997 17.7327 4.18296C17.8458 4.45594 17.904 4.74852 17.904 5.044C17.904 5.33948 17.8458 5.63206 17.7327 5.90504C17.6197 6.17803 17.4539 6.42607 17.245 6.635C17.1919 6.68192 17.1547 6.74412 17.1384 6.81306C17.1221 6.882 17.1276 6.95429 17.154 7.02L17.16 7.034C17.1844 7.09565 17.2266 7.1486 17.2813 7.18603C17.336 7.22346 17.4007 7.24365 17.467 7.244C17.7655 7.2407 18.0616 7.29659 18.3383 7.40846C18.615 7.52033 18.8668 7.68595 19.0791 7.89575C19.2914 8.10554 19.46 8.35534 19.5752 8.6307C19.6903 8.90607 19.7498 9.20153 19.75 9.5V10.5C19.7495 11.0966 19.5122 11.6686 19.0904 12.0904C18.6686 12.5122 18.0966 12.7495 17.5 12.75C17.4296 12.7464 17.3599 12.7647 17.3003 12.8023C17.2406 12.8399 17.1941 12.895 17.167 12.96C17.1404 13.0233 17.1322 13.0928 17.1434 13.1606C17.1545 13.2283 17.1845 13.2915 17.23 13.343C17.4428 13.5511 17.6121 13.7994 17.7283 14.0734C17.8444 14.3475 17.905 14.6418 17.9066 14.9395C17.9082 15.2371 17.8507 15.5321 17.7375 15.8073C17.6242 16.0826 17.4575 16.3326 17.247 16.543L16.547 17.249C16.1189 17.6591 15.5489 17.8881 14.956 17.8881C14.3631 17.8881 13.7931 17.6591 13.365 17.249C13.318 17.1961 13.2558 17.1589 13.1869 17.1426C13.118 17.1263 13.0457 17.1317 12.98 17.158C12.9164 17.1829 12.8613 17.2257 12.8216 17.2813C12.7818 17.3368 12.759 17.4027 12.756 17.471C12.7588 17.7691 12.7025 18.0648 12.5904 18.3411C12.4783 18.6173 12.3126 18.8687 12.1028 19.0805C11.8931 19.2924 11.6435 19.4607 11.3684 19.5756C11.0933 19.6905 10.7981 19.7497 10.5 19.75ZM7.691 15.818C8.00375 15.9681 8.26851 16.2023 8.45556 16.4945C8.64261 16.7866 8.74457 17.1251 8.75 17.472C8.7472 17.5726 8.76449 17.6727 8.80084 17.7665C8.83719 17.8603 8.89188 17.946 8.96171 18.0184C9.03154 18.0908 9.11511 18.1486 9.20754 18.1884C9.29996 18.2282 9.39939 18.2491 9.5 18.25H10.5C10.6989 18.25 10.8897 18.171 11.0303 18.0303C11.171 17.8897 11.25 17.6989 11.25 17.5C11.2495 17.1304 11.3585 16.769 11.5631 16.4613C11.7678 16.1536 12.059 15.9134 12.4 15.771C12.7344 15.6324 13.1025 15.5964 13.4574 15.6676C13.8123 15.7389 14.138 15.9141 14.393 16.171C14.4619 16.2447 14.5449 16.3037 14.6371 16.3448C14.7293 16.3858 14.8287 16.408 14.9296 16.4099C15.0304 16.4119 15.1307 16.3936 15.2243 16.3562C15.318 16.3187 15.4033 16.2629 15.475 16.192L16.181 15.492C16.3219 15.351 16.401 15.1598 16.401 14.9605C16.401 14.7612 16.3219 14.57 16.181 14.429C15.9242 14.1704 15.7483 13.8426 15.6749 13.4856C15.6016 13.1285 15.6339 12.7579 15.768 12.419V12.405L15.775 12.388C15.9125 12.0528 16.1468 11.7662 16.448 11.5649C16.7493 11.3636 17.1037 11.2568 17.466 11.258C17.5664 11.2607 17.6664 11.2433 17.7601 11.2068C17.8537 11.1704 17.9392 11.1157 18.0114 11.0459C18.0837 10.976 18.1413 10.8925 18.1809 10.8002C18.2205 10.7078 18.2412 10.6085 18.242 10.508V9.508C18.242 9.30909 18.163 9.11832 18.0223 8.97767C17.8817 8.83702 17.6909 8.758 17.492 8.758C17.1255 8.76254 16.7659 8.65738 16.4596 8.45602C16.1533 8.25465 15.9142 7.9663 15.773 7.628C15.6277 7.28936 15.5877 6.91485 15.6582 6.55316C15.7286 6.19148 15.9063 5.85936 16.168 5.6C16.2434 5.52905 16.3036 5.44356 16.345 5.34868C16.3865 5.25381 16.4082 5.15152 16.409 5.048C16.4093 4.94948 16.39 4.85189 16.3522 4.7609C16.3145 4.66992 16.259 4.58735 16.189 4.518L15.489 3.812C15.4192 3.7424 15.3364 3.68723 15.2453 3.64965C15.1542 3.61207 15.0566 3.59282 14.958 3.593C14.8592 3.59253 14.7613 3.61185 14.6702 3.6498C14.579 3.68776 14.4963 3.74359 14.427 3.814C14.1681 4.0704 13.8403 4.24596 13.4834 4.31929C13.1265 4.39262 12.756 4.36056 12.417 4.227L12.4 4.224L12.383 4.217C12.0478 4.07952 11.7612 3.84518 11.5599 3.54395C11.3586 3.24272 11.2518 2.8883 11.253 2.526C11.2557 2.42555 11.2383 2.32558 11.2018 2.23194C11.1654 2.13829 11.1107 2.05284 11.0409 1.98059C10.971 1.90834 10.8875 1.85073 10.7952 1.81114C10.7028 1.77155 10.6035 1.75076 10.503 1.75H9.503C9.30409 1.75 9.11332 1.82902 8.97267 1.96967C8.83202 2.11032 8.753 2.30109 8.753 2.5C8.75734 2.86911 8.65043 3.23098 8.44621 3.53847C8.24198 3.84597 7.9499 4.08485 7.608 4.224C7.2716 4.36196 6.90215 4.39835 6.5453 4.32869C6.18845 4.25902 5.85981 4.08635 5.6 3.832C5.53095 3.75889 5.44802 3.70028 5.35606 3.65958C5.2641 3.61888 5.16495 3.59691 5.0644 3.59496C4.96386 3.593 4.86393 3.6111 4.77046 3.64819C4.67699 3.68529 4.59184 3.74063 4.52 3.811L3.811 4.52C3.74131 4.58965 3.68602 4.67235 3.6483 4.76338C3.61058 4.8544 3.59116 4.95197 3.59116 5.0505C3.59116 5.14903 3.61058 5.2466 3.6483 5.33762C3.68602 5.42865 3.74131 5.51135 3.811 5.581C4.07455 5.83717 4.25525 6.16647 4.32976 6.52637C4.40427 6.88627 4.36918 7.26025 4.229 7.6C4.21532 7.63423 4.19963 7.66763 4.182 7.7C4.03065 8.01107 3.79585 8.27397 3.50379 8.45938C3.21173 8.64478 2.87391 8.7454 2.528 8.75C2.42742 8.7472 2.3273 8.76449 2.23348 8.80084C2.13966 8.83719 2.05403 8.89188 1.98159 8.96171C1.90915 9.03154 1.85136 9.11511 1.8116 9.20754C1.77183 9.29996 1.75089 9.39939 1.75 9.5V10.5C1.75 10.6989 1.82902 10.8897 1.96967 11.0303C2.11032 11.171 2.30109 11.25 2.5 11.25C2.86698 11.2453 3.22692 11.3509 3.53322 11.5531C3.83952 11.7552 4.07807 12.0447 4.218 12.384L4.224 12.397L4.229 12.411C4.3631 12.7473 4.39668 13.1153 4.32567 13.4703C4.25467 13.8254 4.08213 14.1521 3.829 14.411C3.75524 14.4809 3.69646 14.5651 3.65623 14.6585C3.61601 14.7518 3.59517 14.8524 3.595 14.954C3.59425 15.0528 3.61323 15.1507 3.65084 15.2421C3.68845 15.3334 3.74392 15.4164 3.814 15.486L4.52 16.186C4.66289 16.3225 4.85289 16.3987 5.0505 16.3987C5.24811 16.3987 5.43811 16.3225 5.581 16.186C5.83758 15.9231 6.16704 15.743 6.52689 15.6691C6.88675 15.5951 7.26051 15.6306 7.6 15.771C7.63117 15.785 7.66155 15.8007 7.691 15.818Z"
        fill="#0B042C" />
</svg>
