<svg width="20" height="20" viewBox="0 0 20 20" fill="none" xmlns="http://www.w3.org/2000/svg">
    <path
        d="M8.75003 13.0012V16.0012C8.75003 16.4152 8.41403 16.7512 8.00003 16.7512C7.58603 16.7512 7.25003 16.4152 7.25003 16.0012V13.0012C7.25003 12.5872 7.58603 12.2512 8.00003 12.2512C8.41403 12.2512 8.75003 12.5872 8.75003 13.0012ZM12 12.2512C11.586 12.2512 11.25 12.5872 11.25 13.0012V16.0012C11.25 16.4152 11.586 16.7512 12 16.7512C12.414 16.7512 12.75 16.4152 12.75 16.0012V13.0012C12.75 12.5872 12.414 12.2512 12 12.2512ZM18.197 10.4652L17.43 16.4752C17.192 18.3422 15.593 19.7502 13.71 19.7502H6.31204C4.43604 19.7502 2.83702 18.3472 2.59402 16.4872L1.80402 10.4652C0.887016 10.0182 0.249023 9.08621 0.249023 8.00021C0.249023 6.48321 1.48202 5.25021 2.99902 5.25021H4.57504L7.35602 0.614227C7.56902 0.259227 8.03004 0.143147 8.38504 0.357147C8.74004 0.570147 8.85603 1.0312 8.64203 1.3862L6.32303 5.25021H13.674L11.355 1.3862C11.142 1.0312 11.257 0.570147 11.612 0.357147C11.966 0.144147 12.427 0.259227 12.641 0.614227L15.422 5.25021H17C18.517 5.25021 19.75 6.48321 19.75 8.00021C19.75 9.08621 19.113 10.0182 18.197 10.4652ZM16.648 10.7512H3.35504L4.08203 16.2932C4.22803 17.4092 5.18704 18.2512 6.31204 18.2512H13.71C14.839 18.2512 15.799 17.4062 15.941 16.2862L16.648 10.7512ZM18.25 8.00119C18.25 7.31219 17.689 6.75119 17 6.75119H3.00003C2.31103 6.75119 1.75003 7.31219 1.75003 8.00119C1.75003 8.69019 2.31103 9.25119 3.00003 9.25119H17C17.689 9.25119 18.25 8.69019 18.25 8.00119Z"
        fill="#121212" />
</svg>
