<svg width="42" height="13" viewBox="0 0 42 13" fill="none" xmlns="http://www.w3.org/2000/svg">
    <path
        d="M4.50468 12.2353L2.11286 10.6579L5.03365 7.20996L0.824951 5.97053L1.72187 3.40151L5.72363 5.04658L5.51664 0.764893H8.48346L8.27647 5.04658L12.2782 3.40151L13.1751 5.97053L8.96639 7.20996L11.8642 10.6579L9.47237 12.2128L6.98855 8.56208L4.50468 12.2353Z"
        fill="#0A4438" />
    <path
        d="M18.5047 12.2353L16.1128 10.6579L19.0336 7.20999L14.8249 5.97056L15.7218 3.40154L19.7236 5.04661L19.5166 0.764922H22.4834L22.2764 5.04661L26.2781 3.40154L27.1751 5.97056L22.9664 7.20999L25.8642 10.6579L23.4723 12.2128L20.9885 8.56211L18.5047 12.2353Z"
        fill="#0A4438" />
    <path
        d="M32.5047 12.2353L30.1128 10.6579L33.0336 7.20999L28.8249 5.97056L29.7218 3.40154L33.7236 5.04661L33.5166 0.764922H36.4834L36.2764 5.04661L40.2781 3.40154L41.1751 5.97056L36.9664 7.20999L39.8642 10.6579L37.4723 12.2128L34.9885 8.56211L32.5047 12.2353Z"
        fill="#0A4438" />
</svg>
