<svg width="18" height="17" viewBox="0 0 18 17" fill="none" xmlns="http://www.w3.org/2000/svg">
    <path
        d="M8.04894 1.92705C8.3483 1.00574 9.6517 1.00574 9.95106 1.92705L11.0206 5.21885C11.1545 5.63087 11.5385 5.90983 11.9717 5.90983H15.4329C16.4016 5.90983 16.8044 7.14945 16.0207 7.71885L13.2205 9.75329C12.87 10.0079 12.7234 10.4593 12.8572 10.8713L13.9268 14.1631C14.2261 15.0844 13.1717 15.8506 12.388 15.2812L9.58779 13.2467C9.2373 12.9921 8.7627 12.9921 8.41221 13.2467L5.61204 15.2812C4.82833 15.8506 3.77385 15.0844 4.0732 14.1631L5.14277 10.8713C5.27665 10.4593 5.12999 10.0079 4.7795 9.75329L1.97933 7.71885C1.19562 7.14945 1.59839 5.90983 2.56712 5.90983H6.02832C6.46154 5.90983 6.8455 5.63087 6.97937 5.21885L8.04894 1.92705Z"
        stroke="#121212" stroke-width="1.5" />
</svg>
