<svg width="16" height="14" viewBox="0 0 16 14" fill="none" xmlns="http://www.w3.org/2000/svg">
    <path
        d="M14.7006 6.7229L12.3651 8.96704L12.9164 12.1328C13.0064 12.6495 12.7979 13.1647 12.3719 13.4767C11.9376 13.794 11.3706 13.8376 10.8921 13.5908L8.00014 12.093L5.10815 13.5908C4.90265 13.6973 4.6799 13.7498 4.45865 13.7498C4.16615 13.7498 3.87588 13.6575 3.62838 13.4767C3.20313 13.1647 2.9939 12.6495 3.0839 12.1328L3.63514 8.96704L1.29965 6.7229C0.917149 6.3554 0.779884 5.81476 0.941884 5.31226C1.10538 4.80376 1.53888 4.44155 2.07288 4.36505L5.30465 3.90216L6.74914 1.01843C6.98614 0.544433 7.46614 0.250488 8.00014 0.250488C8.53414 0.250488 9.01414 0.545183 9.25114 1.01843L10.6956 3.90216L13.9274 4.36505C14.4607 4.44155 14.8941 4.80376 15.0576 5.31226C15.2196 5.81476 15.0831 6.3554 14.7006 6.7229Z"
        fill="#EAA401" />
</svg>
