<svg width="25" height="25" viewBox="0 0 25 25" fill="none" xmlns="http://www.w3.org/2000/svg">
    <path
        d="M20.5049 22.4321H4.50488C3.9526 22.4321 3.50488 21.9844 3.50488 21.4321V3.43213C3.50488 2.87985 3.9526 2.43213 4.50488 2.43213H20.5049C21.0572 2.43213 21.5049 2.87985 21.5049 3.43213V21.4321C21.5049 21.9844 21.0572 22.4321 20.5049 22.4321ZM19.5049 20.4321V4.43213H5.50488V20.4321H19.5049ZM9.50488 6.43213V8.43213C9.50488 10.089 10.848 11.4321 12.5049 11.4321C14.1617 11.4321 15.5049 10.089 15.5049 8.43213V6.43213H17.5049V8.43213C17.5049 11.1935 15.2663 13.4321 12.5049 13.4321C9.74346 13.4321 7.50488 11.1935 7.50488 8.43213V6.43213H9.50488Z"
        fill="#878787" />
</svg>
