<svg width="43" height="43" viewBox="0 0 43 43" fill="none" xmlns="http://www.w3.org/2000/svg">
    <g clip-path="url(#clip0_475_8118)">
        <path
            d="M31.3264 16.7447C30.4609 14.9188 31.0995 12.7672 32.742 11.6891C33.0138 11.5108 33.1016 11.1512 32.9625 10.8579L31.2286 7.20001C30.9131 6.53434 30.1183 6.25076 29.4527 6.5663L5.35619 17.9887C4.69053 18.3042 4.40694 19.099 4.72249 19.7646L6.45641 23.4225C6.59576 23.7165 6.92939 23.8756 7.23949 23.778C9.11419 23.1881 11.1837 24.0567 12.0492 25.8826C12.9148 27.7085 12.2762 29.8601 10.6337 30.9383C10.3618 31.1165 10.2741 31.4761 10.4131 31.7695L12.147 35.4273C12.4626 36.093 13.2573 36.3766 13.923 36.0611L38.0195 24.6387C38.6851 24.3231 38.9687 23.5284 38.6532 22.8627L36.9192 19.2049C36.7799 18.9109 36.4463 18.7518 36.1362 18.8494C34.2615 19.4392 32.1919 18.5706 31.3264 16.7447Z"
            fill="#27FA86" />
        <path
            d="M36.8783 22.2269L12.7818 33.6493C12.1167 33.9646 11.3211 33.6807 11.0059 33.0156L12.1481 35.4253C12.4634 36.0903 13.259 36.3742 13.924 36.059L38.0205 24.6366C38.6856 24.3213 38.9695 23.5257 38.6542 22.8606L37.512 20.451C37.8272 21.1161 37.5433 21.9117 36.8783 22.2269Z"
            fill="#0AAF68" />
        <path
            d="M12.5851 14.562L5.35619 17.9887C4.69053 18.3042 4.40694 19.099 4.72249 19.7646L6.45641 23.4225C6.59576 23.7165 6.92939 23.8756 7.23949 23.778C9.11419 23.1881 11.1837 24.0567 12.0492 25.8826C12.9148 27.7085 12.2762 29.8601 10.6337 30.9383C10.3618 31.1165 10.2741 31.4761 10.4131 31.7695L12.147 35.4273C12.4626 36.093 13.2573 36.3766 13.923 36.0611L21.1519 32.6343L12.5851 14.562Z"
            fill="#27FA86" />
        <path
            d="M11.0059 33.0156L12.1481 35.4253C12.4634 36.0903 13.259 36.3742 13.924 36.059L21.153 32.6323L20.0107 30.2226L12.7818 33.6493C12.1167 33.9646 11.3211 33.6807 11.0059 33.0156Z"
            fill="#0AAF68" />
        <path
            d="M33.1084 12.2459C33.6521 11.8893 33.8485 11.1691 33.5652 10.5715L31.8313 6.91368C31.359 5.91729 30.1638 5.4908 29.1674 5.96312L5.07091 17.3855C4.07452 17.8578 3.64804 19.053 4.12035 20.0494L5.85427 23.7073C6.13755 24.3049 6.81943 24.6087 7.43962 24.4136C9.01592 23.918 10.7383 24.6722 11.4471 26.1674C12.1559 27.6626 11.6488 29.4737 10.2678 30.3799C9.72414 30.7365 9.52742 31.4561 9.81099 32.0543L11.5449 35.7121C12.0172 36.7085 13.2124 37.135 14.2088 36.6627L38.3053 25.2403C39.3017 24.768 39.7282 23.5728 39.2558 22.5764L37.5219 18.9185C37.2384 18.3203 36.5568 18.0171 35.9366 18.2122C34.3603 18.7078 32.6379 17.9536 31.9291 16.4584C31.2203 14.9632 31.7272 13.1515 33.1084 12.2459ZM30.7243 17.0295C31.7166 19.1229 34.1293 20.1785 36.3171 19.4897L38.051 23.1475C38.2084 23.4794 38.0661 23.8781 37.7342 24.0355L21.4691 31.7456L20.8028 30.3402C20.6452 30.0076 20.2474 29.8657 19.9149 30.0233C19.5823 30.1809 19.4404 30.5787 19.598 30.9113L20.2642 32.3167L13.6377 35.4579C13.3058 35.6152 12.9071 35.4729 12.7497 35.141L10.9995 31.4953C12.934 30.2256 13.6445 27.6903 12.6519 25.5963C11.6593 23.5023 9.2469 22.4473 7.05909 23.1361L5.32517 19.4783C5.16755 19.1458 5.3101 18.7477 5.64203 18.5903L12.2686 15.4492L12.9348 16.8546C13.0924 17.1871 13.4902 17.3291 13.8227 17.1715C14.1553 17.0138 14.2972 16.616 14.1396 16.2835L13.4734 14.8781L29.7385 7.16794C30.0704 7.0106 30.4688 7.15226 30.6265 7.48479L32.377 11.1311C30.4422 12.4002 29.732 14.9361 30.7243 17.0295Z"
            fill="#08105E" />
        <path
            d="M14.4178 18.4278C14.0853 18.5854 13.9434 18.9833 14.101 19.3158L14.7672 20.7212C14.9248 21.0537 15.3226 21.1957 15.6552 21.0381C15.9877 20.8804 16.1297 20.4826 15.972 20.1501L15.3058 18.7447C15.1482 18.4121 14.7504 18.2702 14.4178 18.4278ZM16.25 22.2929C15.9175 22.4505 15.7755 22.8483 15.9331 23.1809L16.5994 24.5863C16.757 24.9188 17.1548 25.0608 17.4873 24.9031C17.8199 24.7455 17.9618 24.3477 17.8042 24.0152L17.138 22.6097C16.9803 22.2772 16.5825 22.1353 16.25 22.2929ZM18.0824 26.1586C17.7499 26.3162 17.6079 26.714 17.7656 27.0465L18.4318 28.452C18.5894 28.7845 18.9872 28.9265 19.3198 28.7688C19.6523 28.6112 19.7942 28.2134 19.6366 27.8809L18.9704 26.4754C18.8128 26.1429 18.415 26.0009 18.0824 26.1586Z"
            fill="#08105E" />
    </g>
    <defs>
        <clipPath id="clip0_475_8118">
            <rect width="32" height="32" fill="white"
                transform="translate(0.377441 13.7068) rotate(-25.3622)" />
        </clipPath>
    </defs>
</svg>
