<svg width="255" height="76" viewBox="0 0 255 76" fill="none" xmlns="http://www.w3.org/2000/svg">
    <rect width="255" height="76" fill="#0B042C" />
    <path
        d="M58.5738 70.5148C58.4085 70.5148 57.6719 70.5148 56.364 70.5148C55.0513 70.5148 53.46 70.3411 51.5855 69.9936C49.7203 69.6461 47.8269 68.9387 45.9004 67.8839C43.9833 66.8414 42.2787 65.315 40.7819 63.3169C39.2945 61.3127 38.2793 58.6259 37.741 55.2503C37.2594 52.0236 37.5002 49.0638 38.4587 46.3646C39.4267 43.6715 41.0557 41.4936 43.3506 39.8368C45.6407 38.1862 48.5257 37.3548 52.001 37.3548C55.363 37.3548 57.9222 37.9629 59.6882 39.1666C61.4494 40.358 62.6063 41.8472 63.1635 43.6343C63.7301 45.4214 63.9378 47.2271 63.7867 49.0452C63.5695 51.1487 62.8849 52.6938 61.728 53.6866C60.5806 54.6608 59.3151 55.151 57.9316 55.151C56.9117 55.151 55.9343 54.8904 55.0041 54.3816C54.0692 53.8541 53.3089 53.1281 52.7187 52.1974C53.7859 52.1974 54.6547 51.521 55.3252 50.1621C55.991 48.7908 56.3734 47.2085 56.4773 45.4214C56.5906 43.6343 56.3357 42.0582 55.7218 40.6807C55.1174 39.3094 54.088 38.6206 52.6432 38.6206C51.3588 38.6206 50.3389 39.3838 49.5834 40.9041C48.8373 42.4119 48.3085 44.23 47.9969 46.3646C47.6805 48.4991 47.5247 50.522 47.5247 52.4208C47.5247 56.0569 47.8835 59.0044 48.6013 61.2568C49.319 63.5031 50.235 65.2095 51.3588 66.3698C52.4779 67.524 53.682 68.2934 54.9663 68.6781C56.2507 69.0753 57.45 69.2738 58.5738 69.2738C60.2831 69.2738 61.898 68.6347 63.409 67.3627C64.9294 66.103 66.1571 64.3346 67.092 62.0511C68.0364 59.7676 68.5086 57.1863 68.5086 54.3071V1.98563L84.5251 0V45.6944C84.5251 47.0844 84.4307 48.4681 84.2418 49.8394C84.0529 51.217 83.798 52.4952 83.4863 53.6866H90.7769V54.6298H83.1652C81.5645 59.5442 78.637 63.4162 74.3826 66.2457C70.1376 69.0877 64.868 70.5148 58.5738 70.5148Z"
        fill="white" />
    <path
        d="M128.027 54.6297C128.027 55.821 127.673 57.3599 126.97 59.2463C126.275 61.145 125.156 62.8328 123.608 64.3096C122.059 65.7802 120.028 66.5186 117.526 66.5186C116.355 66.5186 115.07 66.3015 113.673 65.8733C112.285 65.4576 110.769 64.7626 109.121 63.7884C110.504 63.5712 111.557 62.6218 112.275 60.934C112.993 59.2587 113.352 57.6143 113.352 55.9948V54.6297H89.1758L89.2513 53.6865C90.8993 53.6865 92.415 53.0287 93.8032 51.7008C95.2009 50.3605 95.8997 48.5673 95.8997 46.3148V40.4075L109.593 38.3226V53.6865H113.352V43.6838C113.352 39.9608 114.003 36.4239 115.316 33.0607C116.624 29.6851 118.48 27.0169 120.888 25.0437C122.762 23.4428 124.939 22.028 127.423 20.7994C129.902 19.5584 132.607 18.9379 135.544 18.9379C138.642 18.9379 141.178 19.4529 143.156 20.4767C145.13 21.4882 146.669 22.7726 147.765 24.3239C148.86 25.8628 149.644 27.4761 150.125 29.1639C150.602 30.8393 150.89 32.3781 150.994 33.7805C151.108 35.189 151.164 36.2377 151.164 36.9327C151.164 40.178 150.47 43.1502 149.087 45.8432C147.698 48.5424 145.899 50.6832 143.685 52.2717C141.466 53.8478 139.1 54.6297 136.583 54.6297H128.027ZM132.579 20.303C131.356 20.303 130.393 21.1469 129.689 22.8347C128.995 24.5225 128.518 26.7253 128.254 29.4369C127.989 32.1361 127.843 34.9905 127.819 38C127.791 41.0156 127.819 43.9258 127.895 46.7368C127.98 49.5539 128.027 51.8684 128.027 53.6865C130.53 53.6865 132.475 52.8426 133.863 51.1548C135.247 49.467 136.234 47.2456 136.829 44.4781C137.419 41.6982 137.716 38.6949 137.716 35.4683C137.716 32.738 137.499 30.2188 137.074 27.898C136.645 25.5835 136.054 23.7406 135.299 22.3631C134.553 20.9918 133.646 20.303 132.579 20.303Z"
        fill="white" />
    <path d="M161.978 1.98563L176.71 0V54.6298H161.978V1.98563Z" fill="white" />
    <path
        d="M217.5 51.1547C217.5 56.1312 216.451 60.4996 214.364 64.2599C212.287 68.014 209.307 70.9118 205.431 72.9471C201.563 74.9824 196.931 76 191.53 76C193.291 76 194.934 75.243 196.459 73.7413C197.98 72.2335 199.207 70.2292 200.142 67.7348C201.087 65.2341 201.559 62.5535 201.559 59.693V54.6296H190.415C186.624 54.6296 183.979 53.5623 182.482 51.4278C180.981 49.2808 180.235 45.6446 180.235 40.5316V36.8334C180.235 34.5189 180.768 32.527 181.84 30.8516C182.907 29.1638 184.258 27.867 185.882 26.9548C187.516 26.0303 189.159 25.5649 190.812 25.5649H208.528C211.031 25.5649 213.156 26.7066 214.893 28.9901C216.631 31.2736 217.5 34.0659 217.5 37.3546V51.1547ZM193.211 45.2723C193.211 46.8794 193.541 48.3376 194.212 49.6407C194.877 50.9314 195.689 51.9366 196.648 52.644C197.616 53.3389 198.527 53.6864 199.387 53.6864H201.559V26.5329H196.988C196.081 26.5329 195.222 26.868 194.419 27.5257C193.612 28.1896 193.211 29.2259 193.211 30.6282V45.2723Z"
        fill="white" />
</svg>
